<svg width="388" height="306" viewBox="0 0 388 306" fill="none" xmlns="http://www.w3.org/2000/svg">
<path d="M336.953 100.97C350.399 71.9229 344.511 51.003 329.777 37.8703C299.585 10.9612 261.473 -4.30655 208.227 1.07149C145.312 7.42657 63.5506 44.0984 36.6578 101.646C26.8926 122.546 34.4875 128.816 59.7858 149.514C71.617 159.196 46.5664 185.087 48.3432 198.994C53.183 237.001 107.41 245.453 167.895 249.3C209.375 251.941 278.948 236.544 308.807 224.003C346.993 207.966 364.741 189.408 364.741 156.575C364.736 138.851 329.162 117.798 336.953 100.97Z" fill="#B2DCD4"/>
<path d="M217.218 224.003C123.947 224.003 48.3379 240.317 48.3379 260.442C48.3379 280.567 123.947 296.88 217.218 296.88C277.992 296.88 386.091 266.402 386.091 251.638C386.096 234.491 310.487 224.003 217.218 224.003Z" fill="#88BD9A"/>
<path d="M127.413 125.956C124.934 125.761 122.223 134.551 121.358 145.587C120.493 156.624 121.8 165.728 124.28 165.923C126.76 166.118 129.471 157.328 130.337 146.292C131.203 135.255 129.893 126.15 127.413 125.956Z" fill="#ACCB6F"/>
<path d="M132.511 180.388C127.971 180.291 122.616 183.352 122.268 187.007C121.919 190.663 131.642 192.271 136.568 191.884C141.495 191.496 149.803 195.748 150.769 196.713C151.734 197.679 156.176 191.884 156.176 191.884C156.176 191.884 149.612 165.996 132.511 180.388Z" fill="#94B836"/>
<path d="M98.7409 154.595C98.7409 154.595 100.179 152.068 91.8514 151.463C81.7919 150.731 79.2858 145.939 79.2858 145.939C75.4217 145.783 79.8655 157.108 84.889 164.256C89.9124 171.405 104.595 172.178 106.703 172.564C108.81 172.95 109.811 177.78 112.579 178.948C114.574 177.411 117.153 167.153 114.061 160.006C110.969 152.859 98.7409 154.595 98.7409 154.595Z" fill="#84AE3C"/>
<path d="M89.8438 183.554C77.1324 183.403 71.3595 192.463 68.0801 199.998C64.8007 207.532 71.0753 215.745 71.0753 215.745C72.1379 207.34 88.1764 200.191 94.3555 200.771C100.535 201.351 110.006 197.101 109.52 188.117C106.911 178.362 95.7085 180.871 89.8438 183.554Z" fill="#9BC453"/>
<path d="M104.016 201.544C94.3553 200.771 83.9224 205.794 85.8551 219.903C87.9801 217.584 100.08 208.012 109.539 214.667C109.539 214.662 113.676 202.312 104.016 201.544Z" fill="#94B836"/>
<path d="M100.635 265.59H132.802L139.178 225.308L97.9902 225.938L100.635 265.59Z" fill="#58973D"/>
<path d="M123.93 165.873L118.234 225.572L118.909 225.637L124.605 165.937L123.93 165.873Z" fill="#6A8839"/>
<path d="M105.071 160.129C101.587 156.257 98.2958 154.379 98.155 154.301L97.8218 154.891C97.8545 154.91 101.17 156.804 104.58 160.601C107.724 164.095 111.584 169.966 112.175 178.094C113.321 193.849 115.056 225.013 115.067 225.326L115.744 225.288C115.726 224.975 113.991 193.805 112.852 178.045C112.248 169.716 108.287 163.709 105.071 160.129Z" fill="#6A8839"/>
<path d="M107.865 186.206C105.589 184.438 102.926 183.236 100.095 182.7C97.2031 182.143 94.0431 182.23 90.7046 182.952H90.6896C86.2119 184.107 82.1847 186.582 79.1299 190.054C76.649 192.851 74.6585 196.36 73.22 200.481C70.7655 207.483 70.7366 213.936 70.7366 213.998H71.4143C71.4143 213.934 71.4445 207.585 73.8651 200.688C76.0857 194.363 80.8376 186.265 90.8618 183.608C103.901 180.776 113.37 188.077 116.824 203.638C120.256 219.081 121.004 225.547 121.011 225.61L121.684 225.535C121.677 225.47 120.93 218.978 117.485 203.491C115.73 195.605 112.495 189.787 107.865 186.206Z" fill="#6A8839"/>
<path d="M132.385 180.073C130.936 180.653 129.64 183.343 128.424 188.305C127.483 192.139 126.601 197.31 125.8 203.674C124.438 214.501 123.775 225.176 123.769 225.287L124.445 225.328C124.452 225.222 125.112 214.561 126.472 203.756C128.845 184.894 131.354 181.216 132.634 180.702C138.166 178.489 148.691 188.076 148.797 188.173L149.256 187.67C148.816 187.265 138.311 177.703 132.385 180.073Z" fill="#6A8839"/>
<path d="M107.614 211.892C107.648 211.937 111.047 216.528 112.182 225.758L112.854 225.675C111.694 216.244 108.298 211.673 108.153 211.482L107.614 211.892Z" fill="#6A8839"/>
<path d="M63.2175 187.462C62.5437 187.462 61.8849 187.661 61.3245 188.035C60.764 188.409 60.327 188.941 60.0687 189.563C59.8105 190.186 59.7426 190.87 59.8737 191.531C60.0047 192.192 60.3288 192.799 60.805 193.276C61.2811 193.753 61.888 194.078 62.5487 194.209C63.2095 194.341 63.8945 194.274 64.5171 194.016C65.1397 193.759 65.6719 193.323 66.0465 192.762C66.4211 192.202 66.6211 191.544 66.6214 190.87C66.6217 189.967 66.2633 189.1 65.625 188.461C64.9867 187.822 64.1207 187.463 63.2175 187.462Z" fill="#89C19D"/>
<path d="M56.8574 183.544C61.2899 182.498 64.0351 178.056 62.989 173.624C61.9428 169.191 57.5014 166.446 53.069 167.492C48.6365 168.539 45.8913 172.98 46.9375 177.412C47.9836 181.845 52.425 184.59 56.8574 183.544Z" fill="#02856C"/>
<path d="M49.9143 136.068C51.6858 132.526 50.2504 128.218 46.7081 126.447C43.1659 124.675 38.8582 126.111 37.0867 129.653C35.3152 133.195 36.7507 137.503 40.2929 139.274C43.8352 141.046 48.1428 139.611 49.9143 136.068Z" fill="#219D7D"/>
<path d="M55.8679 111.687C55.0877 111.686 54.3249 111.917 53.676 112.351C53.0271 112.784 52.5213 113.4 52.2226 114.121C51.9239 114.842 51.8457 115.635 51.9979 116.4C52.15 117.166 52.5257 117.869 53.0775 118.42C53.6292 118.972 54.3322 119.348 55.0974 119.5C55.8627 119.652 56.656 119.574 57.3768 119.275C58.0976 118.976 58.7137 118.471 59.147 117.822C59.5803 117.173 59.8115 116.41 59.8113 115.63C59.8113 114.584 59.3958 113.581 58.6563 112.841C57.9168 112.102 56.9138 111.687 55.8679 111.687Z" fill="#02856C"/>
<path d="M96.2046 94.1167C95.4244 94.1167 94.6618 94.348 94.0131 94.7815C93.3644 95.2149 92.8588 95.831 92.5603 96.5517C92.2617 97.2725 92.1836 98.0656 92.3358 98.8308C92.488 99.596 92.8637 100.299 93.4153 100.85C93.967 101.402 94.6699 101.778 95.435 101.93C96.2002 102.082 96.9933 102.004 97.7141 101.706C98.4349 101.407 99.0509 100.901 99.4844 100.253C99.9178 99.6041 100.149 98.8414 100.149 98.0613C100.149 97.0152 99.7331 96.0121 98.9934 95.2724C98.2538 94.5327 97.2506 94.117 96.2046 94.1167Z" fill="#02856C"/>
<path d="M101.582 61.1307C103.464 61.1307 104.989 59.6056 104.989 57.7243C104.989 55.843 103.464 54.3179 101.582 54.3179C99.7011 54.3179 98.176 55.843 98.176 57.7243C98.176 59.6056 99.7011 61.1307 101.582 61.1307Z" fill="#02856C"/>
<path d="M73.6165 84.0771C72.9072 84.0769 72.2137 84.287 71.6238 84.6809C71.0339 85.0748 70.574 85.6348 70.3024 86.2901C70.0308 86.9454 69.9596 87.6665 70.0978 88.3622C70.236 89.058 70.5775 89.6971 71.079 90.1987C71.5805 90.7004 72.2195 91.0421 72.9152 91.1806C73.6109 91.319 74.332 91.2481 74.9874 90.9767C75.6427 90.7053 76.2029 90.2456 76.597 89.6559C76.9911 89.0661 77.2015 88.3727 77.2015 87.6633C77.2015 86.7124 76.8238 85.8005 76.1515 85.128C75.4793 84.4555 74.5674 84.0775 73.6165 84.0771Z" fill="#02856C"/>
<path d="M69.1362 68.3018C68.5333 68.3018 67.9439 68.4806 67.4426 68.8155C66.9414 69.1505 66.5507 69.6266 66.32 70.1836C66.0894 70.7407 66.0291 71.3536 66.1468 71.9449C66.2645 72.5362 66.5549 73.0793 66.9813 73.5055C67.4077 73.9317 67.9509 74.2219 68.5423 74.3394C69.1336 74.4569 69.7465 74.3963 70.3035 74.1654C70.8604 73.9345 71.3363 73.5437 71.6711 73.0423C72.0059 72.5408 72.1844 71.9514 72.1842 71.3485C72.1838 70.5404 71.8626 69.7654 71.291 69.1941C70.7194 68.6227 69.9443 68.3018 69.1362 68.3018Z" fill="#02856C"/>
<path d="M45.1106 62.5635C44.4367 62.563 43.7779 62.7623 43.2174 63.1363C42.6569 63.5103 42.2199 64.0422 41.9617 64.6646C41.7035 65.2869 41.6357 65.9719 41.7668 66.6329C41.898 67.2938 42.2222 67.901 42.6985 68.3777C43.1748 68.8543 43.7817 69.179 44.4426 69.3106C45.1034 69.4423 45.7884 69.375 46.411 69.1172C47.0336 68.8595 47.5658 68.4228 47.9402 67.8626C48.3146 67.3024 48.5144 66.6437 48.5144 65.9699C48.5144 65.0669 48.1559 64.2008 47.5176 63.5621C46.8793 62.9233 46.0136 62.5641 45.1106 62.5635Z" fill="#02856C"/>
<path d="M39.5527 87.3037C38.7726 87.3037 38.0099 87.535 37.3612 87.9685C36.7126 88.4019 36.207 89.018 35.9084 89.7388C35.6099 90.4595 35.5317 91.2527 35.6839 92.0178C35.8362 92.783 36.2118 93.4859 36.7635 94.0375C37.3152 94.5892 38.018 94.9649 38.7832 95.1171C39.5483 95.2693 40.3415 95.1911 41.0622 94.8926C41.783 94.594 42.3991 94.0885 42.8325 93.4398C43.266 92.7911 43.4973 92.0284 43.4973 91.2483C43.4973 90.2021 43.0817 89.1988 42.342 88.4591C41.6022 87.7193 40.5989 87.3037 39.5527 87.3037Z" fill="#02856C"/>
<path d="M74.6149 87.5053L39.7928 91.9252L45.2551 66.1993L67.6563 71.5321L67.7431 71.1649L44.9659 65.7429L39.3691 92.1063L39.3137 92.3653L75.1267 87.8209L69.3714 71.4541L101.348 58.0273L96.019 94.0892L96.3912 94.1446L101.771 57.7519L101.818 57.4199L68.8974 71.2442L74.6149 87.5053Z" fill="#02856C"/>
<path d="M101.999 117.395C92.3905 111.862 84.0713 120.518 81.3376 123.886C79.0743 122.577 77.6471 121.748 77.6471 121.748C77.6471 121.748 73.6157 124.65 73.6157 128.035L104.579 145.936C104.579 145.936 107.1 143.518 108.742 139.485C108.126 139.152 107.421 138.764 106.644 138.333C111.099 130.873 109.204 121.898 101.999 117.395ZM101.496 135.444C96.6368 132.694 90.8551 129.374 86.2014 126.691C89.0055 123.203 93.9459 121.014 98.4551 123.2C104.446 127.196 102.815 132.734 101.491 135.444H101.496Z" fill="#89C19D"/>
<path d="M78.7812 127.693L77.491 130.279L77.7948 130.43L79.085 127.845L78.7812 127.693Z" fill="#4D9989"/>
<path d="M84.7808 120.214L84.5437 120.457L86.6121 122.475L86.8492 122.232L84.7808 120.214Z" fill="#4D9989"/>
<path d="M90.3861 116.804L90.0625 116.907L90.9382 119.66L91.2617 119.558L90.3861 116.804Z" fill="#4D9989"/>
<path d="M95.4965 115.578L95.4441 118.467L95.7835 118.473L95.836 115.584L95.4965 115.578Z" fill="#4D9989"/>
<path d="M83.625 128.977L81.5288 132.602L81.8227 132.772L83.9189 129.147L83.625 128.977Z" fill="#4D9989"/>
<path d="M86.1845 132.084L84.8943 134.669L85.1981 134.821L86.4883 132.235L86.1845 132.084Z" fill="#4D9989"/>
<path d="M91.0283 133.368L88.9321 136.993L89.226 137.163L91.3222 133.538L91.0283 133.368Z" fill="#4D9989"/>
<path d="M94.0221 136.601L92.7314 139.187L93.0352 139.338L94.3259 136.753L94.0221 136.601Z" fill="#4D9989"/>
<path d="M101.841 140.943L100.551 143.529L100.855 143.68L102.145 141.095L101.841 140.943Z" fill="#4D9989"/>
<path d="M98.8644 137.886L96.7676 141.51L97.0615 141.68L99.1582 138.056L98.8644 137.886Z" fill="#4D9989"/>
<path d="M102.717 117.699L101.004 120.026L101.278 120.228L102.991 117.901L102.717 117.699Z" fill="#4D9989"/>
<path d="M107.093 122.863L104.39 123.883L104.509 124.2L107.213 123.181L107.093 122.863Z" fill="#4D9989"/>
<path d="M106.296 128.492L106.202 128.818L108.978 129.625L109.072 129.299L106.296 128.492Z" fill="#4D9989"/>
<path d="M105.492 133.851L105.318 134.142L107.795 135.629L107.97 135.338L105.492 133.851Z" fill="#4D9989"/>
<path d="M138.837 29.6948C138.537 29.6933 138.243 29.781 137.993 29.9467C137.742 30.1125 137.547 30.3488 137.431 30.6257C137.315 30.9027 137.284 31.2078 137.341 31.5025C137.399 31.7972 137.543 32.0681 137.755 32.2809C137.967 32.4938 138.237 32.6389 138.531 32.6981C138.825 32.7572 139.131 32.7276 139.408 32.6131C139.686 32.4985 139.923 32.3041 140.09 32.0546C140.257 31.8051 140.346 31.5116 140.346 31.2113C140.346 30.8104 140.187 30.4258 139.905 30.1417C139.622 29.8575 139.238 29.6968 138.837 29.6948Z" fill="#89C19D"/>
<path d="M146.922 17.9873C146.239 17.9873 145.572 18.1898 145.004 18.5692C144.436 18.9486 143.993 19.4879 143.732 20.1188C143.471 20.7498 143.402 21.4441 143.536 22.1139C143.669 22.7837 143.998 23.3989 144.481 23.8818C144.963 24.3647 145.579 24.6936 146.249 24.8268C146.918 24.96 147.613 24.8916 148.244 24.6303C148.874 24.369 149.414 23.9264 149.793 23.3586C150.173 22.7907 150.375 22.1231 150.375 21.4402C150.375 20.5245 150.011 19.6462 149.364 18.9986C148.716 18.3511 147.838 17.9873 146.922 17.9873Z" fill="#89C19D"/>
<path d="M159.555 7.79639C158.723 7.79639 157.908 8.04337 157.216 8.50609C156.523 8.96882 155.984 9.62651 155.665 10.396C155.346 11.1655 155.263 12.0122 155.425 12.8291C155.588 13.646 155.989 14.3963 156.578 14.9853C157.167 15.5742 157.917 15.9753 158.734 16.1378C159.551 16.3003 160.397 16.2169 161.167 15.8981C161.936 15.5794 162.594 15.0396 163.057 14.3471C163.52 13.6546 163.767 12.8404 163.767 12.0075C163.766 10.8908 163.322 9.81984 162.533 9.03017C161.743 8.2405 160.672 7.79672 159.555 7.79639Z" fill="#89C19D"/>
<path d="M145.891 39.0219L145.798 38.7905L145.361 38.9691C145.371 38.9917 145.378 39.0144 145.386 39.037L145.425 39.1338C145.435 39.1552 145.446 39.1766 145.455 39.1992L145.893 39.0219H145.891Z" fill="#219D7D"/>
<path d="M133.124 44.1413L133.084 44.042C133.074 44.0206 133.063 43.9992 133.054 43.9766L132.616 44.1551L132.711 44.3877L133.148 44.2092C133.139 44.1866 133.132 44.1639 133.124 44.1413Z" fill="#219D7D"/>
<path d="M144.322 42.191L144.717 42.0301C145.811 41.585 146.305 40.2181 145.849 38.9179L145.84 38.8991C145.264 37.6416 143.954 37.0129 142.861 37.4581L133.798 41.1486C132.704 41.5938 132.209 42.9606 132.666 44.2608L132.673 44.2796C133.251 45.5371 134.56 46.1658 135.654 45.7207L136.558 45.3522L148.809 76.2751L148.832 76.3329L148.881 76.3719C148.96 76.436 150.357 77.5325 152.068 77.5325C152.762 77.5352 153.443 77.3441 154.035 76.9805C154.572 76.6728 155.039 76.2569 155.407 75.759C155.775 75.2612 156.036 74.6923 156.172 74.0884C156.367 73.222 156.277 72.4349 156.137 72.2022C155.819 71.5396 145.563 45.3598 144.322 42.191ZM153.791 76.5756C151.779 77.7991 149.573 76.2965 149.224 76.0387L136.912 44.9561L136.824 44.7348L135.479 45.2831C134.621 45.6314 133.584 45.1095 133.111 44.0923C132.734 43.0348 133.111 41.9345 133.974 41.5862L143.037 37.8956C143.894 37.5473 144.931 38.0704 145.405 39.0864C145.782 40.1439 145.405 41.2442 144.542 41.5925L143.788 41.9006V42.059C143.788 42.1106 143.788 42.1269 149.698 57.1784C155.456 71.8363 155.695 72.367 155.734 72.4386C155.847 72.6713 156.151 75.156 153.791 76.5756Z" fill="#219D7D"/>
<path d="M147.625 51.9121C147.625 51.9121 147.285 54.4157 146.77 54.9501C146.452 55.907 143.468 59.3234 142.244 58.6595L148.937 75.3117C148.937 75.3117 149.793 78.1384 153.791 76.5691C155.505 75.6148 155.859 73.9776 155.735 72.4322C154.852 70.2694 147.625 51.9121 147.625 51.9121Z" fill="#89C19D"/>
<path d="M146.738 50.1239C146.235 49.9202 145.948 49.9038 145.774 50.0673C145.513 50.3112 145.679 50.8117 145.929 51.5762C146.225 52.469 146.616 53.6522 146.441 54.7915C145.987 55.3385 145.293 55.8326 144.232 56.098C142.277 56.5858 141.742 57.0599 141.742 58.3035C141.742 58.7411 141.941 58.9196 142.108 58.9913C142.197 59.0281 142.293 59.0461 142.39 59.0441C143.294 59.0441 144.822 57.7377 145.709 56.8977C146.266 56.3842 146.639 55.7021 146.771 54.9562C147.281 54.2918 147.582 53.4909 147.636 52.6551C147.719 51.4706 147.324 50.3615 146.738 50.1239ZM145.463 56.6336C143.633 58.3639 142.586 58.8065 142.245 58.6594C142.207 58.643 142.094 58.594 142.094 58.2972C142.094 57.3001 142.4 56.914 144.315 56.4362C145.026 56.2738 145.69 55.9474 146.253 55.4831C146.078 55.9207 145.809 56.3138 145.463 56.6336ZM147.28 52.6237C147.241 53.1742 147.089 53.7107 146.832 54.1992C146.832 53.1794 146.505 52.1873 146.264 51.4593C146.118 51.0179 145.919 50.4144 146.012 50.3276C146.012 50.3276 146.029 50.3125 146.087 50.3125C146.265 50.3285 146.439 50.3762 146.601 50.4533C146.987 50.6067 147.359 51.5372 147.282 52.6237H147.28Z" fill="#219D7D"/>
<path d="M229.947 47.8637C236.878 40.9324 236.878 29.6945 229.947 22.7632C223.015 15.832 211.777 15.8319 204.846 22.7632C197.915 29.6945 197.915 40.9324 204.846 47.8637C211.777 54.795 223.015 54.795 229.947 47.8637Z" fill="#016557"/>
<mask id="mask0_65_24" style="mask-type:luminance" maskUnits="userSpaceOnUse" x="199" y="17" width="37" height="37">
<path d="M229.947 47.8642C236.878 40.9329 236.878 29.695 229.947 22.7637C223.015 15.8324 211.777 15.8324 204.846 22.7637C197.915 29.695 197.915 40.9329 204.846 47.8642C211.777 54.7955 223.015 54.7955 229.947 47.8642Z" fill="white"/>
</mask>
<g mask="url(#mask0_65_24)">
<path d="M220.086 23.1284C223.851 25.4584 228.511 26.7133 226.181 27.6099C223.851 28.5064 219.013 30.6579 221.878 31.733C224.742 32.8081 228.291 31.9128 229.031 32.8094C229.772 33.7059 229.587 35.1394 231.559 35.3242C233.53 35.5091 236.22 35.3242 236.22 35.3242L238.193 29.9462L229.031 21.9212C229.031 21.9212 216.321 20.7921 220.086 23.1284Z" fill="#219D7D"/>
<path d="M209.15 30.8327C208.792 29.0396 211.48 27.4263 211.122 24.3782C210.763 21.3302 199.648 27.0679 199.648 27.0679C196.2 29.3313 198.642 39.6171 198.642 39.6171C198.642 39.6171 200.67 41.2593 204.131 40.3338C207.591 39.4084 204.13 37.2858 206.191 35.3934C208.252 33.5009 210.047 38.8991 212.73 38.7205C215.413 38.542 214.882 36.5691 212.73 33.6103C210.579 30.6516 209.509 32.6245 209.15 30.8327Z" fill="#9ED0AE"/>
<path d="M232.711 44.2899C230.634 43.7631 231.919 43.5606 231.202 41.9473C230.486 40.334 227.617 44.637 226.004 44.8155C224.391 44.9941 225.286 41.9473 225.108 38.7208C224.929 35.4942 222.593 36.5693 220.088 40.617C217.583 44.6647 221.345 42.8439 222.776 45.8919C224.207 48.9399 221.343 46.4301 219.39 47.0814C217.437 47.7328 219.908 49.2983 215.785 50.015C211.662 50.7318 210.427 52.9801 210.586 53.0631C227.795 62.0261 234.787 44.8155 232.711 44.2899Z" fill="#89C19D"/>
</g>
<path d="M211.925 77.4445C215.292 77.4445 218.021 74.7152 218.021 71.3485C218.021 67.9817 215.292 65.2524 211.925 65.2524C208.559 65.2524 205.829 67.9817 205.829 71.3485C205.829 74.7152 208.559 77.4445 211.925 77.4445Z" fill="#89C19D"/>
<path d="M356.158 94.8347C361.307 94.8347 365.481 90.6608 365.481 85.5121C365.481 80.3633 361.307 76.1895 356.158 76.1895C351.01 76.1895 346.836 80.3633 346.836 85.5121C346.836 90.6608 351.01 94.8347 356.158 94.8347Z" fill="#B4D9BD"/>
<path d="M333.21 90.7101C335.487 90.7101 337.333 88.8641 337.333 86.587C337.333 84.3099 335.487 82.4639 333.21 82.4639C330.932 82.4639 329.086 84.3099 329.086 86.587C329.086 88.8641 330.932 90.7101 333.21 90.7101Z" fill="#219D7D"/>
<path d="M275.626 59.2646H248.076V59.7676H275.626V59.2646Z" fill="#89C19D"/>
<path d="M248.179 57.417C247.764 57.417 247.358 57.5402 247.013 57.771C246.667 58.0018 246.398 58.3298 246.239 58.7136C246.08 59.0974 246.039 59.5197 246.12 59.927C246.201 60.3344 246.401 60.7086 246.695 61.0022C246.989 61.2958 247.363 61.4957 247.771 61.5766C248.178 61.6575 248.6 61.6157 248.984 61.4566C249.368 61.2975 249.696 61.0281 249.926 60.6826C250.157 60.3372 250.28 59.931 250.279 59.5157C250.279 59.2399 250.225 58.9669 250.12 58.7122C250.014 58.4575 249.859 58.2261 249.664 58.0312C249.469 57.8363 249.238 57.6818 248.983 57.5764C248.728 57.471 248.455 57.4168 248.179 57.417Z" fill="#89C19D"/>
<path d="M272.189 56.63L275.295 59.517L272.189 62.4041L272.775 63.0341L276.559 59.517L272.775 56L272.189 56.63Z" fill="#89C19D"/>
<path d="M257.729 40.0308L252.494 54.8371H254.506L255.829 50.9767H262.095L263.416 54.8371H265.479L260.218 40.0308H257.729ZM261.483 49.2314H256.406L257.49 46.0061C258.442 43.2825 258.919 41.8566 258.919 41.6969H258.998C258.998 41.8817 259.448 43.2825 260.346 45.8741L261.483 49.2314Z" fill="#89C19D"/>
<path d="M281.755 108.232C288.717 106.755 293.162 99.9146 291.685 92.9535C290.208 85.9923 283.367 81.5466 276.406 83.0237C269.445 84.5008 264.999 91.3414 266.477 98.3025C267.954 105.264 274.794 109.709 281.755 108.232Z" fill="#219D7D"/>
<path d="M287.738 105.017C289.885 111.996 290.295 116.953 288.782 117.646C288.651 117.705 288.508 117.735 288.363 117.733C285.758 117.733 279.345 109.461 273.191 96.0356C270.261 89.6428 268.018 83.4009 266.874 78.4591C265.79 73.7689 265.835 70.6517 267 70.1186C267.865 69.7225 269.408 70.707 271.343 72.8925C273.324 75.132 275.604 78.4843 277.934 82.5873L278.364 82.3433C274.449 75.4463 269.353 68.4952 266.796 69.6684C264.959 70.5109 265.565 74.9748 266.397 78.571C267.548 83.5442 269.802 89.8201 272.746 96.243C277.88 107.444 284.887 118.226 288.38 118.226C288.591 118.229 288.801 118.186 288.993 118.1C291.598 116.906 289.318 108.454 288.216 104.875L287.738 105.017Z" fill="#89C19D"/>
<path d="M292.063 92.7409L291.873 93.1986C299.144 96.2165 303.535 99.2482 303.065 100.937C302.391 103.34 291.555 103.075 276.498 98.8596C261.44 94.6447 252.048 89.2314 252.722 86.8272C253.266 84.8807 260.267 84.799 269.73 86.6298L269.824 86.1432C261.833 84.599 253.019 83.9326 252.244 86.6939C251.287 90.1079 263.757 95.8028 276.364 99.3362C284.114 101.508 292.242 102.955 297.578 102.955C300.923 102.955 303.173 102.385 303.541 101.069C304.35 98.1793 295.784 94.2825 292.063 92.7409Z" fill="#89C19D"/>
<path d="M326.978 138.938C324.396 140.554 322.91 142.836 323.659 144.029C324.409 145.223 327.107 144.884 329.689 143.275C332.27 141.665 333.756 139.377 333.008 138.184C332.26 136.99 329.559 137.321 326.978 138.938Z" fill="#02856C"/>
<path d="M347.662 123.248C349.923 122.873 351.616 121.72 351.443 120.673C351.269 119.625 349.295 119.079 347.034 119.454C344.772 119.828 343.079 120.981 343.252 122.029C343.426 123.076 345.4 123.622 347.662 123.248Z" fill="#02856C"/>
<path d="M358.279 122.559C356.016 122.936 354.325 124.085 354.498 125.134C354.672 126.183 356.646 126.727 358.908 126.352C361.17 125.978 362.863 124.825 362.689 123.777C362.516 122.73 360.542 122.184 358.279 122.559Z" fill="#02856C"/>
<path d="M337.651 121.064C335.075 119.203 332.32 115.677 332.293 115.64L331.688 114.863L332.694 138.19L333.323 138.164L332.401 116.771C333.367 117.93 335.345 120.166 337.285 121.574C339.15 122.921 339.744 126.352 339.114 127.703C338.862 128.239 338.534 128.225 338.308 128.168L338.154 128.778C338.811 128.942 339.368 128.652 339.683 127.968C340.413 126.398 339.78 122.602 337.651 121.064Z" fill="#02856C"/>
<path d="M360.232 106.873L359.951 106.604L351.053 121.155L351.589 121.482L360.084 107.586C361.257 108.666 365.7 112.596 368.666 113.018C364.564 121.053 362.327 124.242 362.305 124.273L362.819 124.637C362.841 124.604 365.176 121.277 369.44 112.884L369.673 112.426H369.16C366.091 112.426 360.288 106.922 360.232 106.873Z" fill="#02856C"/>
<path d="M319.764 41.9468C319.048 42.6635 299.637 52.5369 306.473 68.8446C316.358 72.603 343.788 58.5487 333.21 32.0508C333.21 32.0558 320.481 41.2351 319.764 41.9468Z" fill="#219D7D"/>
<path d="M321.946 53.3756C316.402 61.0711 307.661 70.4767 297.5 71.5744L297.568 72.2032C302.168 71.7002 306.858 69.5336 311.505 65.7487C315.207 62.7309 318.894 58.6933 322.461 53.7377C328.528 45.3129 332.206 37.0415 332.243 36.9585L331.667 36.707C331.632 36.7825 327.976 45.0074 321.946 53.3756Z" fill="#02856C"/>
<path d="M14.7581 287.201V292.588L99.0779 292.724L141.472 283.923V278.301L93.095 282.751L14.7581 287.201Z" fill="#FDBB3D"/>
<path d="M97.6525 287.201L141.473 278.301H88.5386L97.6525 287.201Z" fill="#F9A33B"/>
<path d="M76.3588 235.205H9.6066C-4.21261 235.205 0.940354 243.695 0.940354 243.695L14.7583 287.202H97.6522C97.6522 287.202 91.8177 260.97 88.8627 246.63C85.9077 232.29 76.3588 235.205 76.3588 235.205Z" fill="#FEDB80"/>
<path d="M47.5092 269.349C52.5809 269.349 56.6923 266.758 56.6923 263.561C56.6923 260.364 52.5809 257.773 47.5092 257.773C42.4376 257.773 38.3262 260.364 38.3262 263.561C38.3262 266.758 42.4376 269.349 47.5092 269.349Z" fill="#FFEBA5"/>
<path d="M331.611 166.159L256.258 175.607L306.681 193.864C306.681 193.864 341.167 175.461 344.935 170.098C344.357 168.362 331.611 166.159 331.611 166.159Z" fill="#219D7D"/>
<path d="M361.456 262.257L367.977 261.533L384.64 254.143L367.977 252.068L361.456 262.257Z" fill="#5F3515"/>
<path d="M295.817 266.315L340.01 272.401L353.197 265.3L291.614 262.257L295.817 266.315Z" fill="#5F3515"/>
<path d="M384.641 254.142C378.699 253.707 339.721 269.791 339.721 269.791L300.597 264.375L245.1 257.162L203.014 277.748L338.271 303.844C338.271 303.844 376.38 284.717 385.802 278.92C389.712 271.965 387.828 254.287 384.641 254.142Z" fill="#8C451C"/>
<path d="M382.032 258.634L339.63 274.83L245.391 259.938L211.926 273.393L337.982 298.775C337.982 298.775 378.264 279.504 381.163 277.62C384.061 275.736 384.495 273.848 384.641 266.028C384.787 258.208 382.032 258.634 382.032 258.634Z" fill="#FEDB80"/>
<path d="M339.442 277.741L338.572 295.274L339.113 295.301L339.983 277.768L339.442 277.741Z" fill="#3A3A3C"/>
<path d="M219.163 225.307L236.696 236.61L356.786 237.624L370.729 226.467L352.241 224.222L219.163 225.307Z" fill="#9B1217"/>
<path d="M370.73 226.467L355.077 236.031L238.577 232.697L232.346 231.973L241.044 261.538L359.428 267.189L370.73 251.685C376.525 225.887 370.73 226.467 370.73 226.467Z" fill="#AF2C19"/>
<path d="M367.977 232.697L356.786 240.667L238.581 234.292L244.377 258.49L358.124 263.561C358.124 263.561 359.428 262.692 367.977 250.375C371.889 228.785 367.977 232.697 367.977 232.697Z" fill="#FFE691"/>
<path d="M357.051 243.32L356.51 243.352L357.558 260.833L358.098 260.801L357.051 243.32Z" fill="#3A3A3C"/>
<path d="M311.466 204.876L328.853 216.903L353.197 192.995L339.924 190.676L311.466 204.876Z" fill="#CB5824"/>
<path d="M356.529 207.775C356.818 196.618 354.066 193.14 353.197 192.995C352.328 192.85 329.288 204.008 327.984 204.008C326.68 204.008 318.855 202.848 318.855 202.848L231.338 194.734L229.452 227.481L329.144 236.032C329.144 236.032 347.835 228.352 353.197 225.453C358.559 222.555 356.24 218.932 356.529 207.775Z" fill="#E96C26"/>
<path d="M352.138 196.905C351.621 196.512 328.418 207.627 328.418 207.627L314.927 206.034L234.237 196.038L231.483 225.018L328.419 232.697C328.419 232.697 349.99 223.858 352.139 223.279C354.288 222.699 353.774 212.121 353.922 206.325C354.071 200.528 352.655 197.3 352.138 196.905Z" fill="#FDECBB"/>
<path d="M328.689 210.383H328.147V230.089H328.689V210.383Z" fill="#3A3A3C"/>
<path d="M305.959 186.039L254.518 176.912L210.02 177.197L228.292 196.906L308.711 209.078C308.711 209.078 336.098 195.891 344.937 189.806C348.603 174.77 344.937 170.1 344.937 170.1L305.959 186.039Z" fill="#02856C"/>
<path d="M337.982 176.331C336.533 176.765 307.118 189.59 307.118 189.59L247.566 177.782L212.358 174.448L228.297 192.271L308.426 204.008C308.426 204.008 341.028 188.793 341.318 187.344C341.607 185.895 341.464 179.379 341.318 177.787C341.172 176.196 339.43 175.896 337.982 176.331Z" fill="#FDECBB"/>
<path d="M307.548 190.626L307.007 190.663L307.733 201.385L308.273 201.349L307.548 190.626Z" fill="#3A3A3C"/>
<path d="M315.232 147.641L235.538 142.566L215.976 158.509L324.795 163.287C324.795 163.287 331.316 149.665 331.607 148.797C331.897 147.928 315.232 147.641 315.232 147.641Z" fill="#94B836"/>
<path d="M331.607 148.8C330.592 148.076 319.87 156.914 319.87 156.914C311.755 154.596 222.062 152.928 222.062 152.928L216.932 156.394L195.353 170.97L205.832 177.056L323.058 180.968C323.058 180.968 332.331 170.531 333.345 166.478C334.358 162.426 332.621 149.524 331.607 148.8Z" fill="#709D39"/>
<path d="M328.862 154.745C328.862 154.745 321.317 160.828 320.304 161.117C319.29 161.406 219.163 156.919 219.163 156.919L204.239 163.296L203.368 171.846C203.368 171.846 319.87 177.932 320.887 177.788C321.904 177.643 329.143 168.803 329.868 167.935C330.592 167.066 329.868 162.573 329.868 157.946C329.868 153.318 328.862 154.745 328.862 154.745Z" fill="#FFE691"/>
<path d="M320.579 163.265L320.038 163.291L320.621 175.608L321.162 175.582L320.579 163.265Z" fill="#3A3A3C"/>
<path d="M315.377 121.751C315.377 121.751 309.002 119.819 303.592 119.236C298.183 118.653 234.234 112.861 234.234 112.861L239.836 135.344L269.395 140.488C269.395 140.488 308.519 145.088 315.669 140.585C316.633 122.176 315.377 121.751 315.377 121.751Z" fill="#FEDB80"/>
<path d="M315.377 121.751C311.642 121.123 301.381 127.284 297.537 129.693C296.563 130.306 295.412 130.576 294.268 130.46L234.238 124.456L226.693 150.345L296.927 156.919C296.927 156.919 305.911 153.442 313.252 150.641C320.593 147.839 320.304 146.1 320.888 139.827C320.601 126.195 320.015 122.525 315.377 121.751Z" fill="#FDBB3D"/>
<path d="M311.03 127.715C309.195 129.041 299.148 133.826 296.926 134.214C294.704 134.601 237.421 128.514 237.421 128.514L225.249 146.772L296.057 154.113C296.057 154.113 309.581 149.186 314.217 146.772C318.853 144.357 317.406 139.236 317.695 132.185C317.985 125.135 312.866 126.389 311.03 127.715Z" fill="#FDECBB"/>
<path d="M297.294 135.348H296.752V151.772H297.294V135.348Z" fill="#3A3A3C"/>
<path d="M182.135 283.34C182.135 283.34 187.489 297.946 194.619 295.477C201.748 293.009 205.401 279.215 205.401 279.215L182.135 283.34Z" fill="#FDBB3D"/>
<mask id="mask1_65_24" style="mask-type:luminance" maskUnits="userSpaceOnUse" x="182" y="279" width="24" height="17">
<path d="M182.136 283.34C182.136 283.34 187.49 297.946 194.62 295.477C201.749 293.009 205.402 279.215 205.402 279.215L182.136 283.34Z" fill="white"/>
</mask>
<g mask="url(#mask1_65_24)">
<path d="M198.789 276.456C198.423 291.294 186.643 296.285 186.643 296.285L190.088 300.126L203.363 294.734L208.568 276.589C208.568 276.589 205.945 276.855 198.789 276.456Z" fill="#3A3A3C"/>
</g>
<path d="M138.985 104.358C138.985 104.358 139.082 109.765 142.318 110.829C146.037 111.99 158.112 107.594 158.112 107.594L159.754 100.397L156.967 93.0854L140.337 96.0593L138.985 104.358Z" fill="#FAB599"/>
<mask id="mask2_65_24" style="mask-type:luminance" maskUnits="userSpaceOnUse" x="138" y="93" width="22" height="19">
<path d="M138.984 104.358C138.984 104.358 139.081 109.765 142.317 110.829C146.036 111.99 158.111 107.594 158.111 107.594L159.753 100.397L156.966 93.0854L140.336 96.0593L138.984 104.358Z" fill="white"/>
</mask>
<g mask="url(#mask2_65_24)">
<path d="M157.085 95.3472L138.043 105.716C138.043 105.716 140.083 108.816 156.437 101.159C159.109 96.1079 157.085 95.3472 157.085 95.3472Z" fill="#EF825F"/>
</g>
<path d="M138.985 95.573L130.581 99.3453C130.581 99.3453 125.074 102.051 126.91 107.412C128.456 111.325 135.314 108.84 135.314 108.84L169.22 90.5546L176.269 81.5991C176.269 81.5991 176.463 81.0811 175.401 81.0811C174.338 81.0811 167.19 81.5991 167.19 81.5991L138.985 95.573Z" fill="#B06127"/>
<mask id="mask3_65_24" style="mask-type:luminance" maskUnits="userSpaceOnUse" x="126" y="81" width="51" height="29">
<path d="M138.986 95.572L130.581 99.3443C130.581 99.3443 125.075 102.05 126.911 107.411C128.456 111.324 135.314 108.839 135.314 108.839L169.221 90.5536L176.27 81.5981C176.27 81.5981 176.464 81.0801 175.401 81.0801C174.339 81.0801 167.19 81.5981 167.19 81.5981L138.986 95.572Z" fill="white"/>
</mask>
<g mask="url(#mask3_65_24)">
<path d="M133.382 97.0224C130.387 95.4757 122.568 103.012 122.259 103.386C121.949 103.761 123.768 108.816 123.768 108.816C123.768 108.816 129.322 114.024 137.011 109.507C128.864 102.867 133.382 97.0224 133.382 97.0224Z" fill="#E2594C"/>
<path d="M133.382 97.0227C133.382 97.0227 131.643 95.6697 130.387 97.0227C131.064 109.387 135.507 110.352 135.507 110.352L138.212 108.834C132.803 104.709 133.382 97.0227 133.382 97.0227Z" fill="white"/>
<path d="M166.806 83.4974C168.254 84.2708 169.8 83.8747 169.321 85.4741C168.842 87.0736 166.806 91.3413 169.996 91.3841C173.186 91.4268 177.757 80.0244 177.757 80.0244H167.775C167.775 80.0244 165.356 82.7304 166.806 83.4974Z" fill="#FEDD9D"/>
<path d="M174.727 78.6675C174.727 78.6675 170.829 84.2706 177.754 84.2706C180.137 79.6332 180.041 78.6675 180.041 78.6675H174.727Z" fill="#3A3A3C"/>
</g>
<path d="M167.983 87.0922L134.997 104.928L135.512 105.881L168.498 88.0457L167.983 87.0922Z" fill="#9A4D1E"/>
<path d="M157.919 85.4739C157.919 85.4739 155.027 79.4382 152.123 82.4347C149.418 82.2423 147.003 82.2423 146.326 86.207C144.201 85.6273 140.919 85.7241 139.468 89.2022C137.826 89.9755 134.639 93.8384 136.376 98.5726C138.114 103.307 142.656 100.601 143.041 97.9929C144.973 98.6694 147.775 97.8961 148.355 95.9647C149.9 96.8336 152.785 95.8679 153.42 93.8384C155.785 95.0141 158.497 95.385 158.497 95.385L157.919 85.4739Z" fill="#FAB599"/>
<mask id="mask4_65_24" style="mask-type:luminance" maskUnits="userSpaceOnUse" x="135" y="81" width="24" height="21">
<path d="M157.918 85.4744C157.918 85.4744 155.026 79.4387 152.122 82.4352C149.418 82.2428 147.002 82.2428 146.326 86.2075C144.201 85.6278 140.919 85.7246 139.468 89.2027C137.825 89.976 134.638 93.8388 136.376 98.5731C138.113 103.307 142.655 100.601 143.04 97.9934C144.973 98.6699 147.774 97.8966 148.354 95.9652C149.899 96.8341 152.784 95.8683 153.419 93.8388C155.784 95.0145 158.496 95.3855 158.496 95.3855L157.918 85.4744Z" fill="white"/>
</mask>
<g mask="url(#mask4_65_24)">
<path d="M155.919 94.7038C160.044 93.5922 158.787 83.3052 158.787 83.3052C158.787 83.3052 150.047 85.1549 155.919 94.7038Z" fill="#EF825F"/>
<path d="M154.181 87.0792C154.369 91.4261 149.177 91.8575 147.185 91.3809C146.209 94.82 143.664 94.1724 141.061 93.091C138.598 99.2524 135.887 95.3481 135.887 95.3481L135.266 102.06L138.212 103.205L143.525 102.06L148.113 101.935L152.987 98.9557L155.919 94.7055L155.238 87.5243C155.238 87.5243 155.64 85.8897 154.181 87.0792Z" fill="#EF825F"/>
</g>
<path d="M158.791 83.3054C157.729 83.6914 154.642 86.8388 158.019 92.0269C155.797 94.0275 153.549 97.0793 157.089 105.455C159.082 103.512 161.351 100.982 161.351 100.982C161.351 100.982 166.713 96.4431 165.554 89.2882C164.394 82.1334 159.85 82.9181 158.791 83.3054Z" fill="#FAB599"/>
<path d="M161.347 100.982C161.347 100.982 168.503 158.534 181.226 161.129C195.352 170.97 204.559 172.646 204.559 172.646C204.559 172.646 226.988 173.149 236.406 209.948C237.565 226.322 225.104 236.32 199.601 229.219C198.297 225.018 199.312 218.932 203.373 211.687C192.362 207.485 151.499 220.816 151.499 220.816L147.152 219.898L157.44 178.948C157.44 178.948 139.662 160.679 142.319 110.834C150.093 110.834 154.682 108.835 161.347 100.982Z" fill="#F68921"/>
<mask id="mask5_65_24" style="mask-type:luminance" maskUnits="userSpaceOnUse" x="142" y="100" width="95" height="132">
<path d="M161.348 100.982C161.348 100.982 168.504 158.533 181.227 161.129C195.353 170.969 204.56 172.646 204.56 172.646C204.56 172.646 226.989 173.149 236.407 209.947C237.566 226.322 225.105 236.32 199.602 229.219C198.298 225.018 199.312 218.932 203.374 211.686C192.363 207.484 151.5 220.815 151.5 220.815L147.153 219.898L157.441 178.948C157.441 178.948 139.662 160.679 142.319 110.834C150.094 110.834 154.682 108.835 161.348 100.982Z" fill="white"/>
</mask>
<g mask="url(#mask5_65_24)">
<path d="M146.246 110.835L141.544 106.503L132.511 119.419L155.824 190.677C155.824 190.677 161.782 194.009 175.328 180.773C145.349 168.237 146.246 110.835 146.246 110.835Z" fill="#E96C26"/>
</g>
<path d="M219.163 225.307L150.287 218.757C150.287 218.757 124.266 218.632 118.585 233.272C114.256 244.242 124.688 261.438 157.725 265.588L172.602 268.776L174.147 284.231C174.147 284.231 245.444 281.339 247.376 250.421C247.376 230.089 219.163 225.307 219.163 225.307Z" fill="#8C451C"/>
<path d="M211.925 241.123C209.399 242.435 190.907 248.637 179.609 242.406C168.311 236.175 136.574 233.272 136.574 233.272C136.574 233.272 163.759 236.433 180.354 256.66L184.941 255.009C184.941 255.009 212.83 244.048 226.702 243.325C226.693 243.328 221.93 235.929 211.925 241.123Z" fill="#5F3515"/>
<path d="M175.012 258.63C175.012 258.63 157.335 262.376 156.176 265.384C155.016 268.392 148.565 304.327 158.457 305.679C168.349 307.03 175.306 295.883 174.143 284.233C172.988 272.642 172.722 264.002 175.012 258.63Z" fill="#FDBB3D"/>
<mask id="mask6_65_24" style="mask-type:luminance" maskUnits="userSpaceOnUse" x="153" y="258" width="23" height="48">
<path d="M175.012 258.631C175.012 258.631 157.335 262.377 156.175 265.385C155.016 268.392 148.564 304.327 158.456 305.679C168.349 307.031 175.306 295.884 174.143 284.234C172.987 272.642 172.722 264.003 175.012 258.631Z" fill="white"/>
</mask>
<g mask="url(#mask6_65_24)">
<path d="M151.736 259.79L147.872 289.644L150.287 305.791C150.287 305.791 161.009 310.318 164.03 305.075C147.536 292.301 165.261 258.631 165.261 258.631L151.736 259.79Z" fill="#3A3A3C"/>
<path d="M165.456 290.637L165.079 291.356C165.154 291.396 172.6 295.38 172.783 301.634L173.595 301.61C173.39 294.882 165.774 290.806 165.456 290.637Z" fill="black"/>
<path d="M169.354 287.909L169.078 288.673C169.127 288.691 173.972 290.495 174.611 295.348L175.417 295.242C174.718 289.889 169.576 287.987 169.354 287.909Z" fill="black"/>
</g>
<path d="M140.169 90.103L139.918 90.1596C139.971 90.3859 141.211 95.7213 142.948 97.371L143.122 97.1887C141.444 95.5917 140.181 90.1584 140.169 90.103Z" fill="#EF825F"/>
<path d="M146.491 87.0925C146.514 87.2975 147.053 92.155 148.023 93.7695L148.238 93.6438C147.297 92.0758 146.746 87.1177 146.741 87.0674L146.491 87.0925Z" fill="#EF825F"/>
<path d="M152.57 83.5066L152.319 83.4902C152.289 84.2687 152.331 85.0483 152.444 85.819C152.615 87.0111 153.04 88.6746 154.094 89.8302L154.279 89.6605C152.339 87.5367 152.568 83.5468 152.57 83.5066Z" fill="#EF825F"/>
<path d="M183.518 157.41L177.754 166.767C177.754 166.767 184.257 184.59 204.68 174.448L204.052 165.09L183.518 157.41Z" fill="#FAB599"/>
<mask id="mask7_65_24" style="mask-type:luminance" maskUnits="userSpaceOnUse" x="177" y="157" width="28" height="21">
<path d="M183.517 157.41L177.753 166.768C177.753 166.768 184.256 184.591 204.68 174.448L204.051 165.091L183.517 157.41Z" fill="white"/>
</mask>
<g mask="url(#mask7_65_24)">
<path d="M207.975 162.443L184.496 154.596L182.89 158.428C182.89 158.428 182.986 172.26 204.56 172.645C211.025 164.643 207.975 162.443 207.975 162.443Z" fill="#EF825F"/>
</g>
<path d="M227.253 135.827L217.56 145.306L217.335 155.047C217.335 155.047 223.873 157.265 226.423 155.936C233.143 150.263 234.006 141.224 233.654 139.266C233.302 137.308 227.253 135.827 227.253 135.827Z" fill="#304398"/>
<path d="M175.942 120.885C174.718 122.017 168.335 129.271 170.4 138.766C170.501 139.222 170.709 139.647 171.007 140.007C171.304 140.367 171.683 140.651 172.112 140.835C175.507 142.312 179.287 142.588 179.287 142.588L184.443 132.187C184.912 129.307 181.969 121.397 181.969 121.397C181.969 121.397 177.226 119.699 175.942 120.885Z" fill="#304398"/>
<path d="M225.249 111.32L204.562 105.717L192.113 106.682C192.113 106.682 178.202 117.151 178.785 131.527C178.785 131.527 171.636 160.875 193.854 166.961C204.094 170.535 221.385 162.904 225.842 145.366C221.965 139.816 228.34 127.716 228.34 127.716L225.249 111.32Z" fill="#FAB599"/>
<path d="M214.527 93.5447C214.527 93.5447 222.449 81.5663 228.34 100.693C229.337 97.8853 232.2 95.3063 231.121 104.281C231.093 104.517 231.116 104.757 231.186 104.984C231.257 105.211 231.374 105.421 231.531 105.6C231.688 105.779 231.88 105.924 232.096 106.024C232.312 106.124 232.547 106.178 232.785 106.182C236.837 106.257 240.798 107.497 234.812 110.74C238.961 115.183 244.021 122.139 237.871 126.292C240.705 131.122 243.216 141.555 231.044 143.97C228.854 148.012 223.946 134.258 227.64 127.715C225.275 128.847 220.181 131.08 222.84 118.019C222.871 117.868 222.856 117.71 222.797 117.567C222.739 117.423 222.639 117.301 222.511 117.214C222.383 117.127 222.232 117.08 222.077 117.079C221.922 117.078 221.771 117.123 221.641 117.208C216.402 120.67 204.727 123.766 205.435 117.295C205.457 117.118 205.43 116.938 205.357 116.774C205.285 116.611 205.169 116.47 205.023 116.367C204.877 116.264 204.706 116.202 204.528 116.189C204.349 116.175 204.171 116.21 204.011 116.289C198.587 118.974 192.504 120.422 192.216 116.489C192.204 116.317 192.143 116.151 192.04 116.012C191.938 115.873 191.798 115.766 191.636 115.704C191.475 115.642 191.3 115.626 191.13 115.66C190.961 115.694 190.804 115.775 190.679 115.894C183.584 122.684 175.265 128.983 172.698 126.678C169.968 124.225 162.832 116.367 178.035 104.518C178.342 104.273 178.578 103.949 178.718 103.581C178.859 103.214 178.898 102.815 178.832 102.427C178.257 98.7341 183.175 91.8509 193.324 93.3372C193.542 93.3676 193.763 93.3541 193.976 93.2975C194.188 93.2409 194.387 93.1423 194.561 93.0075C194.735 92.8727 194.88 92.7045 194.988 92.5128C195.096 92.321 195.164 92.1097 195.189 91.8911C195.861 86.2955 206.365 80.0901 214.527 93.5447Z" fill="#4A2F15"/>
<mask id="mask8_65_24" style="mask-type:luminance" maskUnits="userSpaceOnUse" x="168" y="85" width="73" height="60">
<path d="M214.527 93.5451C214.527 93.5451 222.449 81.5668 228.34 100.694C229.337 97.8858 232.2 95.3068 231.121 104.281C231.093 104.518 231.116 104.757 231.186 104.984C231.257 105.212 231.374 105.422 231.531 105.601C231.688 105.78 231.88 105.924 232.096 106.024C232.312 106.125 232.547 106.178 232.785 106.182C236.837 106.258 240.798 107.498 234.812 110.741C238.961 115.183 244.021 122.139 237.871 126.293C240.705 131.122 243.216 141.555 231.044 143.971C228.854 148.012 223.946 134.258 227.64 127.716C225.275 128.848 220.181 131.081 222.84 118.02C222.871 117.868 222.856 117.711 222.797 117.567C222.739 117.424 222.639 117.301 222.511 117.214C222.383 117.128 222.232 117.081 222.077 117.08C221.922 117.079 221.771 117.124 221.641 117.209C216.402 120.671 204.727 123.766 205.435 117.296C205.457 117.118 205.43 116.938 205.357 116.775C205.285 116.611 205.169 116.471 205.023 116.368C204.877 116.264 204.706 116.203 204.528 116.189C204.349 116.175 204.171 116.21 204.011 116.29C198.587 118.974 192.504 120.423 192.216 116.49C192.204 116.317 192.143 116.152 192.04 116.013C191.938 115.874 191.798 115.767 191.636 115.704C191.475 115.642 191.3 115.627 191.13 115.661C190.961 115.694 190.804 115.776 190.679 115.895C183.584 122.685 175.265 128.983 172.698 126.679C169.968 124.225 162.832 116.368 178.035 104.519C178.342 104.273 178.578 103.95 178.718 103.582C178.859 103.214 178.898 102.816 178.832 102.428C178.257 98.7346 183.175 91.8514 193.324 93.3377C193.542 93.3681 193.763 93.3546 193.976 93.298C194.188 93.2414 194.387 93.1428 194.561 93.008C194.735 92.8732 194.88 92.705 194.988 92.5133C195.096 92.3215 195.164 92.1102 195.189 91.8916C195.861 86.296 206.365 80.0906 214.527 93.5451Z" fill="white"/>
</mask>
<g mask="url(#mask8_65_24)">
<path d="M240.735 136.77C231.394 140.773 230.562 126.196 230.37 119.995C230.177 113.795 224.381 111.706 219.357 113.438C214.334 115.169 207.185 112.866 205.308 110.835C203.43 108.804 199.843 105.717 186.222 112.866C172.602 120.014 166.606 113.438 166.606 113.438C166.606 113.438 163.516 123.105 164.092 123.719C164.667 124.332 173.945 134.333 173.945 134.333L240.725 146.093C240.725 146.093 250.081 132.765 240.735 136.77Z" fill="#3C240C"/>
</g>
<path d="M223.59 132.274C199.515 120.415 185.615 119.75 185.615 119.75C185.615 119.75 181.524 118.523 178.472 128.22C175.973 136.486 180.415 140.276 184.75 141.85C189.086 143.425 196.385 144.114 201.206 146.591C206.027 149.068 216.421 154.232 218.017 153.683C219.613 153.133 223.569 151.592 225.837 145.361C228.105 139.131 229.067 134.976 223.59 132.274Z" fill="#8793CA"/>
<path d="M184.521 137.966C182.542 136.902 180.107 134.841 181.791 129.246C183.291 124.493 184.799 123.412 185.186 123.21L185.457 123.223C185.582 123.23 199.083 124.076 222.059 135.394C222.16 135.444 222.255 135.493 222.35 135.544C224.362 136.624 225.078 137.336 222.585 144.183C221.076 148.332 218.794 149.661 217.486 150.193C215.707 149.734 210.369 147.414 202.802 143.516C199.496 141.814 195.374 140.901 191.736 140.096C189.533 139.608 187.451 139.147 185.942 138.598C185.455 138.423 184.981 138.213 184.524 137.97L184.521 137.966Z" fill="#1C1D4F"/>
<mask id="mask9_65_24" style="mask-type:luminance" maskUnits="userSpaceOnUse" x="181" y="123" width="44" height="28">
<path d="M184.522 137.965C182.543 136.902 180.108 134.841 181.792 129.245C183.292 124.492 184.8 123.412 185.187 123.209L185.458 123.222C185.583 123.23 199.084 124.076 222.06 135.394C222.161 135.443 222.256 135.492 222.351 135.544C224.363 136.624 225.079 137.335 222.586 144.182C221.077 148.332 218.795 149.661 217.487 150.193C215.708 149.734 210.37 147.414 202.803 143.516C199.497 141.813 195.375 140.9 191.737 140.096C189.534 139.608 187.452 139.146 185.943 138.598C185.456 138.423 184.981 138.213 184.525 137.969L184.522 137.965Z" fill="white"/>
</mask>
<g mask="url(#mask9_65_24)">
<path d="M184.522 139.081L185.581 140.676L214.23 131.2L213.171 129.606L184.522 139.081Z" fill="white"/>
<path d="M190.684 140.082L191.781 141.664L218.479 132.448L217.382 130.865L190.684 140.082Z" fill="white"/>
<path d="M197.08 141.419L198.273 142.967L222.498 133.67L221.304 132.123L197.08 141.419Z" fill="white"/>
</g>
<path d="M197.157 145.625C196.537 145.649 196.104 145.948 195.899 146.491C195.84 146.639 195.812 146.798 195.816 146.957C195.821 147.116 195.859 147.273 195.928 147.417C196.251 148.082 197.152 148.384 197.185 148.396L197.224 148.271C197.216 148.271 196.338 147.974 196.037 147.355C195.976 147.227 195.942 147.087 195.938 146.944C195.934 146.802 195.96 146.66 196.014 146.528C196.196 146.025 196.577 145.773 197.145 145.744C197.427 145.74 197.707 145.782 197.974 145.87L198.015 145.744C197.738 145.657 197.447 145.617 197.157 145.625Z" fill="black"/>
<path d="M203.773 154.137C200.148 154.137 196.499 152.386 194.468 151.217C194.257 151.095 194.021 151.024 193.777 151.008C193.534 150.992 193.29 151.032 193.065 151.125C192.839 151.218 192.639 151.362 192.477 151.545C192.316 151.728 192.199 151.946 192.136 152.181C191.44 154.753 191.022 159.121 195.354 160.972C198.829 162.457 202.974 159.892 205.077 156.477C205.221 156.244 205.3 155.978 205.306 155.705C205.312 155.432 205.245 155.162 205.112 154.924C204.979 154.685 204.785 154.487 204.55 154.348C204.314 154.21 204.046 154.137 203.773 154.137Z" fill="#E01C23"/>
<path d="M163.136 176.718L161.01 183.382C161.01 183.382 180.524 195.65 182.889 196.037C181.972 178.17 163.136 176.718 163.136 176.718Z" fill="#FFE691"/>
<path d="M182.89 196.038C175.017 179.905 154.634 180.012 154.634 180.012L154.16 194.307L177.753 205.409L211.049 197.39C211.049 197.39 212.014 192.657 211.918 189.594C197.479 184.358 182.89 196.038 182.89 196.038Z" fill="#FDECBB"/>
<path d="M184.192 199.805C184.192 199.805 195.065 189.33 214.234 194.879C212.206 204.635 210.941 209.808 210.941 209.808L207.279 236.031C207.279 236.031 192.209 235.547 186.993 238.735C181.39 238.542 178.782 238.735 178.782 238.735C178.782 238.735 173.565 228.135 151.638 230.923C151.471 218.652 150.285 190.821 150.285 190.821C150.285 190.821 168.349 178.75 180.328 199.515C184.001 200.385 184.192 199.805 184.192 199.805Z" fill="#9B1C20"/>
<mask id="mask10_65_24" style="mask-type:luminance" maskUnits="userSpaceOnUse" x="150" y="187" width="65" height="52">
<path d="M184.191 199.805C184.191 199.805 195.064 189.33 214.234 194.879C212.205 204.635 210.94 209.808 210.94 209.808L207.279 236.031C207.279 236.031 192.208 235.547 186.992 238.735C181.389 238.542 178.781 238.735 178.781 238.735C178.781 238.735 173.564 228.135 151.637 230.923C151.47 218.652 150.284 190.821 150.284 190.821C150.284 190.821 168.348 178.75 180.327 199.515C184 200.385 184.191 199.805 184.191 199.805Z" fill="white"/>
</mask>
<g mask="url(#mask10_65_24)">
<path d="M179.268 197.969L178.785 238.735C178.785 238.735 182.069 243.082 186.996 238.735C186.899 222.216 186.223 197.969 186.223 197.969H179.268Z" fill="#8B1C1F"/>
</g>
<path d="M199.601 229.222C180.04 238.738 178.979 228.691 179.556 227.336C178.108 225.501 178.299 223.665 179.267 222.797C177.142 218.45 179.556 217.767 179.556 217.767C179.556 217.767 178.011 216.805 178.398 215.351C180.426 210.907 190.569 213.517 194.53 213.709C188.886 208.516 192.502 206.175 194.53 205.787C196.558 205.4 203.368 211.677 203.368 211.677L199.601 229.222Z" fill="#FAB599"/>
<mask id="mask11_65_24" style="mask-type:luminance" maskUnits="userSpaceOnUse" x="178" y="205" width="26" height="29">
<path d="M199.601 229.222C180.04 238.738 178.979 228.691 179.556 227.336C178.108 225.501 178.299 223.665 179.267 222.797C177.142 218.45 179.556 217.767 179.556 217.767C179.556 217.767 178.011 216.805 178.398 215.351C180.426 210.907 190.569 213.517 194.53 213.709C188.886 208.516 192.502 206.175 194.53 205.787C196.558 205.4 203.368 211.677 203.368 211.677L199.601 229.222Z" fill="white"/>
</mask>
<g mask="url(#mask11_65_24)">
<path d="M181.683 217.579C177.819 214.294 175.815 221.398 179.268 222.796C186.478 225.715 192.888 224.222 192.888 224.222C192.888 224.222 179.268 224.148 181.683 217.579Z" fill="#EF825F"/>
<path d="M180.351 222.313C176.466 220.091 177.168 226.094 179.557 227.335C185.457 230.401 192.309 227.915 192.309 227.915C192.309 227.915 180.082 230.234 180.351 222.313Z" fill="#EF825F"/>
<path d="M182.517 211.481C182.517 211.481 172.313 212.652 179.557 217.769C184.838 221.503 192.886 218.928 192.886 218.928C181.393 220.091 182.517 211.481 182.517 211.481Z" fill="#EF825F"/>
<path d="M178.335 228.866C180.495 232.425 183.808 234.776 183.808 234.776L199.067 231.975C199.067 231.975 200.616 231.009 201.099 226.467C185.933 236.028 178.335 228.866 178.335 228.866Z" fill="#EF825F"/>
</g>
<path d="M236.481 213.034C226.846 235.825 196.947 220.236 196.947 220.236L193.803 230.089L200.309 234.868L215.981 240.628L228.345 236.027L240.739 221.536C240.739 221.536 246.115 190.241 236.481 213.034Z" fill="#E96C26"/>
<path d="M236.407 209.948L213.174 200.288C213.174 200.288 216.362 212.46 203.366 211.687C199.31 218.932 198.295 225.016 199.594 229.219C225.105 236.32 237.566 226.322 236.407 209.948Z" fill="#F68921"/>
<path d="M214.729 202.513C214.179 206.723 210.328 209.4 210.589 210.113C210.589 210.113 220.322 206.905 218.706 197.703C216.098 196.256 215.472 196.823 214.729 202.513Z" fill="#E96C26"/>
<path d="M281.91 100.383C281.86 100.383 281.812 100.403 281.777 100.438C281.741 100.473 281.721 100.521 281.721 100.571C281.721 100.621 281.741 100.669 281.777 100.705C281.812 100.74 281.86 100.76 281.91 100.76C281.96 100.76 282.008 100.74 282.043 100.705C282.079 100.669 282.099 100.621 282.099 100.571C282.099 100.521 282.079 100.473 282.043 100.438C282.008 100.403 281.96 100.383 281.91 100.383Z" fill="#89C19D"/>
</svg>
