<svg width="368" height="307" viewBox="0 0 368 307" fill="none" xmlns="http://www.w3.org/2000/svg">
<g opacity="0.3">
<path d="M88.1973 265.212H94.1404V265.367H88.1973V265.212Z" fill="black"/>
</g>
<g opacity="0.3">
<path d="M76.5405 275.346C78.0061 275.475 79.4733 275.541 80.9389 275.588C81.6725 275.616 82.4061 275.622 83.1397 275.639L85.3389 275.656L87.538 275.64C88.2716 275.622 89.0052 275.617 89.7388 275.588C91.2044 275.543 92.6716 275.475 94.1372 275.346C92.6716 275.217 91.2044 275.149 89.7388 275.104C89.0052 275.074 88.2716 275.07 87.538 275.053L85.3389 275.036L83.1397 275.053C82.4061 275.07 81.6725 275.076 80.9389 275.105C79.4733 275.15 78.0061 275.217 76.5405 275.346Z" fill="black"/>
</g>
<g opacity="0.3">
<path d="M97.7961 278.546L96.3817 278.499L94.9673 278.463L92.14 278.394C90.254 278.358 88.3681 278.328 86.4822 278.304C84.5963 278.276 82.7119 278.269 80.826 278.252L75.1698 278.235L69.512 278.251C67.6261 278.268 65.7418 278.274 63.8559 278.304C61.9699 278.333 60.084 278.356 58.1997 278.394L55.3708 278.463L53.9564 278.497L52.5419 278.546L53.9564 278.592L55.3708 278.628L58.1997 278.698C60.0835 278.733 61.9689 278.763 63.8559 278.787C65.7418 278.815 67.6261 278.822 69.512 278.839L75.1698 278.854L80.826 278.837C82.7119 278.822 84.5963 278.814 86.4822 278.786C88.3681 278.758 90.254 278.732 92.14 278.696L94.9673 278.626L96.3817 278.592L97.7961 278.546Z" fill="black"/>
</g>
<path d="M138.168 5.49072H280.511C283.787 5.49072 286.443 8.14669 286.443 11.423V300.816C286.443 304.093 283.787 306.749 280.511 306.749H138.168C134.892 306.749 132.236 304.093 132.236 300.816V11.423C132.236 8.14669 134.892 5.49072 138.168 5.49072Z" fill="#71C3B8"/>
<path d="M124.226 5.49072H266.569C269.846 5.49072 272.501 8.14669 272.501 11.423V300.816C272.501 304.093 269.846 306.749 266.569 306.749H124.226C120.95 306.749 118.294 304.093 118.294 300.816V11.423C118.294 8.14669 120.95 5.49072 124.226 5.49072Z" fill="#B2DCD4"/>
<path d="M127.998 37.5866V268.572C127.998 277.292 134.991 284.463 143.651 284.747C143.825 284.747 144.004 284.755 144.18 284.755H246.618C246.797 284.755 246.974 284.755 247.147 284.747C255.808 284.463 262.802 277.292 262.802 268.572V37.5866C262.802 28.6858 255.513 21.4043 246.618 21.4043H144.18C135.28 21.4027 127.998 28.6921 127.998 37.5866Z" fill="#D4EBFF"/>
<mask id="mask0_67_456" style="mask-type:luminance" maskUnits="userSpaceOnUse" x="127" y="21" width="136" height="264">
<path d="M127.997 37.5866V268.572C127.997 277.292 134.99 284.463 143.65 284.747C143.824 284.747 144.003 284.755 144.179 284.755H246.617C246.796 284.755 246.973 284.755 247.146 284.747C255.807 284.463 262.801 277.292 262.801 268.572V37.5866C262.801 28.6858 255.512 21.4043 246.617 21.4043H144.179C135.279 21.4027 127.997 28.6921 127.997 37.5866Z" fill="white"/>
</mask>
<g mask="url(#mask0_67_456)">
<g opacity="0.4">
<path d="M116.148 27.3442L137.923 13.1978L306.037 271.972L284.262 286.118L116.148 27.3442Z" fill="white"/>
<path d="M85.9038 46.993L97.2122 39.6465L267.126 301.191L255.817 308.537L85.9038 46.993Z" fill="white"/>
</g>
</g>
<path d="M281.662 79.9165H287.308C288.144 79.9165 288.821 80.5942 288.821 81.4302V157.732C288.821 158.568 288.144 159.246 287.308 159.246H281.662C280.826 159.246 280.149 158.568 280.149 157.732V81.4302C280.149 80.5942 280.826 79.9165 281.662 79.9165Z" fill="#71C3B8"/>
<path d="M284.306 79.9165H289.952C290.788 79.9165 291.465 80.5942 291.465 81.4302V157.732C291.465 158.568 290.788 159.246 289.952 159.246H284.306C283.47 159.246 282.793 158.568 282.793 157.732V81.4302C282.793 80.5942 283.47 79.9165 284.306 79.9165Z" fill="#3BA99A"/>
<path d="M281.662 170.035H287.308C288.144 170.035 288.821 170.712 288.821 171.548V195.468C288.821 196.304 288.144 196.982 287.308 196.982H281.662C280.826 196.982 280.149 196.304 280.149 195.468V171.548C280.149 170.712 280.826 170.035 281.662 170.035Z" fill="#71C3B8"/>
<path d="M284.306 170.035H289.952C290.788 170.035 291.465 170.712 291.465 171.548V195.468C291.465 196.304 290.788 196.982 289.952 196.982H284.306C283.47 196.982 282.793 196.304 282.793 195.468V171.548C282.793 170.712 283.47 170.035 284.306 170.035Z" fill="#3BA99A"/>
<g opacity="0.5">
<path d="M179.874 295.34C179.874 299.075 182.426 302.109 185.574 302.109C185.975 302.107 186.375 302.054 186.764 301.954C189.34 301.307 191.274 298.585 191.274 295.333C191.274 292.08 189.34 289.359 186.764 288.71C186.375 288.613 185.975 288.563 185.574 288.563C182.427 288.571 179.874 291.6 179.874 295.34Z" fill="white"/>
</g>
<path d="M182.252 295.341C182.252 298.598 184.186 301.315 186.764 301.962C189.34 301.315 191.274 298.593 191.274 295.341C191.274 292.089 189.34 289.367 186.764 288.719C184.186 289.367 182.252 292.083 182.252 295.341Z" fill="#31547A"/>
<g opacity="0.5">
<path d="M175.572 12.2227H211.465C211.894 12.2227 212.241 12.5698 212.241 12.9981V15.889C212.241 16.3173 211.894 16.6645 211.465 16.6645H175.572C175.144 16.6645 174.797 16.3173 174.797 15.889V12.9981C174.797 12.5698 175.144 12.2227 175.572 12.2227Z" fill="white"/>
</g>
<g opacity="0.5">
<path d="M166.655 16.6646C165.078 16.6646 163.8 15.3862 163.8 13.8093C163.8 12.2324 165.078 10.9541 166.655 10.9541C168.232 10.9541 169.51 12.2324 169.51 13.8093C169.51 15.3862 168.232 16.6646 166.655 16.6646Z" fill="white"/>
</g>
<path d="M320.579 97.5309L334.209 89.7887L326.466 76.1592L339.324 68.856L347.066 82.4854L360.695 74.7432L368 87.6004L354.371 95.3425L362.113 108.972L349.256 116.275L341.513 102.647L327.884 110.39L320.579 97.5309Z" fill="#B2DCD4"/>
<path d="M321.84 203.906L328.601 200.717L325.412 193.956L331.789 190.949L334.978 197.71L341.739 194.521L344.746 200.898L337.985 204.087L341.174 210.847L334.797 213.855L331.608 207.096L324.849 210.285L321.84 203.906Z" fill="#B2DCD4"/>
<path d="M7.66922 0H90.8759C92.9077 0.00613632 94.8544 0.815956 96.2911 2.25261C97.7277 3.68926 98.5376 5.63601 98.5437 7.66773V50.715C98.5376 52.7467 97.7277 54.6935 96.2911 56.1301C94.8544 57.5668 92.9077 58.3766 90.8759 58.3827H71.7454L70.9032 70.5109L59.5598 58.3827H7.66922C5.63723 58.377 3.69008 57.5674 2.25309 56.1307C0.816101 54.694 0.00608063 52.747 -5.34058e-05 50.715V7.66773C0.00608063 5.63574 0.816101 3.68876 2.25309 2.25206C3.69008 0.815367 5.63723 0.00572737 7.66922 0Z" fill="#B2DCD4"/>
<path d="M11.8323 12.1279H86.5368C86.9377 12.1279 87.2627 12.4529 87.2627 12.8538V15.5632C87.2627 15.9641 86.9377 16.289 86.5368 16.289H11.8323C11.4314 16.289 11.1065 15.9641 11.1065 15.5632V12.8538C11.1065 12.4529 11.4314 12.1279 11.8323 12.1279Z" fill="white"/>
<path d="M49.9988 22.0015H86.5368C86.9377 22.0015 87.2627 22.3264 87.2627 22.7273V25.4368C87.2627 25.8376 86.9377 26.1626 86.5368 26.1626H49.9988C49.5979 26.1626 49.2729 25.8376 49.2729 25.4368V22.7273C49.2729 22.3264 49.5979 22.0015 49.9988 22.0015Z" fill="#F7EFCB"/>
<path d="M60.911 31.873H86.5368C86.9377 31.873 87.2627 32.198 87.2627 32.5989V35.3083C87.2627 35.7092 86.9377 36.0342 86.5368 36.0342H60.911C60.5102 36.0342 60.1852 35.7092 60.1852 35.3083V32.5989C60.1852 32.198 60.5102 31.873 60.911 31.873Z" fill="#F7EFCB"/>
<path d="M11.8323 41.7446H86.5368C86.9377 41.7446 87.2627 42.0696 87.2627 42.4705V45.1799C87.2627 45.5808 86.9377 45.9057 86.5368 45.9057H11.8323C11.4314 45.9057 11.1065 45.5808 11.1065 45.1799V42.4705C11.1065 42.0696 11.4314 41.7446 11.8323 41.7446Z" fill="#F7EFCB"/>
<path d="M143.65 284.748C143.823 284.748 144 284.756 144.179 284.756H246.615C246.792 284.756 246.97 284.756 247.149 284.748L244.163 266.894L240.418 244.519L149.877 242.432L147.55 258.184L143.65 284.748Z" fill="#353535"/>
<g opacity="0.4">
<path d="M147.558 258.181L244.164 266.893L240.418 244.518L149.877 242.43L147.558 258.181Z" fill="black"/>
</g>
<path d="M89.1629 146.267C89.1629 146.267 89.6281 125.019 85.1754 114.068C80.7227 103.117 76.2716 85.7656 72.278 85.7656C68.2844 85.7656 74.1546 114.067 74.1546 114.067C74.1546 114.067 70.6371 106.871 67.588 109.215C64.5389 111.56 65.0089 114.504 62.6639 115.264C60.3189 116.024 59.3806 119.509 56.5672 119.639C53.7538 119.769 52.1114 127.355 52.8155 131.066C53.5197 134.778 67.5865 151.779 67.5865 151.779L89.1629 146.267Z" fill="#FFB696"/>
<mask id="mask1_67_456" style="mask-type:luminance" maskUnits="userSpaceOnUse" x="52" y="85" width="38" height="67">
<path d="M89.1638 146.267C89.1638 146.267 89.6291 125.019 85.1764 114.068C80.7237 103.117 76.2726 85.7656 72.279 85.7656C68.2854 85.7656 74.1556 114.067 74.1556 114.067C74.1556 114.067 70.6381 106.871 67.589 109.215C64.5399 111.56 65.0098 114.504 62.6648 115.264C60.3199 116.024 59.3815 119.509 56.5682 119.639C53.7548 119.769 52.1124 127.355 52.8165 131.066C53.5206 134.778 67.5875 151.779 67.5875 151.779L89.1638 146.267Z" fill="white"/>
</mask>
<g mask="url(#mask1_67_456)">
<path d="M74.4021 114.449C68.1984 106.384 65.8969 95.9926 64.7259 85.8899C64.4158 83.1588 64.1971 80.2384 65.4812 77.8081C66.7654 75.3778 70.1247 73.8533 72.3689 75.443L72.4464 82.7168C70.4457 83.5961 70.12 86.2684 70.2643 88.4552C70.7993 96.9139 74.1555 104.52 74.4021 114.449Z" fill="#EF815B"/>
<path d="M54.8053 147.337C55.1728 146.076 56.7734 145.743 58.0823 145.631C69.3218 144.701 80.8219 143.837 91.1525 139.314L97.2725 151.567C90.4376 154.358 83.3778 156.982 76.0032 157.359C68.6286 157.736 60.7933 155.562 55.8599 150.07C55.1806 149.304 54.5199 148.314 54.8053 147.337Z" fill="#EF815B"/>
</g>
<path d="M68.5269 114.428C70.1677 112.606 83.7693 123.113 83.7693 123.113L72.2785 142.117C65.4235 135.412 73.921 126.671 73.921 126.671C73.921 126.671 66.886 116.252 68.5269 114.428Z" fill="#FFB696"/>
<path d="M83.7693 123.121C82.7503 122.284 81.7081 121.476 80.6566 120.679C79.6051 119.881 78.5442 119.097 77.4617 118.341C76.3791 117.586 75.2827 116.846 74.1552 116.153C73.0276 115.46 71.8784 114.791 70.6191 114.292C70.2984 114.16 69.9668 114.056 69.628 113.982C69.446 113.943 69.2603 113.925 69.0743 113.927C68.8543 113.926 68.6386 113.989 68.454 114.109C68.404 114.148 68.3563 114.19 68.3113 114.235C68.2771 114.28 68.2399 114.323 68.2089 114.369C68.1526 114.461 68.1073 114.559 68.074 114.661C68.0162 114.847 67.9875 115.04 67.9887 115.235C67.9922 115.589 68.038 115.942 68.1252 116.285C68.293 116.939 68.5119 117.58 68.7796 118.2C69.0387 118.821 69.3225 119.418 69.6203 120.012C70.2174 121.2 70.8781 122.349 71.5558 123.484C72.2336 124.619 72.9408 125.736 73.6883 126.833L73.7193 126.473C73.2218 127.017 72.7587 127.591 72.3328 128.193C71.9043 128.789 71.5122 129.41 71.1588 130.054C70.804 130.697 70.4931 131.363 70.2282 132.048C69.9588 132.734 69.7547 133.443 69.6187 134.167C69.485 134.892 69.433 135.631 69.4636 136.368C69.4971 137.104 69.6371 137.832 69.8793 138.528C69.9975 138.875 70.1374 139.213 70.298 139.542C70.3849 139.697 70.4779 139.862 70.5679 140.02C70.6128 140.099 70.6547 140.175 70.7059 140.257L70.861 140.481C71.2738 141.079 71.7518 141.629 72.2863 142.122C71.7891 141.599 71.3463 141.028 70.9649 140.416L70.8222 140.188C70.7757 140.112 70.7385 140.032 70.6966 139.95C70.616 139.795 70.5322 139.631 70.4546 139.469C70.3126 139.142 70.1914 138.806 70.0917 138.463C69.6807 137.092 69.7056 135.631 70.0033 134.246C70.3307 132.858 70.8689 131.528 71.5992 130.304C71.9588 129.687 72.3512 129.09 72.7748 128.515C73.1934 127.942 73.6471 127.395 74.1334 126.878L74.2885 126.712L74.1629 126.518C72.7145 124.33 71.3819 122.067 70.1708 119.739C69.8746 119.156 69.5939 118.566 69.3395 117.969C69.0813 117.38 68.8697 116.772 68.7068 116.15C68.6303 115.854 68.5881 115.55 68.5811 115.244C68.5767 115.109 68.5935 114.974 68.6308 114.844C68.6478 114.79 68.6707 114.738 68.699 114.689C68.713 114.666 68.7316 114.647 68.7455 114.625C68.7602 114.613 68.7742 114.6 68.7874 114.587C68.8806 114.53 68.9884 114.501 69.0976 114.504C69.2417 114.501 69.3858 114.514 69.5272 114.542C69.8346 114.603 70.1361 114.69 70.4283 114.804C71.0324 115.038 71.6223 115.307 72.1948 115.61C72.7764 115.908 73.3471 116.231 73.9148 116.559C75.0454 117.222 76.1574 117.926 77.2616 118.642C78.3659 119.359 79.4546 120.097 80.5403 120.845C81.6259 121.592 82.6976 122.355 83.7693 123.121Z" fill="#EF815B"/>
<path d="M96.3865 149.774L90.2231 138.773L63.9925 149.561L67.5891 162.888L96.3865 149.774Z" fill="#CAD5E0"/>
<path d="M203.507 106.25C203.507 106.25 231.113 109.042 245.496 122.003C259.88 134.964 258.195 183.008 258.195 191.354C258.195 199.699 261.158 248.353 242.965 258.083C224.773 267.814 185.426 250.262 185.426 250.262L142.694 247.936V208.159C142.694 208.159 127.34 223.389 103.288 224.236C79.2365 225.083 61.3839 160.872 61.3839 160.872L96.3865 143.849L110.954 172.961C110.954 172.961 127.878 123.177 143.956 115.014C160.035 106.852 203.507 106.25 203.507 106.25Z" fill="white"/>
<path d="M201.538 31.7754C201.538 31.7754 202.439 16.6819 178.641 18.9028C154.844 21.1237 143.057 42.4953 155.973 52.3623C168.889 62.2292 208.273 72.7134 208.273 72.7134C208.273 72.7134 238.682 40.5055 201.538 31.7754Z" fill="#510E36"/>
<mask id="mask2_67_456" style="mask-type:luminance" maskUnits="userSpaceOnUse" x="150" y="18" width="70" height="55">
<path d="M201.536 31.7744C201.536 31.7744 202.437 16.6809 178.64 18.9018C154.843 21.1227 143.056 42.4943 155.972 52.3613C168.888 62.2282 208.272 72.7124 208.272 72.7124C208.272 72.7124 238.681 40.5045 201.536 31.7744Z" fill="white"/>
</mask>
<g mask="url(#mask2_67_456)">
<path d="M202.341 38.1004L196.264 46.1977L197.549 36.0392C197.749 34.4619 197.943 32.8257 197.403 31.3167C196.398 28.5033 193.178 26.9245 190.124 25.9784C185.817 24.6507 181.326 24.0116 176.819 24.0847C174.063 24.1297 170.974 24.6136 169.375 26.6763C171.488 27.3506 173.462 28.4015 175.201 29.7782C168.869 30.3272 162.845 33.4151 159.013 38.0787C156.376 41.2906 154.767 45.1524 152.018 48.2883C149.27 51.4243 144.7 53.8189 140.573 52.4634C156.997 55.649 170.815 65.3965 184.682 74.0879C187.348 75.7582 190.092 77.4239 193.191 78.2567C200.37 80.1861 208.797 76.7818 212.099 70.6185C215.401 64.4551 213.196 56.2461 207.149 52.2013C209.207 51.7764 211.57 51.0056 212.166 49.1476C212.762 47.2896 211.187 45.4254 209.598 44.1179C206.566 41.6287 202.341 38.1004 202.341 38.1004Z" fill="#3D0A2B"/>
</g>
<path d="M205.954 78.723C204.189 80.2243 202.035 81.1963 199.742 81.527L201.948 103.476C201.948 103.476 186.128 112.826 184.154 113.696C182.18 114.566 180.14 117.556 180.14 117.556C180.14 117.556 176.883 119.25 177.107 115.104C177.33 110.959 171.689 107.632 171.582 104.983C171.523 103.46 171.638 102.754 171.965 100.617C172.201 99.0431 172.55 96.678 173.021 92.627C147.098 90.9209 154.747 53.5237 155.896 45.4046C155.903 45.3508 155.928 45.3011 155.968 45.2643C156.007 45.2275 156.059 45.206 156.113 45.2038C156.167 45.2016 156.22 45.2187 156.263 45.2521C156.306 45.2855 156.335 45.3329 156.346 45.386C158.282 54.417 171.337 57.7158 171.337 57.7158C171.337 57.7158 167.804 44.122 172.164 53.8897C176.523 63.6574 192.42 60.1756 192.42 60.1756C192.42 60.1756 191.229 60.0375 190.057 53.9719C190.914 57.3669 201.639 60.5928 201.639 60.5928L201.6 61.0425C204.527 60.8099 207.286 61.849 209.009 64.1444C212.08 68.2248 210.713 74.7542 205.954 78.723Z" fill="#FFB696"/>
<mask id="mask3_67_456" style="mask-type:luminance" maskUnits="userSpaceOnUse" x="153" y="45" width="58" height="73">
<path d="M205.953 78.7225C204.188 80.2238 202.035 81.1958 199.742 81.5266L201.947 103.475C201.947 103.475 186.128 112.826 184.154 113.696C182.179 114.566 180.14 117.556 180.14 117.556C180.14 117.556 176.883 119.25 177.106 115.104C177.33 110.958 171.689 107.632 171.582 104.983C171.523 103.46 171.638 102.754 171.965 100.617C172.201 99.0426 172.55 96.6775 173.021 92.6265C147.098 90.9205 154.747 53.5232 155.896 45.4041C155.902 45.3504 155.928 45.3006 155.967 45.2638C156.007 45.227 156.059 45.2056 156.113 45.2033C156.167 45.2011 156.22 45.2182 156.263 45.2516C156.305 45.285 156.335 45.3325 156.346 45.3855C158.281 54.4165 171.337 57.7153 171.337 57.7153C171.337 57.7153 167.804 44.1215 172.164 53.8892C176.523 63.6569 192.42 60.1751 192.42 60.1751C192.42 60.1751 191.229 60.037 190.056 53.9714C190.914 57.3664 201.639 60.5923 201.639 60.5923L201.6 61.042C204.526 60.8094 207.286 61.8485 209.009 64.1439C212.079 68.2243 210.713 74.7537 205.953 78.7225Z" fill="white"/>
</mask>
<g mask="url(#mask3_67_456)">
<path d="M151.546 36.9303C152.447 33.8936 154.948 31.4912 157.85 30.2226C160.752 28.9539 164.02 28.7166 167.174 29.0036C179.338 30.1094 189.47 38.4021 198.752 46.3397L201.908 60.0715C199.331 59.7624 196.814 59.0703 194.441 58.0181L195.438 61.2161C191.438 61.5046 187.373 61.79 183.456 60.9307C179.538 60.0715 175.721 57.8909 173.831 54.3549C173.33 54.4308 173.122 55.0667 173.21 55.5661C173.299 56.0655 173.569 56.5246 173.596 57.0302C173.649 57.9887 172.776 58.8029 171.838 59.003C170.899 59.203 169.927 58.9347 169.017 58.6245C164.507 57.0736 160.442 54.3657 157.025 51.039C153.224 47.3354 150.035 42.0204 151.546 36.9303Z" fill="#EF815B"/>
<path d="M176.32 112.596C178.981 108.03 184.357 105.772 189.543 104.767C194.729 103.762 200.12 103.682 205.13 101.999L198.416 119.352C194.709 121.982 190.733 124.209 186.553 125.993C183.265 127.397 179.318 128.475 176.258 126.629C174.207 125.388 173.06 123.104 172.117 120.902C170.078 116.137 168.498 111.19 167.397 106.126C166.932 103.975 166.569 101.628 167.507 99.6431L176.32 112.596Z" fill="#EF815B"/>
</g>
<path d="M180.276 55.3681C180.508 55.2717 180.745 55.1903 180.987 55.1246C181.233 55.0584 181.482 55.0066 181.734 54.9695C182.229 54.8951 182.733 54.8951 183.228 54.9695C183.709 55.0415 184.171 55.2047 184.591 55.4503C185.007 55.6986 185.375 56.0201 185.677 56.3995C185.716 56.4475 185.764 56.4873 185.818 56.5166C185.873 56.5459 185.933 56.5643 185.994 56.5705C186.056 56.5768 186.118 56.5709 186.177 56.5531C186.237 56.5353 186.292 56.5061 186.34 56.467C186.388 56.4279 186.427 56.3797 186.457 56.3252C186.486 56.2707 186.504 56.211 186.511 56.1494C186.517 56.0879 186.511 56.0257 186.493 55.9664C186.476 55.9071 186.446 55.8519 186.407 55.8039L186.393 55.7869C186.001 55.342 185.533 54.9711 185.01 54.6919C184.486 54.4191 183.916 54.2485 183.329 54.1894C182.759 54.1336 182.184 54.1634 181.623 54.2778C181.346 54.3318 181.072 54.4028 180.804 54.4903C180.531 54.5779 180.265 54.6851 180.008 54.8113C179.94 54.8496 179.889 54.912 179.865 54.9862C179.841 55.0603 179.846 55.1407 179.879 55.2114C179.912 55.2821 179.97 55.338 180.042 55.3679C180.113 55.3978 180.194 55.3995 180.267 55.3728L180.276 55.3681Z" fill="#330E07"/>
<path d="M166.731 54.5754C166.511 54.3935 166.278 54.2271 166.035 54.0776C165.794 53.9288 165.545 53.7947 165.289 53.6759C164.769 53.4321 164.215 53.2674 163.646 53.1873C163.062 53.1044 162.467 53.1344 161.894 53.2757C161.32 53.4234 160.777 53.6735 160.292 54.014C160.189 54.0847 160.118 54.1934 160.096 54.3162C160.073 54.4389 160.1 54.5656 160.171 54.6685C160.241 54.7713 160.35 54.8418 160.473 54.8645C160.596 54.8872 160.722 54.8602 160.825 54.7894L160.842 54.777C161.223 54.4798 161.654 54.2539 162.116 54.1101C162.581 53.9699 163.069 53.9204 163.553 53.9644C164.052 54.0102 164.541 54.1304 165.005 54.3211C165.241 54.4166 165.471 54.5258 165.694 54.6483C165.914 54.7682 166.125 54.9034 166.326 55.0531L166.339 55.0624C166.403 55.1123 166.485 55.1348 166.566 55.125C166.647 55.1152 166.72 55.0739 166.771 55.0101C166.822 54.9463 166.846 54.8651 166.837 54.7841C166.828 54.703 166.788 54.6286 166.725 54.577L166.731 54.5754Z" fill="#330E07"/>
<path d="M170.371 65.8439C170.371 65.8439 165.114 73.5039 169.055 74.6485C171.957 75.4906 172.334 73.8358 172.63 72.4477C172.926 71.0596 172.337 64.414 170.371 65.8439Z" fill="#EF815B"/>
<path d="M162.659 64.7411C161.292 64.7411 160.184 63.6328 160.184 62.2658C160.184 60.8987 161.292 59.7905 162.659 59.7905C164.026 59.7905 165.134 60.8987 165.134 62.2658C165.134 63.6328 164.026 64.7411 162.659 64.7411Z" fill="#330E07"/>
<path d="M183.094 67.12C181.727 67.12 180.619 66.0118 180.619 64.6447C180.619 63.2777 181.727 62.1694 183.094 62.1694C184.461 62.1694 185.569 63.2777 185.569 64.6447C185.569 66.0118 184.461 67.12 183.094 67.12Z" fill="#330E07"/>
<path d="M189.758 80.7087C186.319 80.7087 183.531 77.9209 183.531 74.4818C183.531 71.0428 186.319 68.2549 189.758 68.2549C193.197 68.2549 195.985 71.0428 195.985 74.4818C195.985 77.9209 193.197 80.7087 189.758 80.7087Z" fill="#EA5F3B"/>
<path d="M204.167 68.653C203.333 68.4981 202.472 68.6133 201.708 68.9818C201.315 69.1694 200.958 69.4263 200.655 69.7402C200.353 70.0553 200.105 70.4179 199.92 70.8134C199.736 71.2016 199.604 71.6126 199.529 72.0355C199.49 72.2407 199.461 72.4478 199.442 72.6559C199.427 72.8653 199.421 73.0762 199.419 73.2763C199.432 74.1029 199.568 74.923 199.822 75.7097C199.822 74.8892 199.822 74.0859 199.906 73.2995C199.931 73.1041 199.956 72.9087 199.985 72.7148C200.015 72.521 200.049 72.3302 200.105 72.1457C200.19 71.7711 200.315 71.407 200.48 71.06C200.794 70.3714 201.302 69.7897 201.942 69.3866C202.621 68.982 203.38 68.7315 204.167 68.653Z" fill="#EF815B"/>
<path d="M203.502 74.0922C203.642 73.6626 203.678 73.206 203.606 72.7599C203.542 72.2832 203.334 71.8374 203.011 71.482C202.837 71.3006 202.63 71.1546 202.401 71.0524C202.177 70.9559 201.936 70.9033 201.692 70.8973C201.234 70.8855 200.782 71.0044 200.389 71.24C200.807 71.2462 201.222 71.293 201.63 71.3796C201.985 71.4622 202.308 71.6459 202.561 71.9085C202.814 72.1922 203.009 72.5225 203.136 72.8809C203.28 73.2776 203.403 73.6819 203.502 74.0922Z" fill="#EF815B"/>
<path d="M192.526 66.0224C192.448 66.5631 192.328 67.0971 192.169 67.6199C192.013 68.1464 191.819 68.6611 191.589 69.1599C191.147 70.1578 190.515 71.0602 189.728 71.8167C189.336 72.1863 188.899 72.5066 188.429 72.7705C187.953 73.0247 187.451 73.224 186.93 73.3645C185.871 73.6144 184.773 73.6629 183.695 73.5072C182.614 73.3764 181.564 73.0573 180.593 72.5642C180.119 72.3144 179.681 72.0014 179.291 71.6337C178.904 71.266 178.572 70.8451 178.304 70.3836C177.781 69.4381 177.486 68.3834 177.442 67.3035C177.41 66.7596 177.422 66.214 177.478 65.6719C177.531 65.1331 177.627 64.5994 177.766 64.076V64.0621C177.78 64.0221 177.785 63.9797 177.782 63.9376C177.778 63.8955 177.766 63.8545 177.746 63.8172C177.727 63.7799 177.699 63.747 177.666 63.7205C177.633 63.6941 177.595 63.6747 177.555 63.6635C177.514 63.6523 177.471 63.6495 177.429 63.6553C177.388 63.6612 177.347 63.6755 177.311 63.6974C177.275 63.7193 177.244 63.7484 177.22 63.7829C177.195 63.8173 177.178 63.8564 177.169 63.8977C177.019 64.4568 176.915 65.0274 176.859 65.6037C176.802 66.1789 176.793 66.7577 176.829 67.3345C176.884 68.5062 177.211 69.6491 177.785 70.6721C178.084 71.1808 178.453 71.6445 178.883 72.0493C179.312 72.4501 179.794 72.7908 180.314 73.0621C181.349 73.5828 182.467 73.9177 183.618 74.0515C184.767 74.212 185.937 74.1541 187.065 73.8809C187.629 73.7267 188.172 73.5076 188.685 73.228C189.19 72.9399 189.658 72.5921 190.08 72.192C190.913 71.3857 191.581 70.4255 192.047 69.3647C192.285 68.843 192.485 68.305 192.646 67.7548C192.811 67.2026 192.933 66.6385 193.012 66.0674C193.017 66.0039 192.997 65.9407 192.957 65.8912C192.917 65.8416 192.859 65.8094 192.796 65.8012C192.733 65.793 192.669 65.8095 192.618 65.8472C192.566 65.885 192.531 65.941 192.52 66.0038L192.526 66.0224Z" fill="#6D2213"/>
<path d="M169.107 62.8882C169.071 63.4279 168.993 63.964 168.874 64.4918C168.758 65.0227 168.602 65.5442 168.409 66.052C168.044 67.0666 167.471 67.9937 166.726 68.7739C165.977 69.5359 165.03 70.0731 163.992 70.3248C162.941 70.5655 161.853 70.5981 160.789 70.421C159.719 70.2859 158.681 69.9586 157.726 69.4547C156.79 68.9494 156.016 68.1897 155.493 67.2633C154.986 66.3212 154.702 65.2755 154.662 64.2064C154.632 63.6681 154.645 63.1281 154.702 62.5919C154.755 62.0582 154.851 61.5297 154.989 61.0115V60.9976C155.011 60.9182 155 60.8334 154.959 60.7619C154.919 60.6903 154.851 60.6379 154.772 60.6161C154.692 60.5943 154.608 60.6049 154.536 60.6456C154.465 60.6863 154.412 60.7538 154.39 60.8332C154.243 61.3889 154.142 61.9559 154.089 62.5283C154.033 63.0952 154.021 63.6656 154.054 64.2343C154.107 65.3947 154.425 66.5274 154.984 67.5456C155.271 68.055 155.631 68.52 156.051 68.9259C156.47 69.3269 156.939 69.6716 157.447 69.951C158.463 70.4821 159.566 70.8262 160.704 70.9669C161.839 71.1481 162.998 71.1065 164.116 70.8444C165.247 70.5635 166.278 69.9727 167.092 69.1383C167.884 68.3029 168.493 67.3114 168.879 66.2273C169.078 65.6948 169.237 65.1484 169.355 64.5926C169.477 64.0355 169.556 63.4698 169.591 62.9006C169.591 62.8371 169.567 62.7761 169.523 62.73C169.48 62.6839 169.42 62.6562 169.357 62.6526C169.293 62.649 169.231 62.6698 169.183 62.7108C169.134 62.7517 169.103 62.8096 169.096 62.8726L169.107 62.8882Z" fill="#6D2213"/>
<path d="M177.107 66.3215C177.164 66.3216 177.221 66.3059 177.27 66.276C177.318 66.2461 177.358 66.2032 177.384 66.1521C177.41 66.101 177.422 66.0437 177.417 65.9865C177.412 65.9293 177.392 65.8746 177.358 65.8283C177.33 65.791 174.557 62.0859 169.393 64.7147C169.319 64.7519 169.264 64.8168 169.238 64.895C169.212 64.9733 169.219 65.0585 169.256 65.1319C169.293 65.2053 169.358 65.261 169.437 65.2865C169.515 65.3121 169.6 65.3056 169.673 65.2684C174.356 62.8846 176.756 66.0578 176.856 66.1989C176.885 66.2376 176.923 66.2688 176.967 66.2901C177.01 66.3114 177.058 66.3221 177.107 66.3215Z" fill="#6D2213"/>
<path d="M191.153 84.6602C190.041 94.2123 178.817 98.7332 171.966 100.618C172.202 99.0434 172.551 96.6782 173.022 92.6272C173.022 92.6272 182.48 93.5903 191.153 84.6602Z" fill="#EF815B"/>
<path d="M166.881 81.405C166.776 81.1501 166.743 80.8713 166.786 80.599C166.828 80.3267 166.945 80.0713 167.122 79.8606C167.3 79.6499 167.532 79.4921 167.794 79.4042C168.055 79.3164 168.335 79.3019 168.604 79.3624C170.99 79.9053 173.45 80.0411 175.881 79.7641C181.354 79.1158 177.919 86.3415 172.314 85.7305C169.204 85.3924 167.65 83.249 166.881 81.405Z" fill="white"/>
<path d="M207.842 100.617C207.842 100.617 185.116 106.2 182.306 109.156C179.496 112.112 178.643 115.014 178.643 115.014L175.265 107.475L167.589 103.233L165.136 110.003L166.532 124.057L174.671 115.67L178.643 121.731L184.155 113.696L191.917 126.449L210.649 107.478L207.842 100.617Z" fill="#CAD5E0"/>
<g opacity="0.5">
<path d="M236.613 215.578C236.685 215.577 236.755 215.552 236.811 215.505C236.866 215.458 236.903 215.394 236.916 215.323C236.929 215.251 236.917 215.178 236.881 215.115C236.845 215.052 236.789 215.003 236.721 214.977L220.902 209.027L236.721 203.487C236.799 203.459 236.863 203.402 236.898 203.328C236.934 203.254 236.938 203.168 236.911 203.09C236.884 203.013 236.827 202.949 236.752 202.913C236.678 202.878 236.593 202.873 236.515 202.9L219.09 209.006L236.509 215.557C236.542 215.57 236.577 215.577 236.613 215.578Z" fill="black"/>
</g>
<path d="M195.548 213.45L183.094 209.227L171.966 235.237L187.013 244.518L195.548 213.45Z" fill="#CAD5E0"/>
<path d="M149.879 145.011C149.879 145.011 124.489 129.295 104.606 147.149C131.687 147.149 140.571 150.717 140.571 150.717L149.879 145.011Z" fill="#D3D3D3"/>
<path d="M146.207 147.266C146.207 147.266 157.828 114.658 182.306 120.581C175.482 131.793 171.966 134.756 171.966 134.756L146.207 147.266Z" fill="#D3D3D3"/>
<path d="M101.858 147.234L118.569 211.543H159.184L171.244 209.225L176.398 205.307L204.88 183.638L185.419 118.173L154.955 141.735L143.321 145.963L101.858 147.234Z" fill="#E76179"/>
<path d="M143.322 145.965L159.186 211.544L171.244 209.225L154.957 141.734L143.322 145.965Z" fill="#CE4663"/>
<path d="M157.398 139.846C157.398 139.846 150.514 136.689 145.438 139.846C140.361 143.004 138.665 146.107 138.665 146.107L143.317 145.965L154.949 141.734L157.398 139.846Z" fill="white"/>
<path d="M182.306 120.581C182.306 120.581 161.32 123.785 157.398 139.847L182.306 120.581Z" fill="white"/>
<path d="M138.664 146.107C138.664 146.107 122.161 138.182 104.606 147.151C112.647 147.151 138.664 146.107 138.664 146.107Z" fill="white"/>
<g opacity="0.2">
<path d="M127.378 202.837C127.89 204.502 132.522 208.288 137.129 211.543H159.184L171.244 209.217L176.398 205.299C176.389 204.006 176.345 202.381 176.22 200.399C175.821 193.945 175.599 184.633 173.493 179.982C171.387 175.331 168.415 179.348 168.628 185.06C168.84 190.772 166.688 193.469 166.39 193.705C166.092 193.941 158.584 184.669 154.293 180.845C150.001 177.02 141.758 171.73 140.279 172.791C138.799 173.851 146.622 183.368 148.314 186.118C150.006 188.867 152.756 195.65 151.7 195.22C150.643 194.79 137.102 176.176 134.987 177.229C132.871 178.282 134.987 185.693 137.737 189.499C140.443 193.249 146.431 200.174 146.617 200.391C146.426 200.29 141.287 197.509 138.794 195.217C136.259 192.891 132.501 187.869 130.123 187.594C125.26 187.03 131.531 197.331 134.708 200.395C136.671 202.301 138.528 204.313 140.269 206.424C139.998 206.247 134.436 202.506 132.167 200.853C129.844 199.172 126.522 200.087 127.378 202.837Z" fill="black"/>
</g>
<path d="M181.797 212.258C181.797 212.258 182.196 209.645 181.797 203.19C181.399 196.735 181.188 187.428 179.072 182.774C176.957 178.119 173.995 182.139 174.207 187.85C174.42 193.56 172.264 196.26 171.966 196.498C171.668 196.735 164.162 187.459 159.869 183.636C155.576 179.813 147.333 174.523 145.852 175.58C144.37 176.638 152.198 186.158 153.89 188.907C155.582 191.657 158.333 198.444 157.276 198.013C156.218 197.582 142.678 178.966 140.563 180.022C138.448 181.078 140.563 188.484 143.314 192.292C146.066 196.099 152.198 203.188 152.198 203.188C152.198 203.188 146.909 200.345 144.372 198.011C141.835 195.677 138.075 190.663 135.698 190.387C130.833 189.823 137.108 200.124 140.281 203.188C142.247 205.096 144.107 207.111 145.852 209.225C145.852 209.225 140.07 205.338 137.743 203.641C135.417 201.944 132.101 202.866 132.948 205.614C133.795 208.362 145.852 216.875 150.506 219.284C155.16 221.692 166.161 225.487 169.117 226.866C172.073 228.245 173.402 231.843 173.402 231.843L181.797 212.258Z" fill="#FFB696"/>
<mask id="mask4_67_456" style="mask-type:luminance" maskUnits="userSpaceOnUse" x="132" y="175" width="50" height="57">
<path d="M181.796 212.259C181.796 212.259 182.195 209.646 181.796 203.191C181.398 196.736 181.187 187.429 179.072 182.775C176.956 178.12 173.994 182.14 174.206 187.851C174.419 193.561 172.263 196.261 171.965 196.499C171.667 196.736 164.161 187.46 159.868 183.637C155.575 179.814 147.332 174.524 145.851 175.581C144.37 176.639 152.197 186.159 153.889 188.908C155.581 191.658 158.333 198.445 157.275 198.014C156.217 197.583 142.678 178.967 140.562 180.023C138.447 181.079 140.562 188.485 143.314 192.293C146.065 196.1 152.197 203.189 152.197 203.189C152.197 203.189 146.909 200.346 144.371 198.012C141.834 195.678 138.075 190.664 135.697 190.388C130.832 189.823 137.107 200.125 140.28 203.189C142.247 205.097 144.106 207.112 145.851 209.225C145.851 209.225 140.069 205.339 137.743 203.642C135.416 201.945 132.1 202.867 132.947 205.615C133.794 208.363 145.851 216.876 150.505 219.285C155.159 221.693 166.16 225.488 169.116 226.867C172.072 228.246 173.401 231.844 173.401 231.844L181.796 212.259Z" fill="white"/>
</mask>
<g mask="url(#mask4_67_456)">
<path d="M177.048 181.136C176.519 181.881 176.286 182.794 176.13 183.694C175.712 186.101 175.761 188.562 175.452 190.983C175.143 193.404 174.421 195.884 172.736 197.652C169.512 194.24 167.773 189.628 167.229 184.97C166.671 180.162 167.539 174.812 171.117 171.563C172.215 170.567 173.572 169.798 175.047 169.643C176.522 169.488 178.112 170.03 178.993 171.223L179.371 179.935C178.462 179.845 177.578 180.392 177.048 181.136Z" fill="#EF815B"/>
<path d="M146.642 186.031C145.3 184.432 142.904 181.882 141.563 180.283C140.691 179.247 138.532 179.802 138.079 178.528C137.721 177.519 137.655 176.431 137.889 175.386C138.122 174.342 138.645 173.385 139.399 172.626C140.152 171.866 141.105 171.334 142.147 171.092C143.189 170.85 144.278 170.907 145.29 171.257L145.24 174.795C146.295 177.842 149.092 179.869 151.332 182.191C155.552 186.599 158.003 192.405 158.217 198.503C152.478 196.298 150.597 190.738 146.642 186.031Z" fill="#EF815B"/>
<path d="M142.683 199.124C141.31 198.038 140.298 196.565 139.142 195.247C137.949 193.883 136.595 192.67 135.11 191.631C134.446 191.166 133.739 190.721 133.283 190.052C132.827 189.384 132.695 188.41 133.219 187.793C133.661 187.272 134.418 187.154 135.102 187.18C137.041 187.25 138.868 188.182 140.353 189.431C141.839 190.679 143.027 192.236 144.203 193.773L144.513 195.451C147.284 198.705 150.248 201.788 153.389 204.685L145.955 201.03C144.822 200.475 143.672 199.913 142.683 199.124Z" fill="#EF815B"/>
<path d="M128.093 199.604C128.925 198.292 130.862 198.303 132.33 198.807C133.818 199.318 135.169 200.163 136.281 201.276L139.026 202.608C142.698 204.624 145.631 207.757 147.401 211.554C144.359 209.083 140.955 207.095 137.309 205.66C135.59 204.982 133.571 204.451 131.963 205.362C131.372 205.699 130.798 206.234 130.123 206.138C129.643 206.07 129.269 205.687 128.98 205.294C128.14 204.149 127.684 202.766 127.678 201.346C127.682 200.742 127.763 200.117 128.093 199.604Z" fill="#EF815B"/>
<path d="M162.957 228.376C165.46 227.91 167.638 226.406 169.626 224.819C173.502 221.732 176.985 218.182 179.999 214.248C181.52 212.261 183.06 210.061 185.407 209.195L185.717 226.556C184.696 230.03 181.165 232.295 177.593 232.896C174.021 233.498 170.377 232.76 166.831 232.022L153.453 229.241C156.364 227.887 159.81 228.965 162.957 228.376Z" fill="#EF815B"/>
</g>
<g opacity="0.5">
<path d="M185.418 250.572C185.486 250.572 185.552 250.55 185.607 250.509C185.661 250.468 185.7 250.41 185.718 250.344L197.914 206.387L220.345 209.374L214.496 156.087C214.488 156.005 214.446 155.93 214.382 155.878C214.318 155.826 214.235 155.802 214.153 155.81C214.071 155.819 213.995 155.86 213.943 155.925C213.891 155.989 213.867 156.072 213.876 156.154L219.638 208.654L197.46 205.707L185.117 250.184C185.105 250.231 185.102 250.279 185.111 250.326C185.12 250.373 185.14 250.418 185.169 250.456C185.198 250.494 185.236 250.525 185.279 250.546C185.322 250.568 185.369 250.579 185.417 250.578L185.418 250.572Z" fill="black"/>
</g>
</svg>
