<svg width="422" height="278" viewBox="0 0 422 278" fill="none" xmlns="http://www.w3.org/2000/svg">
<path d="M304.015 110.292C281.494 102.708 257.841 95.1407 241.348 77.031C231.206 65.8897 228.367 52.1712 221.765 39.0829C217.022 29.6792 209.918 21.4976 201.351 15.3755C182.074 0.663339 153.209 9.03284 137.059 24.7455C123.549 37.8855 116.179 56.4949 114.268 75.2484C111.141 105.923 121.609 137.109 116.247 167.473C113.929 180.599 108.733 193.009 104.513 205.654C97.8072 225.737 92.4704 253.546 110.957 269.384C120.73 277.761 134.928 279.328 147.502 276.57C169.127 271.824 190.068 257.348 207.321 244.009C222.401 232.345 230.591 216.366 252.016 213.727C260.997 212.621 269.547 216.847 278.432 217.734C288.965 218.786 299.781 217.547 309.896 214.485C330.242 208.322 348.712 194.391 357.832 174.885C361.938 166.107 363.454 155.802 360.345 146.62C352.848 124.471 323.701 116.92 304.015 110.292Z" fill="#B2DCD4"/>
<path d="M224.886 259.699C224.154 259.502 223.381 259.526 222.664 259.769C221.946 260.011 221.317 260.461 220.855 261.062C220.394 261.662 220.121 262.386 220.071 263.142C220.021 263.897 220.196 264.651 220.575 265.307C220.954 265.962 221.519 266.491 222.198 266.826C222.877 267.161 223.641 267.286 224.392 267.187C225.142 267.087 225.847 266.767 226.416 266.267C226.984 265.767 227.392 265.109 227.587 264.377C227.847 263.399 227.709 262.357 227.203 261.48C226.697 260.603 225.863 259.963 224.886 259.699Z" fill="#FFAB38"/>
<path d="M76.2252 228.81C75.2278 228.903 74.2805 229.29 73.5032 229.922C72.7259 230.554 72.1534 231.402 71.8582 232.36C71.563 233.317 71.5583 234.34 71.8448 235.3C72.1312 236.26 72.6959 237.113 73.4675 237.752C74.239 238.391 75.1827 238.787 76.1792 238.889C77.1757 238.992 78.1803 238.797 79.0658 238.328C79.9513 237.86 80.678 237.139 81.154 236.258C81.63 235.377 81.8338 234.374 81.7398 233.377C81.6138 232.04 80.9621 230.808 79.928 229.951C78.8939 229.095 77.562 228.684 76.2252 228.81Z" fill="#FFAB38"/>
<path d="M261.811 256.698C264.198 254.311 264.198 250.441 261.811 248.054C259.424 245.667 255.554 245.667 253.167 248.054C250.78 250.441 250.78 254.311 253.167 256.698C255.554 259.084 259.424 259.084 261.811 256.698Z" fill="#FFAB38"/>
<path d="M148.673 247.078C151.627 247.078 154.021 244.684 154.021 241.73C154.021 238.777 151.627 236.383 148.673 236.383C145.72 236.383 143.325 238.777 143.325 241.73C143.325 244.684 145.72 247.078 148.673 247.078Z" fill="white"/>
<path d="M70.4639 208.674C69.9629 208.86 69.5282 209.19 69.2148 209.623C68.9014 210.055 68.7233 210.571 68.7031 211.105C68.6829 211.639 68.8215 212.167 69.1013 212.622C69.3811 213.077 69.7896 213.439 70.2752 213.662C70.7607 213.885 71.3014 213.958 71.829 213.874C72.3565 213.79 72.8472 213.551 73.2389 213.187C73.6306 212.824 73.9058 212.353 74.0297 211.833C74.1535 211.313 74.1205 210.769 73.9347 210.268C73.6857 209.596 73.1801 209.051 72.5292 208.752C71.8784 208.454 71.1355 208.426 70.4639 208.674Z" fill="#FFAB38"/>
<path d="M250.839 46.6983C249.872 46.9566 249.002 47.4962 248.341 48.2487C247.68 49.0012 247.257 49.9328 247.125 50.9258C246.993 51.9188 247.159 52.9285 247.601 53.8272C248.044 54.726 248.743 55.4734 249.61 55.9749C250.477 56.4765 251.473 56.7096 252.473 56.6449C253.472 56.5801 254.43 56.2204 255.226 55.6113C256.021 55.0021 256.617 54.1707 256.94 53.2225C257.263 52.2742 257.297 51.2515 257.038 50.2838C256.692 48.9864 255.844 47.8799 254.681 47.2075C253.519 46.5351 252.137 46.352 250.839 46.6983Z" fill="#FFAB38"/>
<path d="M236.386 31.3155C235.923 31.5818 235.549 31.9795 235.312 32.4582C235.075 32.9369 234.985 33.4752 235.054 34.0049C235.123 34.5346 235.347 35.0321 235.699 35.4343C236.051 35.8365 236.514 36.1254 237.029 36.2646C237.545 36.4037 238.091 36.3868 238.597 36.2159C239.103 36.0451 239.547 35.728 239.873 35.3047C240.199 34.8815 240.392 34.3711 240.428 33.8381C240.464 33.3051 240.341 32.7734 240.074 32.3104C239.897 32.0029 239.662 31.7333 239.381 31.5169C239.1 31.3005 238.779 31.1415 238.436 31.0491C238.094 30.9568 237.736 30.9327 237.385 30.9784C237.033 31.0242 236.694 31.1387 236.386 31.3155Z" fill="#FFAB38"/>
<path d="M141.253 251.782C141.467 250.249 140.399 248.834 138.867 248.619C137.335 248.405 135.919 249.473 135.704 251.005C135.49 252.537 136.558 253.953 138.09 254.167C139.622 254.382 141.038 253.314 141.253 251.782Z" fill="white"/>
<path d="M340.454 195.205L337.193 188.601L333.935 195.205L326.645 196.265L331.919 201.407L330.675 208.665L337.193 205.237L343.714 208.665L342.469 201.407L347.743 196.265L340.454 195.205Z" fill="#FFB85F"/>
<path d="M117.095 71.7507L113.719 64.9094L110.342 71.7507L102.792 72.8479L108.255 78.1732L106.966 85.6931L113.719 82.1425L120.472 85.6931L119.183 78.1732L124.647 72.8479L117.095 71.7507Z" fill="#FFB85F"/>
<path d="M116.087 28.6L114.7 25.791L113.314 28.6L110.214 29.0513L112.457 31.2379L111.928 34.3248L114.7 32.8674L117.474 34.3248L116.944 31.2379L119.188 29.0513L116.087 28.6Z" fill="#FFB85F"/>
<path d="M308.361 108.905L306.671 105.477L304.978 108.905L301.196 109.455L303.933 112.124L303.287 115.891L306.671 114.113L310.054 115.891L309.407 112.124L312.145 109.455L308.361 108.905Z" fill="#FFB85F"/>
<path d="M161.056 52.2556C165.595 52.2556 169.274 48.5765 169.274 44.038C169.274 39.4996 165.595 35.8204 161.056 35.8204C156.518 35.8204 152.838 39.4996 152.838 44.038C152.838 48.5765 156.518 52.2556 161.056 52.2556Z" fill="white"/>
<path d="M197.666 55.2435C199.591 55.2435 201.152 53.6826 201.152 51.7571C201.152 49.8316 199.591 48.2706 197.666 48.2706C195.74 48.2706 194.179 49.8316 194.179 51.7571C194.179 53.6826 195.74 55.2435 197.666 55.2435Z" fill="white"/>
<path d="M324.976 152.008C326.382 152.008 327.522 150.867 327.522 149.461C327.522 148.054 326.382 146.914 324.976 146.914C323.569 146.914 322.429 148.054 322.429 149.461C322.429 150.867 323.569 152.008 324.976 152.008Z" fill="white"/>
<path d="M286.162 171.561C288.368 171.561 290.156 169.773 290.156 167.567C290.156 165.361 288.368 163.573 286.162 163.573C283.956 163.573 282.168 165.361 282.168 167.567C282.168 169.773 283.956 171.561 286.162 171.561Z" fill="white"/>
<path d="M116.745 147.11L106.627 162.656C107.865 166.085 109.085 169.502 110.283 172.843L117.831 157.207L118.33 157.449L110.545 173.573C111.797 177.062 113.013 180.457 114.168 183.682L114.574 183.757L120.989 172.028C119.738 164.157 118.442 156.294 116.994 148.457C116.911 148.015 116.828 147.566 116.745 147.11Z" fill="#89C4C0"/>
<path d="M99.1914 142.001C100.204 144.802 101.25 147.706 102.317 150.666L113.703 132.68C112.611 128.835 111.188 125.125 109.21 121.968L99.1914 142.001Z" fill="#89C4C0"/>
<path d="M102.555 151.325C103.819 154.836 105.107 158.414 106.394 161.998L116.603 146.31C115.881 142.28 115.091 137.775 113.902 133.401L102.555 151.325Z" fill="#89C4C0"/>
<path d="M99.6758 181.562C101.042 184.125 102.396 186.694 103.739 189.269L103.766 189.185L117.079 193.461C116.06 190.609 114.941 187.482 113.753 184.167L99.6758 181.562Z" fill="#89C4C0"/>
<path d="M114.868 184.374L114.384 184.285L117.744 193.676L118.235 193.834L123.385 187.283C122.635 182.496 121.884 177.709 121.134 172.922L114.868 184.374Z" fill="#89C4C0"/>
<path d="M88.5903 113.181C88.9651 113.912 91.5164 120.833 95.0852 130.653L102.095 115.027L102.564 115.238C100.048 113.744 97.0491 112.835 93.4364 112.746C91.8114 112.453 90.1373 112.603 88.5903 113.181Z" fill="#89C4C0"/>
<path d="M118.432 194.478L117.981 194.332C119.332 198.12 120.5 201.376 121.397 203.887L121.847 203.983L125.377 199.749C124.736 195.847 124.11 191.941 123.499 188.029L118.432 194.478Z" fill="#89C4C0"/>
<path d="M111.771 202.43L111.884 201.888L120.758 203.753C119.849 201.209 118.674 197.923 117.313 194.119L104.045 189.856C104.881 191.458 105.715 193.062 106.546 194.667C108.845 199.121 111.577 204.421 115.979 207.158C118.772 208.892 120.98 209.346 122.583 208.856C122.297 208.053 121.744 206.507 120.98 204.366L111.771 202.43Z" fill="#89C4C0"/>
<path d="M122.062 204.593L121.612 204.498L123.096 208.651C125.294 207.603 126.122 204.51 125.494 200.476L122.062 204.593Z" fill="#89C4C0"/>
<path d="M102.597 115.259L95.356 131.405C96.4668 134.465 97.6698 137.787 98.9326 141.285L108.859 121.434C107.197 118.913 105.147 116.782 102.597 115.259Z" fill="#89C4C0"/>
<path d="M91.4637 165.91L91.5313 165.36C93.1001 165.553 106.308 171.325 109.679 172.8C108.535 169.612 107.366 166.353 106.19 163.084L106.11 163.054C100.103 160.859 88.3834 156.661 87.0318 156.495L87.0993 155.945C88.7346 156.146 103.418 161.483 105.946 162.405C104.61 158.691 103.271 154.961 101.958 151.316C95.881 148.903 84.4849 144.475 83.1547 144.312L83.2222 143.762C84.7978 143.956 98.3615 149.298 101.709 150.627C100.622 147.611 99.5578 144.662 98.5303 141.812C93.9329 139.314 82.8441 133.407 81.4924 133.241L81.5599 132.693C83.1097 132.882 94.8681 139.2 98.2478 141.03C97.0098 137.593 95.8248 134.327 94.7354 131.324C91.3264 129.329 83.0309 124.609 81.6905 124.444L81.758 123.894C83.2773 124.08 91.726 128.934 94.4405 130.512C90.9078 120.784 88.4026 113.994 88.0886 113.422L88.3328 113.288C85.733 114.358 82.8947 117.001 81.8053 123.274C78.9985 139.413 84.8642 154.57 92.5621 168.471C94.8543 172.61 97.1134 176.768 99.3395 180.944L113.536 183.57C112.387 180.364 111.178 176.989 109.934 173.525C103.963 170.886 92.7917 166.073 91.4637 165.91Z" fill="#89C4C0"/>
<path d="M81.2988 179.306C81.5864 180.985 82.0003 182.641 82.5368 184.258C85.5023 184.665 90.5971 185.636 92.5362 186.011C91.1407 184.203 89.7767 182.438 88.4993 180.788C86.307 180.285 83.3685 179.663 81.2988 179.306Z" fill="#489DA2"/>
<path d="M85.6768 191.204C86.9668 193.431 88.4422 195.546 90.0873 197.525C93.3511 197.538 100.329 197.839 101.645 197.898L101.656 197.859C100.216 195.985 98.6586 193.959 97.065 191.888C94.4855 191.701 88.7402 191.313 85.6768 191.204Z" fill="#489DA2"/>
<path d="M80.8176 173.219C80.7942 175.077 80.926 176.933 81.2115 178.769C83.4556 179.144 86.5742 179.831 88.0068 180.152C85.1032 176.406 82.7016 173.333 81.4793 171.825C81.1796 172.247 80.9556 172.719 80.8176 173.219Z" fill="#489DA2"/>
<path d="M102.214 197.751C103.827 199.85 105.285 201.75 106.477 203.306L110.096 192.631C108.744 190.298 107.201 188.082 105.481 186.005L102.214 197.751Z" fill="#489DA2"/>
<path d="M100.32 180.479L97.4048 191.494C98.9354 193.483 100.432 195.433 101.827 197.245L105.069 185.589L105.153 185.613C103.64 183.812 102.026 182.098 100.32 180.479Z" fill="#489DA2"/>
<path d="M88.9087 180.486C90.2041 182.156 91.585 183.943 92.9974 185.775L94.6202 175.594C92.6834 174.097 91.0189 172.959 89.8732 172.217L88.9087 180.486Z" fill="#489DA2"/>
<path d="M102.028 198.424L101.825 198.415C98.7067 198.276 93.3991 198.068 90.5146 198.036C92.3734 200.214 94.3876 202.254 96.5413 204.141C99.4854 203.972 104.772 203.791 106.173 203.745C105.021 202.244 103.609 200.403 102.044 198.365L102.028 198.424Z" fill="#489DA2"/>
<path d="M110.431 193.227L106.851 203.792C108.413 205.829 109.448 207.182 109.652 207.448L109.248 207.757C109.196 207.69 108.177 206.358 106.554 204.242H106.521C106.442 204.242 100.547 204.438 97.0879 204.621C105.817 212.142 114.797 216.006 114.797 216.006L114.547 213.032C115.531 205.656 113.611 198.978 110.431 193.227Z" fill="#489DA2"/>
<path d="M82.7256 184.8C83.4396 186.835 84.3271 188.804 85.3782 190.686C88.5294 190.778 94.8532 191.22 96.6483 191.348C95.4384 189.772 94.2128 188.185 93.0053 186.621C89.7809 185.986 85.3748 185.185 82.7256 184.8Z" fill="#489DA2"/>
<path d="M81.8081 171.416C83.0337 172.931 85.4905 176.075 88.4628 179.909L89.3957 171.908C88.6462 171.432 88.2118 171.182 88.2118 171.182C84.705 169.457 82.8007 170.329 81.8081 171.416Z" fill="#489DA2"/>
<path d="M93.4248 186.324L97.0127 190.981L99.8972 180.076C98.2191 178.5 96.5783 177.125 95.0792 175.947L93.4248 186.324Z" fill="#489DA2"/>
<path d="M133.583 124.674C133.231 127.52 132.851 130.566 132.458 133.677L143.741 125.389L144.079 125.853L132.361 134.466C132.031 137.094 131.694 139.763 131.359 142.399L143.21 135.826L143.458 136.276C143.895 133.195 144.173 130.094 144.293 126.985C144.293 126.985 144.025 121.37 142.358 116.302L133.583 124.674Z" fill="#489DA2"/>
<path d="M135.558 108.385L135.486 108.394C135.327 110.308 134.62 116.272 133.695 123.776L142.062 115.794L142.263 116.005C140.976 112.238 138.9 108.841 135.558 108.385Z" fill="#489DA2"/>
<path d="M122.552 120.538C124.369 122.488 130.142 130.916 131.903 133.503C132.29 130.423 132.665 127.415 133.013 124.603C131.484 122.186 127.864 116.603 126.207 114.576C124.944 116.139 123.693 118.093 122.552 120.538Z" fill="#489DA2"/>
<path d="M118.001 141.32C120.709 143.934 128.093 151.93 129.305 153.249L129.409 153.189C129.811 150.046 130.245 146.645 130.686 143.173C127.435 139.439 121.464 132.671 119.346 130.569C119.06 132.252 118.398 136.47 118.001 141.32Z" fill="#489DA2"/>
<path d="M130.033 152.831L141.336 146.401L141.381 146.806C142.261 143.361 142.952 139.871 143.451 136.35L131.271 143.102C130.845 146.471 130.425 149.766 130.033 152.831Z" fill="#489DA2"/>
<path d="M129.035 153.8C125.396 149.847 119.298 143.361 117.927 142.234C117.501 148.006 117.491 154.481 118.94 158.598C119.442 160.031 120.731 160.222 120.991 160.986L128.467 160.576C128.725 158.571 129.013 156.317 129.322 153.896L129.195 153.969L129.035 153.8Z" fill="#489DA2"/>
<path d="M129.053 160.489L137.11 159.271C137.038 159.591 139.309 154.828 141.327 147.012L129.942 153.539C129.621 156.051 129.321 158.402 129.053 160.489Z" fill="#489DA2"/>
<path d="M126.572 114.126C128.291 116.183 131.829 121.675 133.124 123.707C134.024 116.376 134.724 110.524 134.9 108.515C133.498 108.847 130.036 110.046 126.572 114.126Z" fill="#489DA2"/>
<path d="M119.483 129.76C119.483 129.76 119.474 129.808 119.462 129.872C121.611 131.912 129.072 140.439 130.78 142.398C131.118 139.727 131.456 137.022 131.793 134.358C129.542 131.045 124.087 123.134 122.296 121.095C121.223 123.509 120.252 126.359 119.483 129.76Z" fill="#489DA2"/>
<path d="M286.977 136.872H160.469V145.157H286.977V136.872Z" fill="#F3C589"/>
<path d="M286.972 67.4022H277.803V141.13H286.972V67.4022Z" fill="#F3C589"/>
<path d="M280.096 69.563H158.351V138.837H280.096V69.563Z" fill="#67A4C3"/>
<path d="M156.06 141.13H282.388V67.2705H156.06V141.13ZM160.645 71.8553H277.802V136.545H160.645V71.8553Z" fill="white"/>
<path d="M229.048 71.8553H221.838V135.526H229.048V71.8553Z" fill="#376F92"/>
<path d="M277.804 103.093H160.645V110.826H277.804V103.093Z" fill="#376F92"/>
<path d="M224.825 69.3086H220.241V137.055H224.825V69.3086Z" fill="white"/>
<path d="M278.822 102.417H157.587V107.001H278.822V102.417Z" fill="white"/>
<path d="M180.649 83.907L177.976 85.4488L175.19 84.1208L175.831 87.1402L173.707 89.3797L176.776 89.7016L178.249 92.4138L179.505 89.5947L182.539 89.032L180.247 86.9669L180.649 83.907Z" fill="white"/>
<path d="M196.014 77.9347L194.377 78.8778L192.673 78.0652L193.065 79.9131L191.765 81.2838L193.644 81.4819L194.546 83.1419L195.314 81.4155L197.171 81.0711L195.768 79.8073L196.014 77.9347Z" fill="white"/>
<path d="M251.573 91.8636C242.336 91.6666 234.829 92.3014 234.804 93.2816C234.78 94.2618 242.256 95.215 251.493 95.4119C260.731 95.6089 268.24 94.973 268.262 93.9939C268.285 93.0149 260.817 92.0605 251.573 91.8636Z" fill="white"/>
<path d="M266.372 87.6141C265.671 87.5991 264.98 87.7925 264.389 88.1699C263.797 88.5472 263.33 89.0915 263.048 89.734C262.766 90.3765 262.68 91.0882 262.802 91.7793C262.924 92.4703 263.249 93.1097 263.734 93.6164C264.22 94.1231 264.845 94.4745 265.53 94.6262C266.215 94.7778 266.93 94.7228 267.584 94.4682C268.238 94.2136 268.802 93.7708 269.204 93.1958C269.606 92.6208 269.829 91.9394 269.844 91.2378C269.854 90.7719 269.773 90.3085 269.604 89.8742C269.435 89.4398 269.182 89.0431 268.859 88.7065C268.537 88.37 268.151 88.1003 267.724 87.9129C267.298 87.7254 266.838 87.6239 266.372 87.6141Z" fill="white"/>
<path d="M256.316 83.3433C251.837 83.2477 248.146 85.8946 248.074 89.2527C248.002 92.6109 251.577 95.4131 256.057 95.5088C260.537 95.6044 264.225 92.9575 264.296 89.5982C264.367 86.2389 260.801 83.439 256.316 83.3433Z" fill="white"/>
<path d="M246.604 87.1933C244.083 87.1393 242.007 88.6844 241.965 90.6437C241.923 92.603 243.932 94.2359 246.453 94.2888C248.974 94.3417 251.048 92.8 251.09 90.8384C251.132 88.8768 249.123 87.2462 246.604 87.1933Z" fill="white"/>
<path d="M251.448 124.14C246.525 124.244 242.544 124.753 242.557 125.275C242.569 125.797 246.567 126.135 251.488 126.03C256.41 125.926 260.39 125.417 260.379 124.896C260.368 124.375 256.368 124.035 251.448 124.14Z" fill="white"/>
<path d="M243.564 121.877C243.19 121.884 242.827 122.003 242.521 122.217C242.214 122.431 241.978 122.732 241.842 123.08C241.707 123.429 241.677 123.81 241.758 124.175C241.839 124.54 242.026 124.873 242.296 125.132C242.566 125.39 242.906 125.563 243.275 125.628C243.643 125.694 244.022 125.648 244.364 125.498C244.707 125.347 244.997 125.099 245.198 124.784C245.399 124.468 245.502 124.101 245.494 123.727C245.484 123.225 245.274 122.749 244.912 122.402C244.551 122.055 244.066 121.866 243.564 121.877Z" fill="white"/>
<path d="M248.918 119.601C246.531 119.652 244.628 121.145 244.667 122.933C244.705 124.722 246.67 126.133 249.056 126.084C251.442 126.036 253.347 124.542 253.309 122.751C253.271 120.961 251.304 119.55 248.918 119.601Z" fill="white"/>
<path d="M254.095 121.652C252.753 121.681 251.683 122.552 251.705 123.594C251.728 124.636 252.831 125.461 254.176 125.433C255.521 125.405 256.589 124.533 256.566 123.49C256.544 122.448 255.437 121.623 254.095 121.652Z" fill="white"/>
<path d="M95.1738 268.878C95.7174 268.547 95.7894 268.15 95.696 267.686C95.4542 268.05 95.2775 268.454 95.1738 268.878Z" fill="#FDFDFD"/>
<path d="M180 188.501L180.509 187.991C180 187.482 171.85 180.86 171.85 180.86L180 188.501Z" fill="#5B1314"/>
<path d="M87.8013 216.867L279.333 232.816L306.329 204.801L125.285 198.688L87.8013 216.867Z" fill="#E2976D"/>
<path d="M193.434 160.987L180.886 164.132C186.356 167.778 194.773 164.56 194.773 164.56C198.338 164.56 209.035 170.164 209.035 170.164L214.129 173.22C214.129 173.22 214.639 170.164 213.644 168.324C212.649 166.484 193.434 160.987 193.434 160.987Z" fill="#5B1314"/>
<path d="M87.8013 220.234L280.35 234.853V230.139L87.8013 216.516V220.234Z" fill="#BF5025"/>
<path d="M153.217 154.43L164.916 206.329H165.738L157.242 157.429C156.716 154.373 153.217 154.43 153.217 154.43Z" fill="#376F92"/>
<path d="M125.496 203.701L126.006 204.801L165.737 211.932L163.19 209.598L125.496 203.701Z" fill="#376F92"/>
<path d="M153.002 153.728L120.169 153.293C117.927 153.264 116.23 155.343 116.656 157.587L125.417 204.684L165.741 211.932L156.85 157.099C156.708 156.174 156.244 155.329 155.54 154.712C154.837 154.096 153.938 153.747 153.002 153.728Z" fill="#67A4C3"/>
<path d="M135.558 173.744C133.456 173.92 131.921 176.108 132.131 178.63C132.342 181.152 134.215 183.057 136.318 182.882C138.42 182.706 139.955 180.518 139.746 177.997C139.536 175.476 137.661 173.57 135.558 173.744Z" fill="#65A4C5"/>
<path d="M135.558 174.254C133.456 174.429 131.921 176.618 132.131 179.14C132.342 181.662 134.215 183.566 136.318 183.391C138.42 183.217 139.955 181.028 139.746 178.506C139.536 175.984 137.661 174.08 135.558 174.254Z" fill="#376F92"/>
<path d="M135.049 173.744C132.946 173.92 131.412 176.108 131.622 178.63C131.831 181.152 133.707 183.057 135.809 182.882C137.912 182.706 139.446 180.518 139.236 177.997C139.027 175.476 137.151 173.57 135.049 173.744Z" fill="#65A4C5"/>
<path d="M134.923 177.4C134.314 177.452 133.869 178.085 133.929 178.818C133.99 179.55 134.534 180.102 135.144 180.056C135.754 180.01 136.199 179.37 136.137 178.638C136.076 177.905 135.533 177.349 134.923 177.4Z" fill="#FFFEFF"/>
<path d="M280.35 234.853L306.33 208.366V204.801L280.35 230.269V234.853Z" fill="#BC411B"/>
<path d="M218.198 174.87C218.198 174.87 220.752 169.145 221.261 164.05L216.432 173.546L218.198 174.87Z" fill="#F15829"/>
<path d="M205.541 166.712L215.142 172.677C215.142 164.46 205.541 166.712 205.541 166.712Z" fill="#F15829"/>
<path d="M200.377 219.905L226.157 224.666L226.574 218.053L200.377 213.854V219.905Z" fill="#FFFEFF"/>
<path d="M200.377 213.855L226.574 218.053L253.16 208.866L231.979 204.291L200.377 213.855Z" fill="#FCBC55"/>
<path d="M226.195 224.433L252.355 213.854L253.159 208.865L226.573 218.053L226.195 224.433Z" fill="#E89429"/>
<path d="M226.194 224.433L234.506 223.646L259.465 213.969L252.355 213.854L226.194 224.433Z" fill="#BF5025"/>
<path d="M165.738 211.931L212.17 208.218V205.261L164.719 205.819L165.738 211.931Z" fill="#376F92"/>
<path d="M165.739 211.931L176.447 214.715L212.379 208.46L212.171 208.219L165.739 211.931Z" fill="#BF5025"/>
<path d="M347.927 78.1034C347.769 77.7894 347.388 77.5261 347.058 77.4349C346.678 77.3329 346.273 77.3855 345.932 77.5812C345.605 77.7735 345.365 78.0854 345.264 78.4511C345.246 78.5794 345.229 78.7088 345.211 78.8383C345.211 79.0962 345.28 79.3495 345.41 79.572L345.702 80.1527C345.846 80.3999 346.06 80.5991 346.317 80.7252C346.574 80.8514 346.862 80.8989 347.146 80.8619C347.43 80.8249 347.697 80.705 347.913 80.5172C348.129 80.3294 348.285 80.082 348.361 79.8061C348.378 79.6767 348.396 79.5484 348.413 79.419C348.413 79.1611 348.345 78.9078 348.215 78.6852L347.927 78.1034Z" fill="#FFE3C4"/>
<path d="M276.829 221.356C276.823 221.387 276.825 221.419 276.833 221.45C276.842 221.48 276.857 221.508 276.877 221.532C276.897 221.556 276.923 221.576 276.951 221.589C276.98 221.602 277.011 221.609 277.043 221.609L280.458 221.842L298.205 204.678L279.841 203.778L276.829 221.356Z" fill="#BF5025"/>
<path d="M270.599 219.154C261.993 219.154 255.017 220.849 255.017 222.941C255.017 225.033 261.994 226.728 270.599 226.728C279.204 226.728 286.18 225.032 286.18 222.941C286.18 220.85 279.204 219.154 270.599 219.154Z" fill="#052942"/>
<path d="M269.084 218.071C260.478 218.071 253.501 219.767 253.501 221.858C253.501 223.949 260.479 225.645 269.084 225.645C277.689 225.645 284.665 223.949 284.665 221.858C284.665 219.767 277.689 218.071 269.084 218.071Z" fill="#68A2C0"/>
<path d="M269.512 181.892C267.838 181.892 266.482 186.731 266.482 192.696C266.482 197.594 267.398 201.722 268.653 203.043H270.371C271.626 201.722 272.541 197.594 272.541 192.696C272.541 186.728 271.185 181.892 269.512 181.892Z" fill="#217276"/>
<path d="M263.285 198.397C259.033 198.64 255.632 200.117 255.698 201.697C255.72 202.206 256.095 202.662 256.736 203.039H268.759C270.228 202.433 271.131 201.642 271.099 200.82C271.034 199.24 267.537 198.155 263.285 198.397Z" fill="#217276"/>
<path d="M276.268 198.397C272.017 198.639 268.615 200.117 268.684 201.698C268.703 202.206 269.087 202.971 269.729 203.349L281.63 203.607C283.093 203.001 284.115 201.641 284.082 200.821C284.019 199.24 280.521 198.155 276.268 198.397Z" fill="#217276"/>
<path d="M272.001 192.203C268.94 196.196 267.677 201.023 269.181 202.984C269.195 203.005 269.212 203.02 269.228 203.039H273.392C274.713 202.289 276.138 201.014 277.444 199.305C280.505 195.314 281.766 190.486 280.264 188.524C278.762 186.563 275.061 188.21 272.001 192.203Z" fill="#217276"/>
<path d="M258.538 188.873C257.026 190.847 258.398 195.573 261.602 199.429C262.995 201.105 264.503 202.34 265.89 203.04H269.959C270.023 202.977 270.083 202.91 270.138 202.839C271.65 200.866 270.278 196.14 267.074 192.284C263.87 188.429 260.048 186.9 258.538 188.873Z" fill="#217276"/>
<path d="M269.358 188.719C268.266 188.719 267.382 191.87 267.382 195.764C267.382 198.959 267.979 201.651 268.798 202.516H269.923C270.741 201.654 271.339 198.962 271.339 195.764C271.334 191.873 270.45 188.719 269.358 188.719Z" fill="#129E9E"/>
<path d="M265.297 199.484C262.524 199.643 260.308 200.61 260.345 201.637C260.358 201.969 260.604 202.266 261.02 202.513H268.862C269.82 202.118 270.409 201.601 270.388 201.066C270.352 200.035 268.07 199.327 265.297 199.484Z" fill="#129E9E"/>
<path d="M273.766 199.491C270.992 199.649 268.777 200.616 268.814 201.643C268.839 201.862 268.913 202.073 269.031 202.26C269.15 202.446 269.308 202.603 269.496 202.72L277.261 202.889C278.219 202.494 278.882 201.607 278.861 201.071C278.825 200.035 276.539 199.327 273.766 199.491Z" fill="#129E9E"/>
<path d="M270.982 195.445C268.985 198.05 268.162 201.197 269.144 202.477C269.153 202.489 269.163 202.501 269.174 202.513H271.887C272.749 202.023 273.679 201.193 274.533 200.077C276.53 197.473 277.354 194.324 276.372 193.045C275.391 191.765 272.979 192.84 270.982 195.445Z" fill="#129E9E"/>
<path d="M262.2 193.273C261.214 194.56 262.109 197.642 264.199 200.157C265.107 201.251 266.092 202.057 266.996 202.513H269.649C269.692 202.472 269.731 202.428 269.768 202.382C270.754 201.095 269.858 198.012 267.768 195.497C265.678 192.982 263.182 191.986 262.2 193.273Z" fill="#129E9E"/>
<path d="M269.643 194.331C268.968 194.331 268.415 196.291 268.415 198.709C268.415 200.694 268.786 202.367 269.295 202.902H269.992C270.5 202.367 270.872 200.694 270.872 198.709C270.872 196.291 270.322 194.331 269.643 194.331Z" fill="#19CCC7"/>
<path d="M267.12 201.021C265.396 201.12 264.02 201.718 264.046 202.359C264.054 202.565 264.206 202.749 264.466 202.902H269.339C269.934 202.657 270.301 202.34 270.287 202.002C270.26 201.363 268.842 200.923 267.12 201.021Z" fill="#19CCC7"/>
<path d="M272.382 201.021C270.658 201.12 269.281 201.718 269.307 202.359C269.322 202.495 269.368 202.626 269.442 202.742C269.515 202.858 269.614 202.956 269.73 203.028L274.555 203.133C275.149 202.886 275.568 202.336 275.549 202.008C275.523 201.363 274.106 200.923 272.382 201.021Z" fill="#19CCC7"/>
<path d="M270.652 198.511C269.414 200.129 268.9 202.085 269.509 202.88L269.528 202.902H271.216C271.75 202.598 272.329 202.082 272.86 201.39C274.098 199.771 274.611 197.814 274.002 197.02C273.394 196.225 271.892 196.892 270.652 198.511Z" fill="#19CCC7"/>
<path d="M265.195 197.16C264.583 197.961 265.139 199.876 266.433 201.437C266.996 202.112 267.609 202.616 268.171 202.9H269.822C269.848 202.875 269.873 202.848 269.895 202.819C270.508 202.019 269.951 200.103 268.657 198.542C267.363 196.982 265.808 196.361 265.195 197.16Z" fill="#19CCC7"/>
<path d="M261.113 221.765C261.255 222.327 261.581 222.826 262.038 223.183C262.496 223.539 263.06 223.733 263.64 223.733H275.84C276.419 223.733 276.98 223.541 277.437 223.187C277.894 222.832 278.221 222.336 278.365 221.776L283.147 203.184L256.316 202.741L261.113 221.765Z" fill="#FAA83F"/>
<path d="M257.338 206.794L282.163 207.006L283.146 202.853L256.311 202.635L257.338 206.794Z" fill="#E2841E"/>
<path d="M209.546 151.317L198.445 143.94C198.264 143.865 198.071 143.827 197.876 143.827C197.681 143.827 197.488 143.865 197.308 143.94L193.067 145.596C192.735 145.733 192.452 145.969 192.258 146.272C191.627 147.237 191.887 148.644 192.815 149.252L198.535 152.999C198.616 153.051 198.691 153.111 198.76 153.178L208.747 162.356C208.983 162.577 209.278 162.725 209.597 162.781L210.986 163.018C211.239 163.066 211.478 163.168 211.687 163.318C211.896 163.468 212.069 163.662 212.195 163.886L212.744 166.38L210.707 154.664C210.459 152.103 210.564 152.337 209.546 151.317Z" fill="#F15829"/>
<path d="M184.584 144.185C180.083 144.185 176.576 144.759 176.014 145.503C177.602 145.022 180.762 144.695 184.556 144.695C188.478 144.695 192.003 145.045 193.701 145.554C193.205 144.785 189.192 144.185 184.584 144.185Z" fill="#F9A63A"/>
<path d="M193.755 146.223C193.755 146.223 190.698 146.733 191.208 150.298C191.208 150.298 189.68 153.863 191.384 155.463C191.384 155.463 190.189 158.951 192.982 161.29C194.839 162.839 194.774 161.298 194.774 161.298L193.755 146.223Z" fill="#CCCCCC"/>
<path d="M214.755 115.174L205.963 120.842L206.24 121.27L215.032 115.602L214.755 115.174Z" fill="#F15829"/>
<path d="M193.707 123.552L193.547 123.751L193.71 123.555L193.388 123.948C193.424 123.979 194.006 124.438 195.11 124.438C195.747 124.438 196.558 124.285 197.538 123.81L197.313 123.352C194.946 124.5 193.758 123.592 193.707 123.552Z" fill="#F15829"/>
<path d="M205.285 120.81L205.545 121.247L215.025 115.625L214.764 115.187L205.285 120.81Z" fill="white"/>
<path d="M219.768 143.295L214.006 154.192L212.372 157.174L214.006 158.958L214.894 155.573L218.847 152.681L220.752 144.628L223.808 145.205L228.902 136.545L227.374 135.526L219.768 143.295Z" fill="#5B1314"/>
<path d="M193.575 146.823C193.393 146.91 198.339 149.793 198.339 149.793C196.302 148.265 193.755 146.738 193.755 146.738L193.575 146.823Z" fill="#F15829"/>
<path d="M217.441 115.661C217.11 115.671 216.796 115.809 216.565 116.047C216.334 116.285 216.205 116.603 216.205 116.934C216.205 117.266 216.334 117.584 216.565 117.822C216.796 118.059 217.11 118.198 217.441 118.208C217.566 118.208 217.69 118.19 217.809 118.154C218.101 118.065 218.352 117.874 218.515 117.616C218.678 117.359 218.743 117.051 218.699 116.749C218.654 116.447 218.503 116.171 218.272 115.971C218.041 115.772 217.746 115.662 217.441 115.661Z" fill="#F15829"/>
<path d="M218.105 115.848C218.29 116.138 218.409 116.465 218.451 116.807C218.494 117.148 218.46 117.495 218.353 117.822C217.991 118.964 216.677 118.722 216.677 118.722C216.677 118.722 218.715 119.735 219.224 118.212C219.732 116.69 218.105 115.848 218.105 115.848Z" fill="#F15829"/>
<path d="M192.077 151.041L196.81 152.845L192.226 150.807L192.077 151.041Z" fill="#F15829"/>
<path d="M215.501 124.913C211.776 122.448 212.601 127.376 212.374 127.208C211.335 126.44 211.018 136.175 211.018 136.175C207.905 140.388 199.867 142.657 199.867 142.657L197.32 144.185L210.531 153.35H213.62L217.186 142.145L223.808 133.995L218.439 133.815C217.145 131.599 215.501 124.913 215.501 124.913Z" fill="#FF8B6E"/>
<path d="M215.642 125.406C215.552 125.09 215.372 124.807 215.125 124.591C214.878 124.374 214.574 124.233 214.249 124.185C213.925 124.137 213.593 124.183 213.293 124.318C212.994 124.453 212.74 124.671 212.561 124.946L209.108 130.32C209.061 130.397 209.006 130.469 208.944 130.534L200.687 139.762C200.483 139.99 200.344 140.267 200.285 140.567L200.015 141.917C199.969 142.15 199.874 142.371 199.737 142.565C199.601 142.759 199.424 142.922 199.22 143.043L198.634 143.394L211.063 142.243C211.374 142.214 211.671 142.1 211.921 141.914C212.172 141.728 212.367 141.477 212.484 141.188L216.773 130.751C216.921 130.399 216.943 130.007 216.835 129.64L215.642 125.406Z" fill="#F15829"/>
<path d="M217.696 113.624C217.696 113.624 213.621 115.152 213.621 119.227L213.111 115.662C213.111 115.662 204.452 113.624 205.471 105.475C205.471 105.475 192.735 102.928 190.188 105.984L183.566 111.077C183.566 112.606 189.17 134.509 191.207 138.074C193.244 141.64 198.339 142.149 199.873 142.659C200.556 142.884 210.06 139.093 211.08 136.037C211.08 136.037 213.117 131.962 213.117 126.359C213.117 125.849 218.72 122.793 219.739 121.264C220.757 119.736 220.752 117.19 220.752 116.171C220.752 115.151 219.733 113.114 217.696 113.624Z" fill="#FF8B6E"/>
<path d="M197.32 105.166L183.566 111.076C183.566 111.076 188.23 121.909 203.434 110.568C203.434 110.568 206.999 115.151 213.263 116.726L209.594 104.479L197.32 105.166Z" fill="#F15829"/>
<path d="M208.526 92.2303C208.526 92.2303 206.489 92.2303 204.96 94.2673C204.96 94.2673 196.301 87.6455 191.716 95.7956C191.716 95.7956 190.698 97.8325 187.641 96.814C187.641 96.814 189.678 98.3423 190.698 97.8269C190.698 97.8269 187.641 100.374 182.038 99.3552C182.038 99.3552 183.056 103.43 189.17 101.902C189.17 101.902 184.076 105.977 177.962 100.374C177.962 100.374 176.95 110.052 187.131 112.599C187.131 112.599 197.83 115.145 204.96 105.467C204.96 105.467 201.905 110.052 211.582 115.655L213.263 116.721L213.42 117.824L213.533 118.598H213.654C213.654 118.598 213.621 115.655 217.696 113.617C219.143 112.895 218.206 108.014 217.187 101.393C216.169 94.7726 211.582 91.7205 208.526 92.2303Z" fill="#5D1312"/>
<path d="M188.826 119.26C187.836 119.26 186.869 119.553 186.045 120.103C185.222 120.653 184.581 121.434 184.202 122.349C183.823 123.263 183.723 124.269 183.916 125.24C184.109 126.211 184.586 127.103 185.286 127.803C185.986 128.503 186.877 128.98 187.848 129.173C188.819 129.366 189.826 129.267 190.74 128.888C191.655 128.51 192.436 127.868 192.986 127.045C193.536 126.222 193.83 125.254 193.83 124.265C193.828 122.938 193.3 121.666 192.362 120.728C191.424 119.79 190.153 119.262 188.826 119.26ZM188.826 128.759C187.937 128.76 187.067 128.496 186.328 128.002C185.588 127.508 185.012 126.806 184.671 125.985C184.331 125.163 184.242 124.259 184.415 123.387C184.589 122.514 185.017 121.713 185.646 121.084C186.275 120.456 187.076 120.027 187.948 119.854C188.82 119.68 189.725 119.77 190.546 120.11C191.368 120.45 192.07 121.027 192.564 121.766C193.058 122.506 193.321 123.375 193.321 124.265C193.319 125.456 192.845 126.598 192.003 127.441C191.16 128.283 190.018 128.758 188.826 128.759Z" fill="#F15829"/>
<path d="M202.183 118.746C201.081 118.746 200.009 119.11 199.134 119.782C198.259 120.454 197.631 121.395 197.347 122.461C197.063 123.526 197.138 124.656 197.562 125.674C197.985 126.692 198.734 127.542 199.69 128.092C200.646 128.641 201.757 128.859 202.85 128.712C203.943 128.566 204.957 128.062 205.734 127.28C206.512 126.498 207.009 125.481 207.149 124.387C207.289 123.293 207.064 122.183 206.508 121.23C206.067 120.475 205.436 119.848 204.677 119.412C203.918 118.976 203.059 118.746 202.183 118.746ZM202.183 128.246C201.293 128.246 200.422 127.982 199.682 127.487C198.941 126.992 198.364 126.289 198.024 125.466C197.683 124.643 197.594 123.737 197.769 122.864C197.943 121.99 198.372 121.188 199.003 120.559C199.633 119.93 200.436 119.502 201.309 119.329C202.183 119.156 203.088 119.246 203.911 119.588C204.733 119.929 205.436 120.507 205.93 121.249C206.424 121.99 206.686 122.861 206.685 123.751C206.683 124.944 206.208 126.087 205.364 126.93C204.52 127.773 203.376 128.246 202.183 128.246Z" fill="#F15829"/>
<path d="M188.279 119.226C187.297 119.226 186.337 119.518 185.52 120.063C184.703 120.609 184.066 121.385 183.691 122.292C183.315 123.2 183.216 124.198 183.408 125.162C183.6 126.125 184.073 127.01 184.767 127.704C185.462 128.399 186.347 128.872 187.31 129.064C188.274 129.255 189.272 129.157 190.18 128.781C191.087 128.405 191.863 127.769 192.409 126.952C192.954 126.135 193.246 125.175 193.246 124.193C193.244 122.876 192.72 121.614 191.789 120.683C190.858 119.752 189.596 119.228 188.279 119.226ZM188.279 128.649C187.398 128.649 186.536 128.387 185.803 127.898C185.071 127.408 184.5 126.712 184.162 125.897C183.825 125.083 183.737 124.187 183.909 123.323C184.081 122.458 184.506 121.664 185.129 121.041C185.753 120.418 186.547 119.994 187.411 119.822C188.276 119.65 189.172 119.738 189.986 120.075C190.8 120.413 191.496 120.984 191.986 121.717C192.476 122.45 192.737 123.311 192.737 124.193C192.735 125.374 192.265 126.507 191.429 127.343C190.594 128.178 189.461 128.648 188.279 128.649Z" fill="white"/>
<path d="M201.523 118.718C200.429 118.718 199.366 119.079 198.499 119.746C197.631 120.412 197.008 121.346 196.726 122.403C196.444 123.46 196.519 124.58 196.94 125.59C197.36 126.6 198.102 127.443 199.05 127.988C199.999 128.533 201.1 128.749 202.185 128.604C203.269 128.458 204.274 127.959 205.046 127.183C205.817 126.407 206.31 125.399 206.449 124.314C206.588 123.229 206.365 122.128 205.814 121.183C205.377 120.433 204.75 119.811 203.997 119.379C203.244 118.946 202.391 118.718 201.523 118.718ZM201.523 128.14C200.641 128.14 199.779 127.879 199.046 127.389C198.313 126.899 197.742 126.203 197.404 125.388C197.067 124.574 196.979 123.677 197.151 122.813C197.323 121.948 197.748 121.154 198.371 120.53C198.995 119.907 199.789 119.482 200.654 119.311C201.519 119.139 202.415 119.227 203.23 119.565C204.044 119.902 204.74 120.474 205.23 121.207C205.72 121.94 205.981 122.802 205.981 123.684C205.98 124.866 205.51 125.999 204.674 126.835C203.838 127.67 202.705 128.14 201.523 128.142V128.14Z" fill="white"/>
<path d="M193.122 123.486L192.963 123.682L193.123 123.486H193.122Z" fill="white"/>
<path d="M193.124 123.487L192.963 123.684L192.802 123.882C192.839 123.911 193.415 124.367 194.512 124.367C195.144 124.367 195.948 124.216 196.922 123.746L196.697 123.287C194.362 124.417 193.186 123.534 193.124 123.487Z" fill="white"/>
<path d="M193.123 123.486L192.963 123.682V123.683L193.123 123.486Z" fill="white"/>
<path d="M193.755 131.78L197.32 133.357L194.264 125.848L193.755 131.78Z" fill="#F15829"/>
<path d="M192.963 135.805C194.209 137.103 196.811 137.564 196.811 137.564C199.867 137.564 202.159 135.805 202.159 135.805C196.939 137.288 193.041 135.606 192.963 135.805Z" fill="#F15829"/>
<path d="M189.047 123.345C188.691 123.406 188.499 124.009 188.617 124.69C188.735 125.371 189.118 125.874 189.472 125.815C189.827 125.757 190.019 125.153 189.902 124.472C189.785 123.791 189.402 123.284 189.047 123.345Z" fill="black"/>
<path d="M200.455 122.846C200.1 122.906 199.909 123.506 200.026 124.185C200.143 124.863 200.525 125.364 200.878 125.303C201.231 125.243 201.424 124.642 201.307 123.964C201.19 123.287 200.808 122.784 200.455 122.846Z" fill="black"/>
<path d="M197.721 143.945C197.721 143.945 209.881 149.36 210.53 153.354H213.263C213.263 153.354 204.856 145.113 198.632 143.396L197.721 143.945Z" fill="#F15829"/>
<path d="M215.251 124.716L217.121 130.58C217.44 131.704 217.882 132.789 218.438 133.817L223.692 133.994L225.845 125.848L216.749 123.715L215.251 124.716Z" fill="#5B1314"/>
<path d="M255.9 149.788C255.9 149.788 253.862 146.223 248.258 140.11C242.655 133.997 228.573 134.29 228.573 134.29C221.623 132.543 213.111 157.938 213.111 157.938C211.073 152.845 197.32 144.695 197.32 144.695C189.17 145.204 180.51 148.77 175.926 152.335C171.342 155.9 160.135 177.294 160.135 177.294L162.68 189.519C172.868 185.954 178.471 190.539 178.471 190.539L180.508 187.992C183.565 186.464 185.093 178.314 185.093 178.314C186.032 185.824 185.241 198.525 185.11 200.472C185.108 200.505 185.113 200.538 185.124 200.57C185.135 200.601 185.153 200.629 185.175 200.653C185.198 200.678 185.225 200.697 185.255 200.71C185.285 200.724 185.318 200.731 185.351 200.731L210.053 202.513L260.484 203.272C276.783 195.632 259.531 153.868 259.531 153.868L255.9 149.788Z" fill="#F73C51"/>
<path d="M185.095 178.38C185.689 182.386 185.095 200.561 185.095 200.561L187.132 200.726C189.241 184.523 184.076 171.514 185.095 178.38Z" fill="#5B1314"/>
<path d="M239.111 168.993L239.576 168.785C237.604 164.349 240.068 157.33 240.094 157.259L239.613 157.088C239.509 157.384 237.055 164.369 239.111 168.993Z" fill="#BC293F"/>
<path d="M233.812 169.154L233.671 169.645L244.328 172.689L257.537 181.834L257.828 181.415L244.584 172.247L233.812 169.154Z" fill="#BC293F"/>
<path d="M183.069 167.439C183.087 167.495 184.853 173.092 184.972 174.796L185.48 174.76C185.356 172.996 183.628 167.518 183.554 167.285L183.069 167.439Z" fill="#BC293F"/>
<path d="M217.187 178.822L245.203 202.763L260.481 203.272C250.293 200.451 229.409 186.464 229.409 186.464L217.187 178.822Z" fill="#5B1314"/>
<path d="M218.714 162.492L221.261 164.05C221.261 164.05 221.77 163.542 221.77 161.504C220.676 161.523 219.612 161.867 218.714 162.492Z" fill="#5B1314"/>
<path d="M203.316 167.773C203.36 167.981 207.734 188.625 205.73 199.15L206.231 199.245C208.257 188.621 203.858 167.874 203.813 167.666L203.316 167.773Z" fill="#BC293F"/>
<path d="M210.446 169.301C210.491 169.509 214.866 190.154 212.861 200.677L213.361 200.773C215.387 190.149 210.99 169.403 210.945 169.195L210.446 169.301Z" fill="#BC293F"/>
<path d="M209.036 184.426C208.834 184.425 208.637 184.485 208.469 184.597C208.301 184.71 208.17 184.869 208.093 185.056C208.016 185.242 207.996 185.448 208.036 185.646C208.075 185.844 208.173 186.026 208.316 186.168C208.46 186.311 208.642 186.407 208.84 186.446C209.038 186.485 209.244 186.463 209.43 186.385C209.616 186.307 209.775 186.175 209.886 186.007C209.998 185.838 210.056 185.64 210.055 185.438C210.053 185.169 209.945 184.912 209.755 184.722C209.564 184.532 209.306 184.426 209.036 184.426Z" fill="#FFFEFF"/>
<path d="M209.546 196.651C209.345 196.651 209.149 196.71 208.983 196.821C208.816 196.933 208.686 197.091 208.61 197.276C208.533 197.461 208.513 197.665 208.552 197.861C208.591 198.058 208.688 198.238 208.829 198.38C208.971 198.521 209.152 198.618 209.348 198.657C209.544 198.696 209.748 198.676 209.933 198.599C210.118 198.523 210.276 198.393 210.388 198.226C210.499 198.06 210.558 197.864 210.558 197.663C210.557 197.395 210.449 197.139 210.26 196.949C210.07 196.76 209.814 196.652 209.546 196.651Z" fill="#FFFEFF"/>
<path d="M207.508 173.22C207.306 173.22 207.109 173.28 206.941 173.392C206.774 173.504 206.643 173.664 206.566 173.85C206.489 174.036 206.469 174.242 206.509 174.439C206.549 174.637 206.647 174.818 206.79 174.961C206.933 175.103 207.115 175.199 207.313 175.238C207.51 175.277 207.715 175.256 207.901 175.178C208.087 175.1 208.246 174.968 208.357 174.8C208.469 174.632 208.527 174.435 208.526 174.233C208.526 174.099 208.5 173.967 208.449 173.844C208.397 173.721 208.322 173.609 208.228 173.515C208.133 173.421 208.021 173.346 207.897 173.295C207.774 173.245 207.641 173.219 207.508 173.22Z" fill="#FFFEFF"/>
<path d="M229.968 135.785L229.875 136.286L237.994 137.806L245.798 140.26C244.241 140.535 241.956 141.106 241.83 141.136L241.744 141.158L241.69 141.228C241.542 141.42 238.059 145.973 239.613 150.634L240.096 150.473C238.729 146.372 241.615 142.194 242.042 141.609C242.639 141.462 246.093 140.62 246.986 140.62H248.646L238.118 137.313L229.968 135.785Z" fill="#BC293F"/>
<path d="M238.122 139.194C237.87 139.532 231.959 147.494 231.959 154.628C231.959 156.351 232.162 157.085 232.659 157.164C232.679 157.165 232.699 157.165 232.719 157.164C233.801 157.164 235.406 152.703 236.276 150.011L235.791 149.854C234.615 153.493 233.214 156.606 232.752 156.659C232.741 156.652 232.473 156.471 232.473 154.623C232.473 147.66 238.474 139.575 238.535 139.494L238.122 139.194Z" fill="#BC293F"/>
<path d="M216.167 178.314L218.714 174.747C218.714 174.747 214.942 172.319 213.772 171.242C213.775 171.244 213.111 176.277 216.167 178.314Z" fill="#5B1314"/>
<path d="M173.379 193.594L173.492 194.344C173.508 193.719 173.512 193.34 173.512 193.34L173.379 193.594Z" fill="#FF8B6E"/>
<path d="M178.472 190.029C170.918 186.132 162.266 189.259 162.266 189.259L163.193 196.141L165.28 205.819H167.104C168.099 205.819 168.287 194.613 168.287 194.613C168.287 194.613 168.797 205.819 169.816 205.819C170.834 205.819 172.362 205.309 172.362 205.309C173.187 204.072 173.43 196.996 173.488 194.344L173.375 193.594L173.507 193.34C173.507 193.34 173.507 193.719 173.487 194.344L174.986 204.373C177.615 205.982 178.475 203.683 178.475 203.683C178.475 201.039 177.462 194.613 177.462 194.613L181.027 199.706V203.781C181.537 205.309 182.555 204.291 182.555 204.291C184.084 202.763 184.56 199.866 184.56 199.866L182.038 195.122L178.472 190.029Z" fill="#FF8B6E"/>
<path d="M167.102 205.819C167.102 205.819 168.286 204.801 168.286 194.613L167.266 199.197L167.102 205.819Z" fill="#F15829"/>
<path d="M172.359 199.197V205.311C172.359 205.311 173.438 203.673 173.407 193.794L172.359 199.197Z" fill="#F15829"/>
<path d="M181.012 199.847C180.494 203.042 181.207 204.202 181.207 204.202L181.923 199.552L177.454 194.613L181.012 199.847Z" fill="#F15829"/>
<path d="M223.635 134.212L216.902 141.573L213.263 153.355H210.056L211.074 154.882L213.621 157.938L214.64 154.882L218.205 151.826L220.522 143.396L223.808 143.807L228.902 136.545L225.845 125.848L223.635 134.212Z" fill="#F7C5BC"/>
<path d="M171.85 180.86L180.011 188.615L180.509 187.991C181.529 187.991 182.613 185.665 182.613 185.665C179.62 187.922 171.85 180.86 171.85 180.86Z" fill="#5B1314"/>
<path d="M174.272 179.368L174.01 179.805C177.274 181.765 180.705 184.097 181.08 184.788C180.904 184.792 180.728 184.775 180.556 184.736C176.842 184.044 166.012 174.77 165.903 174.676L165.572 175.063C166.022 175.449 176.619 184.517 180.462 185.237C180.644 185.275 180.828 185.296 181.014 185.3C181.286 185.3 181.511 185.23 181.596 185.008C181.914 184.169 177.789 181.478 174.272 179.368Z" fill="#BC293F"/>
<path d="M247.935 192.409L257.576 196.881L257.789 196.42L245.818 190.866L245.562 191.303C249.124 193.9 254.115 197.597 256.336 199.372C252.566 197.465 241.946 191.607 234.547 187.468L234.298 187.911C234.357 187.944 240.113 191.162 245.828 194.302C255.594 199.667 257.308 200.492 257.726 200.492C257.755 200.493 257.784 200.488 257.809 200.475C257.835 200.463 257.858 200.445 257.875 200.422L258.006 200.247L257.893 200.081C257.496 199.478 251.322 194.897 247.935 192.409Z" fill="#BC293F"/>
<path d="M216.167 178.314L225.621 186.029L232.978 168.635C232.978 168.635 222.791 161.504 221.771 161.504C221.765 161.504 220.243 173.219 216.167 178.314Z" fill="#F7C5BC"/>
<path d="M180.001 145.205C178.788 145.361 175.956 145.001 175.926 146.223C175.827 150.183 175.926 158.957 178.472 162.522C178.631 162.747 179.651 163.621 179.904 163.721C181.197 164.238 185.439 165.614 191.35 164.268C191.96 164.129 192.888 163.03 193.245 162.522C193.727 161.83 193.97 161.442 194.263 159.975C194.939 156.626 193.755 146.223 193.755 145.713C193.755 145.29 184.859 144.579 180.001 145.205Z" fill="#FFFEFF"/>
<path d="M184.586 144.185C179.662 144.185 175.926 144.871 175.926 145.713C175.926 146.556 179.917 147.242 184.84 147.242C189.764 147.242 193.755 146.557 193.755 145.713C193.755 144.869 189.509 144.185 184.586 144.185Z" fill="#5B1314"/>
<path d="M176.457 134.909C177.521 134.308 178.708 133.909 179.911 133.596L179.9 133.54C178.676 133.779 177.462 134.103 176.317 134.652C175.769 134.951 175.175 135.284 174.854 135.934C174.779 136.101 174.741 136.282 174.741 136.465C174.741 136.648 174.779 136.829 174.854 136.996C174.996 137.308 175.201 137.587 175.457 137.814C176.37 138.666 177.258 139.526 177.949 140.484C178.299 140.956 178.531 141.497 178.465 142.031C178.37 142.565 177.941 143.044 177.458 143.429L177.489 143.478C178.052 143.229 178.629 142.814 178.861 142.128C179.053 141.423 178.767 140.717 178.436 140.17C177.731 139.06 176.712 138.269 175.771 137.474C175.329 137.104 174.992 136.585 175.209 136.087C175.426 135.588 175.943 135.211 176.457 134.909Z" fill="black"/>
<path d="M180.945 135.649C181.813 135.15 182.792 134.815 183.776 134.552L183.764 134.495C182.751 134.686 181.754 134.946 180.806 135.396C180.356 135.643 179.856 135.913 179.582 136.462C179.518 136.603 179.484 136.756 179.483 136.911C179.482 137.066 179.513 137.22 179.575 137.362C179.693 137.624 179.864 137.858 180.078 138.051C180.827 138.756 181.541 139.47 182.113 140.245C182.394 140.632 182.585 141.057 182.546 141.483C182.48 141.91 182.14 142.309 181.75 142.638L181.781 142.687C182.255 142.494 182.738 142.158 182.941 141.578C183.114 140.982 182.88 140.38 182.603 139.928C182.022 139.003 181.171 138.352 180.395 137.708C180.033 137.406 179.767 137.002 179.933 136.61C180.098 136.218 180.525 135.899 180.945 135.649Z" fill="black"/>
<path d="M185.29 135.71C186.158 135.211 187.137 134.876 188.121 134.613L188.109 134.556C187.096 134.746 186.098 135.006 185.152 135.457C184.696 135.704 184.201 135.974 183.927 136.522C183.863 136.663 183.829 136.817 183.828 136.972C183.827 137.127 183.858 137.281 183.92 137.423C184.039 137.684 184.21 137.919 184.422 138.111C185.172 138.817 185.885 139.53 186.458 140.306C186.74 140.693 186.931 141.116 186.892 141.544C186.825 141.97 186.485 142.37 186.095 142.698L186.126 142.748C186.6 142.554 187.084 142.219 187.287 141.637C187.46 141.043 187.225 140.441 186.949 139.989C186.366 139.062 185.516 138.413 184.741 137.769C184.377 137.467 184.112 137.063 184.278 136.671C184.445 136.279 184.87 135.959 185.29 135.71Z" fill="black"/>
<path d="M192.735 154.883C192.628 154.94 192.53 155.013 192.445 155.1L192.735 155.392V154.883Z" fill="#FF8B6E"/>
<path d="M213.621 157.938C213.258 157.53 212.944 157.081 212.686 156.599C211.713 154.845 209.4 151.67 207.123 150.255L197.32 143.672C197.32 143.672 193.753 143.162 193.753 146.727C193.753 146.727 191.206 147.747 192.226 150.804C192.226 150.804 190.698 152.84 192.226 154.879L192.444 155.096C192.529 155.008 192.627 154.935 192.735 154.879V155.387L192.444 155.096C191.898 155.642 191.582 156.8 191.728 157.475C191.953 158.547 192.74 159.462 193.245 159.972C193.245 159.972 193.245 162.009 195.282 163.537C195.282 163.537 197.829 164.55 199.357 164.55C200.885 164.55 205.47 166.587 205.47 166.587L210.564 169.135L218.714 175.247C218.714 175.247 221.261 167.607 221.261 164.04C221.261 164.05 214.87 160.485 213.621 157.938Z" fill="#FF8B6E"/>
</svg>
