<svg width="422" height="278" viewBox="0 0 422 278" fill="none" xmlns="http://www.w3.org/2000/svg">
<g clip-path="url(#clip0_27_851)">
<path d="M398.724 278.814C401.428 277.535 402.849 276.209 402.849 274.85C402.849 264.342 317.933 255.825 213.184 255.825C108.435 255.825 23.5178 264.342 23.5178 274.85C23.5178 276.14 24.7989 277.399 27.2379 278.614C11.7642 281.742 3 285.304 3 289.096C3 301.483 96.796 311.524 212.5 311.524C328.204 311.524 422 301.483 422 289.096C422 285.388 413.599 281.892 398.724 278.814Z" fill="#E4E4F4"/>
<path d="M365.72 273.122C365.116 267.993 300.311 263.847 220.453 263.847C151.669 263.847 94.0512 266.923 79.0085 271.053C74.5524 270.524 68.7672 270.204 62.4445 270.204C48.3623 270.204 36.9463 271.791 36.9463 273.745C36.9463 275.7 48.3623 277.288 62.4445 277.288C70.2768 277.288 77.2835 276.797 81.9602 276.025C89.3472 277.523 102.438 278.857 119.592 279.919C113.99 281.413 110.746 283.183 110.746 285.08C110.746 290.424 136.461 294.756 168.184 294.756C199.906 294.756 225.62 290.424 225.62 285.08C225.62 284.2 224.922 283.348 223.615 282.537C236.689 282.52 249.338 282.39 261.342 282.164C255.371 283.852 251.816 285.982 251.816 288.294C251.816 293.788 271.908 298.242 296.695 298.242C315.458 298.242 331.53 295.69 338.232 292.064C342.711 292.397 347.503 292.584 352.488 292.584C377.273 292.584 397.367 288.13 397.367 282.635C397.368 278.157 384.048 274.374 365.72 273.122Z" fill="#AEAECE"/>
<path d="M107.588 118.509C104.574 118.421 101.824 120.326 99.9029 122.652C97.9818 124.978 96.6695 127.734 94.9626 130.217C94.372 131.078 93.7074 131.927 92.8014 132.442C91.6332 133.107 90.2223 133.13 88.9074 133.417C87.3401 133.776 85.8852 134.515 84.6712 135.569C83.4571 136.623 82.5212 137.96 81.9461 139.462C79.8991 144.968 82.917 152.021 79.1774 156.553C78.1312 157.821 76.6813 158.68 75.4482 159.768C72.4485 162.411 70.8286 166.345 70.2458 170.299C69.663 174.252 70.0225 178.28 70.4106 182.259C70.794 186.189 71.205 190.115 71.6437 194.038C71.9111 196.428 72.873 199.478 75.2782 199.503C76.2803 199.513 77.1824 198.932 78.004 198.358C84.1033 194.103 89.6397 189.093 94.4811 183.448C98.4621 178.806 102.122 172.479 99.6601 166.882C99.0825 165.57 98.1661 164.25 98.4335 162.842C98.5919 162.002 99.1565 161.301 99.7315 160.674C102.268 157.948 105.512 155.9 107.779 152.945C110.047 149.991 111.088 145.53 108.735 142.642C107.675 141.344 105.913 140.099 106.341 138.478C106.521 137.795 107.071 137.286 107.57 136.79C111.402 132.985 118.233 118.814 107.588 118.509Z" fill="#228E96"/>
<path d="M107.807 126.557C90.197 149.642 79.1003 177.439 73.8368 205.89C73.5889 207.3 73.1164 210.205 72.9048 211.625C72.8788 211.714 72.8217 211.791 72.7437 211.842C72.6657 211.893 72.572 211.914 72.4797 211.902C72.3874 211.89 72.3026 211.845 72.2405 211.775C72.1785 211.706 72.1434 211.617 72.1416 211.523C72.3155 210.067 72.7192 207.184 72.949 205.741C76.3969 184.543 83.5687 164.122 94.1326 145.423C97.9968 138.662 102.331 132.155 107.256 126.118C107.316 126.051 107.399 126.009 107.489 126.002C107.578 125.994 107.668 126.021 107.738 126.077C107.808 126.133 107.855 126.214 107.868 126.303C107.88 126.392 107.859 126.483 107.807 126.557Z" fill="#115E60"/>
<path d="M92.2375 151.381C92.0866 151.38 91.9414 151.324 91.8291 151.223C91.7168 151.122 91.645 150.984 91.6273 150.834C91.6096 150.685 91.6472 150.534 91.733 150.409C91.8188 150.285 91.947 150.197 92.0934 150.161L105.372 146.983C105.531 146.945 105.7 146.972 105.839 147.057C105.979 147.143 106.079 147.281 106.117 147.44C106.155 147.6 106.129 147.768 106.043 147.907C105.957 148.047 105.82 148.147 105.66 148.185L92.3815 151.364C92.3344 151.375 92.286 151.381 92.2375 151.381Z" fill="#115E60"/>
<path d="M87.7133 158.732C87.5853 158.732 87.4606 158.692 87.3562 158.618C87.2518 158.544 87.1729 158.44 87.1304 158.319C85.6292 154.072 84.4661 149.713 83.6518 145.283C83.6371 145.203 83.6383 145.121 83.6553 145.042C83.6723 144.963 83.7048 144.887 83.7509 144.821C83.797 144.754 83.8559 144.697 83.924 144.653C83.9922 144.608 84.0684 144.578 84.1483 144.564C84.2281 144.549 84.3101 144.55 84.3895 144.567C84.4689 144.584 84.5441 144.617 84.611 144.663C84.6778 144.709 84.7349 144.768 84.779 144.836C84.8231 144.904 84.8533 144.98 84.868 145.06C85.6703 149.427 86.8165 153.724 88.2961 157.91C88.3232 157.987 88.335 158.068 88.3308 158.149C88.3266 158.23 88.3064 158.31 88.2715 158.383C88.2365 158.456 88.1874 158.522 88.1271 158.576C88.0667 158.631 87.9962 158.672 87.9196 158.7C87.8532 158.722 87.7834 158.733 87.7133 158.732Z" fill="#115E60"/>
<path d="M80.3057 177.607C80.2034 177.608 80.1024 177.584 80.0117 177.536C79.9211 177.488 79.8437 177.419 79.7865 177.334C77.8398 174.457 76.146 171.417 74.7243 168.248C74.6876 168.173 74.6664 168.092 74.6618 168.009C74.6573 167.926 74.6695 167.843 74.6977 167.765C74.7259 167.687 74.7696 167.615 74.8261 167.554C74.8827 167.493 74.9509 167.444 75.0268 167.41C75.1026 167.376 75.1846 167.358 75.2677 167.356C75.3508 167.354 75.4334 167.37 75.5106 167.4C75.5877 167.431 75.6579 167.478 75.7168 167.536C75.7757 167.595 75.8222 167.665 75.8536 167.742C77.2452 170.846 78.9038 173.823 80.8107 176.64C80.8735 176.733 80.9099 176.841 80.9159 176.953C80.9219 177.065 80.8973 177.177 80.8448 177.276C80.7922 177.375 80.7137 177.458 80.6176 177.516C80.5216 177.574 80.4115 177.605 80.2993 177.605L80.3057 177.607Z" fill="#115E60"/>
<path d="M65.1944 96.8542C62.3024 98.6818 60.846 102.079 59.8362 105.346C58.8263 108.613 58.041 112.076 55.9214 114.759C53.8445 117.382 50.7293 118.963 48.411 121.379C43.4591 126.536 43.0281 134.846 45.6852 141.483C47.2986 145.507 49.9596 149.623 48.8692 153.814C48.4461 155.442 47.4868 156.867 46.7703 158.387C44.7519 162.679 44.726 167.713 45.9136 172.305C47.1013 176.898 49.4183 181.114 51.9689 185.114C53.2007 187.05 54.6454 189.069 56.8209 189.796C60.393 190.99 63.9976 188.216 66.5742 185.469C70.4267 181.359 73.882 176.772 75.9342 171.524C77.9864 166.276 78.5445 160.307 76.6507 155.003C76.0588 153.344 75.2333 151.758 74.9179 150.022C73.8133 143.953 79.126 138.414 79.2208 132.239C79.3285 125.307 72.8605 119.327 73.6977 112.443C74.0054 109.917 75.2865 107.612 75.833 105.126C77.1063 99.3451 70.7395 93.3483 65.1944 96.8542Z" fill="#59C7D2"/>
<path d="M68.0533 104.92C62.7626 126.706 61.0868 149.216 60.2236 171.563C60.1185 174.861 60.0523 178.343 60.0328 181.647C59.9511 191.723 60.1938 201.825 61.192 211.854C61.1894 211.947 61.1531 212.037 61.0898 212.106C61.0264 212.175 60.9404 212.219 60.8473 212.23C60.7542 212.24 60.6604 212.217 60.583 212.164C60.5057 212.111 60.45 212.032 60.4261 211.942C60.3093 210.896 60.1406 209.605 60.0367 208.588C59.8693 206.99 59.7174 205.162 59.5876 203.546C58.8088 192.903 58.7128 182.191 59.0165 171.528C59.8161 149.102 61.5956 126.497 67.3666 104.736C67.3787 104.691 67.3995 104.65 67.4278 104.613C67.4561 104.576 67.4913 104.546 67.5314 104.523C67.5715 104.5 67.6158 104.485 67.6617 104.479C67.7076 104.473 67.7542 104.476 67.7989 104.488C67.8435 104.5 67.8854 104.521 67.922 104.549C67.9586 104.578 67.9893 104.613 68.0124 104.653C68.0354 104.693 68.0503 104.737 68.0562 104.783C68.0621 104.829 68.0589 104.876 68.0468 104.92H68.0533Z" fill="#228E96"/>
<path d="M62.1491 138.746C62.0189 138.746 61.892 138.705 61.7865 138.628C61.6811 138.552 61.6026 138.444 61.562 138.32C61.5215 138.196 61.521 138.063 61.5607 137.939C61.6004 137.814 61.6782 137.706 61.7831 137.629L66.6688 134.06C68.9715 132.373 71.3521 130.639 73.7807 129.041C73.9184 128.951 74.0863 128.919 74.2474 128.953C74.4086 128.986 74.5498 129.082 74.64 129.22C74.7302 129.358 74.762 129.526 74.7284 129.687C74.6948 129.848 74.5985 129.989 74.4608 130.079C72.0569 131.66 69.6893 133.391 67.3983 135.064L62.5126 138.633C62.4066 138.709 62.2792 138.748 62.1491 138.746Z" fill="#228E96"/>
<path d="M60.4045 151.072C60.3166 151.073 60.2297 151.054 60.1495 151.018C60.0694 150.982 59.9979 150.929 59.9398 150.864C56.1106 146.515 52.3542 141.999 48.7768 137.443C48.7266 137.379 48.6895 137.306 48.6675 137.228C48.6456 137.15 48.6393 137.068 48.6489 136.988C48.6586 136.907 48.684 136.829 48.7237 136.758C48.7635 136.687 48.8168 136.625 48.8807 136.575C48.9445 136.525 49.0176 136.488 49.0958 136.466C49.174 136.444 49.2557 136.437 49.3364 136.447C49.417 136.457 49.495 136.482 49.5658 136.522C49.6366 136.562 49.6988 136.615 49.749 136.679C53.316 141.222 57.0569 145.714 60.8705 150.048C60.9492 150.138 61.0005 150.248 61.0182 150.365C61.0359 150.483 61.0193 150.603 60.9704 150.711C60.9215 150.82 60.8423 150.912 60.7424 150.976C60.6424 151.041 60.526 151.075 60.4071 151.075L60.4045 151.072Z" fill="#228E96"/>
<path d="M59.8401 172.536C59.7068 172.537 59.577 172.494 59.47 172.415C59.3629 172.336 59.2843 172.224 59.2459 172.097C59.2075 171.969 59.2114 171.833 59.257 171.707C59.3025 171.582 59.3873 171.475 59.4987 171.402C63.5191 168.746 67.2474 165.672 70.6214 162.231C70.7378 162.122 70.8921 162.061 71.052 162.063C71.2119 162.065 71.365 162.128 71.4792 162.24C71.5935 162.352 71.66 162.503 71.6649 162.663C71.6697 162.823 71.6126 162.979 71.5053 163.097C68.0697 166.6 64.2741 169.73 60.1814 172.435C60.0799 172.501 59.9613 172.537 59.8401 172.536Z" fill="#228E96"/>
<path d="M58.8047 180.797C58.5184 180.789 58.2412 180.695 58.009 180.527L50.2209 174.945C50.0959 174.847 50.0138 174.703 49.9916 174.546C49.9695 174.388 50.009 174.228 50.1019 174.098C50.1948 173.969 50.3341 173.88 50.4907 173.851C50.6472 173.822 50.8091 173.854 50.9426 173.941L58.6931 179.5C58.7957 179.431 58.9166 179.395 59.0401 179.396C59.1636 179.397 59.2841 179.434 59.3859 179.504C59.4878 179.574 59.5664 179.673 59.6115 179.788C59.6567 179.903 59.6664 180.029 59.6393 180.149C59.6121 180.282 59.5516 180.406 59.4635 180.509C59.3755 180.612 59.2627 180.691 59.1357 180.738C59.0298 180.778 58.9177 180.798 58.8047 180.797Z" fill="#228E96"/>
<path d="M21.5684 119.958C24.4384 120.016 26.9643 121.959 28.6829 124.258C30.4015 126.557 31.519 129.241 33.026 131.683C33.5452 132.528 34.1384 133.37 34.9731 133.9C36.0543 134.585 37.3926 134.679 38.6283 135.008C40.1018 135.423 41.4505 136.194 42.5557 137.253C43.6608 138.312 44.4883 139.627 44.9652 141.082C46.6526 146.414 43.4543 152.979 46.7967 157.464C47.7326 158.718 49.0708 159.603 50.1936 160.695C52.9195 163.349 54.2772 167.164 54.6458 170.949C55.0145 174.734 54.4849 178.548 53.9293 182.313C53.3815 186.034 52.807 189.749 52.2055 193.457C51.8395 195.715 50.7777 198.571 48.4958 198.483C47.5418 198.445 46.7123 197.85 45.9569 197.266C40.357 192.934 35.3272 187.911 30.9869 182.317C27.4199 177.716 24.2372 171.529 26.8332 166.322C27.4433 165.101 28.3765 163.889 28.1896 162.538C28.0767 161.732 27.5744 161.039 27.05 160.416C24.7655 157.703 21.7774 155.605 19.759 152.69C17.7406 149.774 16.9605 145.483 19.3333 142.847C20.4015 141.661 22.1357 140.562 21.7995 139C21.6606 138.343 21.1622 137.831 20.7092 137.337C17.2642 133.551 11.4335 119.757 21.5684 119.958Z" fill="#C2EBEE"/>
<path d="M21.541 127.206C37.6481 149.332 47.3716 177.439 50.4414 204.531C50.5893 205.893 50.8412 208.698 50.9359 210.069C50.9304 210.162 50.8913 210.251 50.8258 210.318C50.7603 210.385 50.6728 210.426 50.5793 210.434C50.4858 210.442 50.3927 210.415 50.3171 210.36C50.2414 210.304 50.1883 210.224 50.1675 210.132C50.0299 208.751 49.7197 206.011 49.547 204.636C47.3864 188.173 43.0716 172.065 36.7135 156.727C32.4535 146.532 27.2822 136.696 20.9673 127.617C20.9146 127.541 20.8939 127.447 20.9097 127.356C20.9255 127.265 20.9766 127.183 21.0518 127.129C21.1271 127.075 21.2206 127.053 21.3121 127.067C21.4036 127.082 21.4858 127.131 21.541 127.206Z" fill="#228E96"/>
<path d="M35.0805 151.367C36.1345 149.34 37.4052 147.433 38.3826 145.376C39.1536 143.775 39.7936 142.131 40.5308 140.511C40.5735 140.428 40.6445 140.363 40.7309 140.328C40.8173 140.293 40.9134 140.29 41.0016 140.32C41.0899 140.35 41.1646 140.411 41.212 140.491C41.2595 140.571 41.2766 140.665 41.2603 140.757C41.0255 141.765 40.733 142.759 40.3842 143.734C39.6893 145.706 38.7244 147.573 37.5168 149.281C36.9236 150.13 36.3175 150.949 35.6711 151.748C35.6169 151.82 35.5372 151.869 35.4483 151.884C35.3594 151.9 35.2679 151.88 35.1925 151.831C35.1171 151.781 35.0636 151.704 35.0428 151.617C35.0219 151.529 35.0354 151.436 35.0805 151.358V151.367Z" fill="#228E96"/>
<path d="M36.5632 156.301C32.747 155.38 29.0204 154.117 25.3743 152.666C24.1606 152.178 22.9574 151.663 21.7788 151.092C21.6975 151.045 21.6356 150.971 21.6044 150.883C21.5732 150.795 21.5747 150.699 21.6087 150.611C21.6427 150.524 21.707 150.452 21.7897 150.409C21.8724 150.365 21.968 150.353 22.0591 150.374C25.7728 151.524 29.4773 152.883 33.1273 154.219C34.3488 154.672 35.5689 155.127 36.7774 155.624C36.8586 155.659 36.9241 155.722 36.961 155.803C36.9978 155.883 37.0034 155.974 36.9766 156.058C36.9498 156.142 36.8926 156.213 36.8161 156.257C36.7396 156.302 36.6494 156.316 36.5632 156.297V156.301Z" fill="#228E96"/>
<path d="M45.0134 178.729C45.8675 176.604 46.7735 174.517 47.6314 172.398C48.2986 170.758 48.9502 169.095 49.6499 167.465C49.6913 167.382 49.7611 167.316 49.8467 167.28C49.9324 167.244 50.0281 167.239 50.1167 167.268C50.2053 167.296 50.2809 167.355 50.3298 167.434C50.3787 167.513 50.3976 167.607 50.3833 167.699C50.1655 168.708 49.8921 169.705 49.5642 170.684C48.9169 172.641 48.1193 174.546 47.1784 176.38C46.7132 177.299 46.1998 178.194 45.6403 179.059C45.5913 179.131 45.5177 179.182 45.4336 179.203C45.3494 179.224 45.2604 179.214 45.1834 179.174C45.1063 179.134 45.0465 179.067 45.0152 178.986C44.9839 178.905 44.9832 178.816 45.0134 178.735V178.729Z" fill="#228E96"/>
<path d="M45.8894 184.998C42.3847 183.144 39.0956 180.879 36.0141 178.379C34.9899 177.541 33.9931 176.67 33.0442 175.746C32.9819 175.677 32.9468 175.587 32.9451 175.493C32.9435 175.4 32.9755 175.309 33.0353 175.237C33.0951 175.166 33.1788 175.118 33.2709 175.102C33.3631 175.087 33.4577 175.106 33.5375 175.154C35.635 176.65 37.8001 178.28 39.886 179.792C42.0018 181.343 44.1461 182.842 46.2619 184.399C46.3311 184.453 46.3778 184.53 46.3932 184.616C46.4086 184.702 46.3915 184.791 46.3452 184.866C46.2989 184.94 46.2267 184.995 46.1425 185.019C46.0583 185.043 45.9682 185.035 45.8894 184.997V184.998Z" fill="#228E96"/>
<path d="M84.6698 214.734H84.6523C84.6581 214.735 84.664 214.735 84.6698 214.734Z" fill="#C7C365"/>
<path d="M39.6758 214.734L45.4624 271.773C56.3753 274.251 67.7029 274.27 78.6241 271.829L78.8668 271.773L84.0381 221.35L84.6521 214.73L39.6758 214.734Z" fill="#2794D7"/>
<path d="M39.6758 214.734L45.4624 271.773C48.118 272.377 50.8045 272.835 53.5101 273.147C44.3383 199.613 84.0316 221.35 84.0316 221.35L84.6456 214.73L39.6758 214.734Z" fill="#157FBB"/>
<path d="M36.7646 203.493V211.773C36.7646 212.558 37.0766 213.311 37.6318 213.866C38.1871 214.421 38.9402 214.733 39.7254 214.733L55.9506 215.349C60.0853 215.504 64.222 215.504 68.361 215.349L84.5979 214.733C84.9867 214.734 85.3718 214.657 85.7311 214.508C86.0904 214.36 86.4169 214.142 86.6919 213.867C86.9668 213.592 87.1849 213.265 87.3336 212.906C87.4824 212.547 87.5588 212.161 87.5587 211.773V203.493C87.5588 203.104 87.4824 202.719 87.3336 202.359C87.1849 202 86.9668 201.674 86.6919 201.399C86.4169 201.124 86.0904 200.906 85.7311 200.757C85.3718 200.608 84.9867 200.532 84.5979 200.532L68.2338 201.147C64.0983 201.303 59.9611 201.303 55.8221 201.147L39.7267 200.534C38.9417 200.534 38.1887 200.845 37.6332 201.4C37.0778 201.955 36.7653 202.707 36.7646 203.493Z" fill="#E2902A"/>
<path d="M36.7646 203.493V207.879C36.7646 208.664 37.0766 209.417 37.6318 209.972C38.1871 210.527 38.9402 210.839 39.7254 210.839L55.9506 211.453C60.0853 211.611 64.222 211.611 68.361 211.453L84.5979 210.839C85.3831 210.839 86.1362 210.527 86.6915 209.972C87.2467 209.417 87.5587 208.664 87.5587 207.879V203.493C87.5588 203.104 87.4824 202.719 87.3336 202.359C87.1849 202 86.9668 201.674 86.6919 201.399C86.4169 201.124 86.0904 200.906 85.7311 200.757C85.3718 200.608 84.9867 200.532 84.5979 200.532L68.2338 201.147C64.0983 201.303 59.9611 201.303 55.8221 201.147L39.7267 200.534C38.9417 200.534 38.1887 200.845 37.6332 201.4C37.0778 201.955 36.7653 202.707 36.7646 203.493Z" fill="#FAB243"/>
<path d="M332.082 271.863H178.362C176.474 271.863 174.664 271.114 173.329 269.779C171.995 268.444 171.245 266.634 171.245 264.746V157.08H339.208V264.746C339.208 265.682 339.024 266.608 338.666 267.472C338.307 268.336 337.782 269.121 337.121 269.782C336.459 270.443 335.673 270.967 334.809 271.324C333.944 271.681 333.018 271.865 332.082 271.863Z" fill="#59C7D2"/>
<path d="M348.012 147.89H167.886C165.418 147.89 163.417 149.89 163.417 152.359V152.36C163.417 154.828 165.418 156.829 167.886 156.829H348.012C350.48 156.829 352.481 154.828 352.481 152.36V152.359C352.481 149.89 350.48 147.89 348.012 147.89Z" fill="#D7274D"/>
<path d="M269.884 147.89H89.7581C87.2899 147.89 85.2891 149.89 85.2891 152.359V152.36C85.2891 154.828 87.2899 156.829 89.7581 156.829H269.884C272.352 156.829 274.353 154.828 274.353 152.36V152.359C274.353 149.89 272.352 147.89 269.884 147.89Z" fill="#FF4A66"/>
<path d="M255.782 271.613H102.057C100.17 271.613 98.3597 270.863 97.025 269.528C95.6903 268.194 94.9404 266.383 94.9404 264.496V156.829H262.904V264.496C262.904 265.431 262.72 266.357 262.362 267.221C262.004 268.084 261.479 268.869 260.817 269.53C260.156 270.191 259.371 270.715 258.507 271.073C257.643 271.43 256.717 271.614 255.782 271.613Z" fill="#C2EBEE"/>
<path d="M285.092 133.791C284.668 133.001 284.084 132.308 283.378 131.756C282.672 131.203 281.859 130.804 280.99 130.582C280.121 130.361 279.216 130.323 278.332 130.47C277.447 130.617 276.603 130.946 275.853 131.436C276.277 132.226 276.861 132.919 277.567 133.471C278.273 134.024 279.086 134.423 279.955 134.645C280.824 134.866 281.729 134.905 282.613 134.758C283.497 134.611 284.342 134.281 285.092 133.791Z" fill="#B3CE25"/>
<path d="M277.207 142.971C278.465 146.288 281.722 148.21 284.865 147.688C288.007 148.217 291.276 146.288 292.534 142.971C293.953 139.232 292.293 135.129 288.826 133.812C286.191 133.585 283.542 133.585 280.908 133.812C277.441 135.123 275.787 139.232 277.207 142.971Z" fill="#FF4A66"/>
<path d="M277.207 142.971C278.465 146.288 281.721 148.21 284.865 147.688C287.25 148.092 289.712 147.069 291.31 145.102C290.706 145.555 290.029 145.901 289.308 146.125C287.595 146.529 285.155 145.394 283.687 144.744C281.816 143.845 279.533 144.417 278.637 142.138C277.908 140.34 278.043 138.065 279.207 136.413C279.941 135.375 280.465 135.257 281.366 134.378C281.635 134.119 282.729 133.701 282.552 133.427C281.99 133.482 281.438 133.613 280.912 133.816C277.441 135.123 275.787 139.231 277.207 142.971Z" fill="#D7274D"/>
<path d="M283.405 129.672C284.183 130.649 285.313 132.254 284.523 133.506C284.099 134.18 284.769 134.585 285.191 133.915C286.317 132.128 285.426 130.207 284.238 128.71C283.87 128.246 283.092 129.279 283.405 129.672Z" fill="#442A19"/>
<path d="M288.647 138.628C289.348 140.087 290.524 140.977 291.274 140.618C292.025 140.258 292.064 138.782 291.361 137.322C290.659 135.862 289.486 134.973 288.735 135.334C287.985 135.694 287.945 137.173 288.647 138.628Z" fill="#F9837D"/>
<path d="M273.898 122.341H238.462C236.579 122.341 235.054 120.244 235.054 117.668C235.054 116.39 235.431 115.202 236.118 114.293C236.75 113.461 237.582 112.995 238.462 112.995H273.898C273.562 113.244 273.264 113.54 273.012 113.874C272.27 114.843 271.81 116.183 271.81 117.66C271.802 119.677 272.646 121.426 273.898 122.341Z" fill="white"/>
<path d="M275.78 122.341L275.847 123.7C275.77 123.711 275.692 123.716 275.615 123.714H238.455C237.664 123.709 236.891 123.47 236.235 123.027C235.941 122.825 235.667 122.595 235.418 122.341C234.353 121.227 233.672 119.543 233.672 117.668C233.672 116.088 234.147 114.597 235.019 113.462C235.141 113.299 235.274 113.146 235.418 113.003C235.663 112.739 235.94 112.508 236.243 112.315C236.895 111.873 237.663 111.635 238.45 111.628H275.612C275.69 111.626 275.768 111.63 275.844 111.641L275.777 113.003H238.455C237.575 113.003 236.743 113.462 236.111 114.301C235.424 115.201 235.046 116.397 235.046 117.675C235.046 120.253 236.572 122.348 238.455 122.348L275.78 122.341Z" fill="#DD8317"/>
<path d="M236.23 123.028C236.885 123.471 237.658 123.71 238.449 123.714H226.507C223.869 123.714 221.718 121 221.718 117.667C221.718 114.333 223.874 111.63 226.51 111.63H238.452C237.665 111.636 236.897 111.875 236.245 112.316C235.942 112.51 235.664 112.741 235.42 113.004C235.276 113.148 235.143 113.301 235.021 113.464C234.149 114.598 233.674 116.09 233.674 117.669C233.674 119.546 234.355 121.23 235.42 122.342C235.667 122.596 235.938 122.826 236.23 123.028Z" fill="#FAB243"/>
<path d="M276.809 134.428H241.489C239.606 134.428 238.079 132.332 238.079 129.755C238.079 128.478 238.458 127.281 239.145 126.38C239.777 125.55 240.608 125.082 241.489 125.082H276.795C276.459 125.331 276.16 125.628 275.908 125.962C275.166 126.938 274.707 128.272 274.707 129.755C274.713 131.768 275.558 133.514 276.809 134.428Z" fill="white"/>
<path d="M278.751 134.428L278.738 135.803H241.494C240.702 135.797 239.93 135.558 239.273 135.115C238.979 134.913 238.706 134.683 238.457 134.428C237.391 133.322 236.71 131.639 236.71 129.755C236.71 128.182 237.185 126.683 238.052 125.543C238.175 125.381 238.308 125.227 238.45 125.082C238.697 124.819 238.977 124.589 239.281 124.396C239.935 123.952 240.705 123.713 241.494 123.708H278.738L278.751 125.082H241.498C240.617 125.082 239.786 125.543 239.154 126.38C238.467 127.289 238.088 128.484 238.088 129.755C238.088 132.325 239.615 134.428 241.498 134.428H278.751Z" fill="#59C7D2"/>
<path d="M239.266 135.114C239.922 135.558 240.695 135.797 241.487 135.802H219.244C216.604 135.802 214.454 133.095 214.454 129.761C214.454 126.428 216.604 123.714 219.244 123.714H241.489C240.7 123.719 239.93 123.959 239.276 124.402C238.972 124.595 238.693 124.826 238.446 125.089C238.303 125.234 238.17 125.388 238.047 125.549C237.18 126.689 236.705 128.188 236.705 129.761C236.705 131.638 237.386 133.322 238.452 134.434C238.7 134.687 238.973 134.915 239.266 135.114Z" fill="#99DDE3"/>
<path d="M233.116 122.341H230.992C230.105 120.944 229.634 119.323 229.634 117.668C229.634 116.013 230.105 114.392 230.992 112.995H233.116C232.225 114.39 231.751 116.012 231.751 117.668C231.751 119.324 232.225 120.945 233.116 122.341Z" fill="white"/>
<path d="M229.189 122.341H225.713C225.706 122.333 225.706 122.326 225.697 122.319C224.529 121.507 223.75 119.982 223.75 117.671C223.75 115.387 224.673 113.927 225.689 113.021C225.689 113.021 225.689 113.008 225.705 113H229.181C228.301 114.306 227.821 115.949 227.821 117.673C227.808 119.33 228.284 120.953 229.189 122.341Z" fill="white"/>
<path d="M225.35 134.433H219.977C218.12 134.433 216.562 132.297 216.562 129.76C216.562 127.224 218.119 125.087 219.977 125.087H225.344C224.458 126.485 223.988 128.106 223.989 129.761C223.991 131.416 224.463 133.037 225.352 134.433H225.35Z" fill="white"/>
<path d="M235.054 134.433H230.244C229.356 133.036 228.885 131.415 228.885 129.76C228.885 128.105 229.356 126.484 230.244 125.087H235.054C234.167 126.484 233.695 128.105 233.695 129.76C233.695 131.415 234.167 133.036 235.054 134.433Z" fill="white"/>
<path d="M273.909 113.003C273.575 113.254 273.277 113.55 273.024 113.883C272.359 114.777 271.955 115.839 271.856 116.949L251.866 122.343H238.478C236.598 122.343 235.071 120.247 235.071 117.67C235.071 116.392 235.449 115.196 236.137 114.296C236.769 113.464 237.6 112.998 238.473 112.998L273.909 113.003Z" fill="#DCDFE5"/>
<path d="M277.095 125.088C276.758 125.337 276.459 125.633 276.209 125.969C275.539 126.879 275.135 127.957 275.041 129.084L255.099 134.423H241.783C239.899 134.423 238.373 132.326 238.373 129.75C238.373 128.471 238.752 127.276 239.438 126.375C240.071 125.543 240.901 125.077 241.783 125.077L277.095 125.088Z" fill="#DCDFE5"/>
<path d="M276.809 146.516H241.489C239.606 146.516 238.079 144.42 238.079 141.843C238.079 140.565 238.458 139.369 239.145 138.468C239.777 137.636 240.608 137.17 241.489 137.17H276.795C276.459 137.42 276.16 137.716 275.908 138.05C275.166 139.025 274.707 140.358 274.707 141.843C274.713 143.855 275.558 145.601 276.809 146.516Z" fill="white"/>
<path d="M278.751 146.516L278.738 147.889H241.494C240.702 147.885 239.93 147.646 239.273 147.203C238.98 147.001 238.706 146.771 238.457 146.516C237.391 145.409 236.71 143.725 236.71 141.843C236.71 140.269 237.185 138.771 238.052 137.63C238.175 137.468 238.308 137.315 238.45 137.17C238.697 136.907 238.976 136.676 239.281 136.482C239.935 136.04 240.705 135.801 241.494 135.796H278.738L278.751 137.17H241.498C240.617 137.17 239.786 137.63 239.154 138.468C238.467 139.377 238.088 140.571 238.088 141.843C238.088 144.413 239.615 146.516 241.498 146.516H278.751Z" fill="#3C3BA3"/>
<path d="M239.266 147.203C239.922 147.646 240.695 147.885 241.487 147.89H219.244C216.604 147.89 214.454 145.182 214.454 141.85C214.454 138.518 216.604 135.803 219.244 135.803H241.489C240.7 135.808 239.93 136.047 239.276 136.489C238.971 136.683 238.692 136.914 238.446 137.177C238.303 137.322 238.17 137.476 238.047 137.637C237.18 138.778 236.705 140.276 236.705 141.85C236.705 143.726 237.386 145.409 238.452 146.523C238.701 146.776 238.973 147.003 239.266 147.203Z" fill="#5555CD"/>
<path d="M225.35 146.521H219.977C218.12 146.521 216.562 144.384 216.562 141.849C216.562 139.313 218.119 137.176 219.977 137.176H225.344C224.458 138.573 223.988 140.195 223.989 141.85C223.991 143.505 224.463 145.125 225.352 146.521H225.35Z" fill="white"/>
<path d="M235.054 146.521H230.244C229.356 145.124 228.885 143.504 228.885 141.849C228.885 140.193 229.356 138.573 230.244 137.176H235.054C234.167 138.573 233.695 140.193 233.695 141.849C233.695 143.504 234.167 145.124 235.054 146.521Z" fill="white"/>
<path d="M276.823 137.179C276.487 137.428 276.189 137.724 275.938 138.059C275.269 138.97 274.864 140.048 274.77 141.175L254.83 146.515H241.512C239.629 146.515 238.104 144.418 238.104 141.842C238.104 140.563 238.481 139.368 239.169 138.467C239.801 137.635 240.632 137.169 241.512 137.169L276.823 137.179Z" fill="#DCDFE5"/>
<path d="M242.479 115.309C246.615 115.194 250.75 115.224 254.887 115.179C259.023 115.227 263.158 115.198 267.294 115.309C263.158 115.425 259.023 115.395 254.887 115.439C250.75 115.394 246.615 115.425 242.479 115.309Z" fill="#AEAECE"/>
<path d="M238.439 118.08C241.363 117.987 244.281 118.012 247.209 117.97C250.131 118.01 253.05 117.987 255.977 118.08C253.054 118.175 250.136 118.152 247.209 118.191C244.286 118.15 241.363 118.175 238.439 118.08Z" fill="#AEAECE"/>
<path d="M246.175 120.067C250.301 119.973 254.429 119.996 258.555 119.956C262.683 119.995 266.809 119.973 270.937 120.067C266.809 120.161 262.683 120.138 258.555 120.177C254.43 120.142 250.301 120.166 246.175 120.067Z" fill="#AEAECE"/>
<path d="M244.931 118.898C249.265 118.804 253.599 118.828 257.933 118.788C262.267 118.827 266.601 118.804 270.935 118.898C266.601 118.992 262.267 118.968 257.933 119.007C253.599 118.963 249.265 118.988 244.931 118.898Z" fill="#AEAECE"/>
<path d="M244.931 116.653C249.265 116.511 253.599 116.547 257.933 116.488C262.267 116.546 266.601 116.511 270.935 116.653C266.601 116.795 262.267 116.76 257.933 116.819C253.599 116.759 249.265 116.795 244.931 116.653Z" fill="#AEAECE"/>
<path d="M263.09 114.332C264.396 114.239 265.701 114.263 267.007 114.223C268.314 114.262 269.619 114.239 270.926 114.332C269.619 114.427 268.314 114.403 267.007 114.442C265.701 114.402 264.396 114.427 263.09 114.332Z" fill="#AEAECE"/>
<path d="M242.055 120.764C246.637 120.67 251.219 120.695 255.803 120.655C260.385 120.693 264.967 120.67 269.549 120.764C264.967 120.858 260.385 120.835 255.803 120.874C251.219 120.834 246.641 120.858 242.055 120.764Z" fill="#AEAECE"/>
<path d="M241.374 117.289C243.211 117.159 245.047 117.143 246.884 117.123C248.721 117.143 250.558 117.152 252.394 117.289C250.558 117.426 248.721 117.435 246.884 117.456C245.047 117.435 243.211 117.426 241.374 117.289Z" fill="#AEAECE"/>
<path d="M245.723 127.049C249.859 126.933 253.996 126.963 258.131 126.919C262.267 126.968 266.402 126.938 270.538 127.049C266.402 127.164 262.267 127.134 258.131 127.178C253.996 127.134 249.859 127.164 245.723 127.049Z" fill="#AEAECE"/>
<path d="M241.688 129.82C244.609 129.726 247.529 129.75 250.456 129.709C253.379 129.748 256.297 129.726 259.224 129.82C256.301 129.914 253.383 129.891 250.456 129.93C247.532 129.89 244.609 129.914 241.688 129.82Z" fill="#AEAECE"/>
<path d="M249.421 131.811C253.548 131.718 257.675 131.741 261.801 131.701C265.929 131.74 270.055 131.718 274.183 131.811C270.055 131.905 265.929 131.883 261.801 131.921C257.676 131.879 253.548 131.905 249.421 131.811Z" fill="#AEAECE"/>
<path d="M248.175 130.634C252.509 130.539 256.843 130.564 261.177 130.523C265.511 130.562 269.845 130.539 274.179 130.634C269.845 130.727 265.511 130.704 261.177 130.743C256.843 130.703 252.509 130.727 248.175 130.634Z" fill="#AEAECE"/>
<path d="M248.175 128.392C252.509 128.251 256.843 128.287 261.177 128.228C265.511 128.286 269.845 128.251 274.179 128.392C269.845 128.535 265.511 128.5 261.177 128.559C256.843 128.504 252.509 128.535 248.175 128.392Z" fill="#AEAECE"/>
<path d="M266.34 126.071C267.646 125.978 268.951 126.002 270.259 125.962C271.564 126 272.87 125.978 274.176 126.071C272.87 126.166 271.564 126.143 270.259 126.182C268.951 126.141 267.646 126.167 266.34 126.071Z" fill="#AEAECE"/>
<path d="M245.301 132.503C249.883 132.409 254.465 132.434 259.048 132.394C263.63 132.433 268.212 132.409 272.794 132.503C268.212 132.597 263.63 132.574 259.048 132.613C254.465 132.573 249.886 132.597 245.301 132.503Z" fill="#AEAECE"/>
<path d="M244.623 129.023C246.458 128.893 248.295 128.877 250.132 128.856C251.969 128.877 253.805 128.886 255.642 129.023C253.805 129.16 251.969 129.169 250.132 129.189C248.295 129.174 246.458 129.165 244.623 129.023Z" fill="#AEAECE"/>
<path d="M245.247 139.612C249.383 139.497 253.518 139.527 257.654 139.482C261.789 139.53 265.924 139.501 270.06 139.612C265.924 139.728 261.789 139.698 257.654 139.742C253.525 139.698 249.383 139.728 245.247 139.612Z" fill="#AEAECE"/>
<path d="M241.201 142.385C244.124 142.29 247.042 142.315 249.969 142.274C252.892 142.313 255.81 142.29 258.738 142.385C255.815 142.478 252.897 142.455 249.969 142.494C247.046 142.454 244.124 142.478 241.201 142.385Z" fill="#AEAECE"/>
<path d="M248.939 144.375C253.067 144.281 257.194 144.306 261.321 144.266C265.449 144.304 269.575 144.281 273.702 144.375C269.575 144.469 265.449 144.446 261.321 144.485C257.194 144.445 253.067 144.469 248.939 144.375Z" fill="#AEAECE"/>
<path d="M247.692 143.197C252.026 143.104 256.361 143.127 260.695 143.087C265.029 143.126 269.363 143.104 273.697 143.197C269.363 143.291 265.029 143.269 260.695 143.308C256.361 143.268 252.026 143.291 247.692 143.197Z" fill="#AEAECE"/>
<path d="M247.692 140.957C252.026 140.814 256.361 140.85 260.695 140.792C265.029 140.849 269.363 140.814 273.697 140.957C269.363 141.098 265.029 141.064 260.695 141.122C256.361 141.063 252.026 141.094 247.692 140.957Z" fill="#AEAECE"/>
<path d="M265.864 138.636C267.17 138.541 268.476 138.566 269.782 138.526C271.087 138.564 272.393 138.541 273.699 138.636C272.393 138.729 271.087 138.707 269.782 138.746C268.476 138.706 267.17 138.729 265.864 138.636Z" fill="#AEAECE"/>
<path d="M244.815 145.068C249.397 144.973 253.979 144.998 258.561 144.958C263.143 144.997 267.727 144.973 272.309 145.068C267.727 145.161 263.143 145.139 258.561 145.178C253.974 145.138 249.392 145.161 244.815 145.068Z" fill="#AEAECE"/>
<path d="M244.145 141.593C245.981 141.455 247.818 141.446 249.655 141.427C251.49 141.446 253.327 141.455 255.163 141.593C253.327 141.729 251.49 141.738 249.655 141.759C247.818 141.744 245.981 141.729 244.145 141.593Z" fill="#AEAECE"/>
<path d="M290.785 0H186.784C184.899 0.000344214 183.091 0.749502 181.758 2.08271C180.425 3.41591 179.676 5.22397 179.676 7.10924V63.1083L172.62 68.2186C172.517 68.2935 172.442 68.4002 172.406 68.522C172.37 68.6439 172.374 68.7743 172.42 68.8931C172.465 69.012 172.548 69.1127 172.656 69.1799C172.764 69.247 172.891 69.2768 173.017 69.2648L179.676 68.6015V71.5869C179.676 73.4721 180.425 75.28 181.758 76.613C183.091 77.946 184.899 78.6949 186.784 78.6949H290.785C291.719 78.695 292.643 78.5113 293.506 78.1542C294.368 77.7971 295.152 77.2735 295.812 76.6135C296.472 75.9534 296.996 75.1698 297.353 74.3073C297.71 73.4449 297.894 72.5205 297.894 71.5869V7.10924C297.894 5.22375 297.145 3.41549 295.812 2.08225C294.479 0.749005 292.671 0 290.785 0Z" fill="#FF4A66"/>
<path d="M290.788 3.31775H186.787C184.693 3.31775 182.995 5.01527 182.995 7.10926V71.5844C182.995 73.6784 184.693 75.376 186.787 75.376H290.788C292.882 75.376 294.579 73.6784 294.579 71.5844V7.10926C294.579 5.01527 292.882 3.31775 290.788 3.31775Z" fill="#C2EBEE"/>
<path d="M294.578 44.3922V71.5843C294.575 72.5889 294.174 73.5515 293.464 74.2619C292.754 74.9723 291.791 75.3727 290.786 75.3758H186.785C185.781 75.3727 184.818 74.9722 184.108 74.2618C183.398 73.5514 182.998 72.5888 182.995 71.5843V43.7185L183.022 43.7042C184.449 42.999 185.88 42.3036 187.315 41.6183C196.066 37.4387 204.979 33.6229 214.054 30.1711C214.567 29.9764 215.078 29.7817 215.592 29.5922L216.92 29.0963C217.188 28.999 217.456 28.899 217.726 28.8017C217.996 28.7043 218.267 28.6083 218.539 28.5161L218.948 28.3772L219.292 28.2643L219.433 28.2202C219.544 28.1855 219.654 28.1518 219.764 28.1189L219.864 28.0878L220.183 27.9956C220.735 27.8385 221.292 27.7023 221.849 27.5958L222.059 27.5569C222.123 27.5452 222.189 27.5348 222.248 27.5257L222.412 27.4985L222.565 27.4764C222.695 27.4582 222.833 27.4401 222.965 27.4258C223.153 27.4037 223.343 27.3881 223.531 27.3752C224.158 27.3317 224.787 27.3434 225.412 27.4102C227.843 27.6776 230.069 28.8484 232.215 30.0231C238.615 33.5278 244.912 37.2712 251.663 40.036C258.414 42.8008 265.723 44.5791 272.989 43.921C277.168 43.542 281.272 42.3711 285.468 42.3841C288.613 42.4036 291.717 43.0879 294.578 44.3922Z" fill="#5555CD"/>
<path d="M294.589 44.3923V48.5044C288.769 47.4504 281.587 47.0156 274.34 48.7536C257.566 52.7775 246.98 58.2577 232.602 41.438C232.132 40.8867 231.629 40.3644 231.095 39.8739C226.583 35.7112 220.506 34.3638 214.191 34.5248C203.981 34.7844 193.152 38.9899 187.322 41.6223C196.073 37.4427 204.987 33.627 214.061 30.1751C215.013 29.8134 215.969 29.4551 216.927 29.1004C219.067 28.3099 221.287 27.5272 223.538 27.3792C224.165 27.3357 224.794 27.3475 225.419 27.4142C227.85 27.6816 230.076 28.8524 232.222 30.0271C238.623 33.5318 244.919 37.2753 251.67 40.04C258.421 42.8048 265.73 44.5831 272.997 43.925C277.175 43.546 281.279 42.3752 285.476 42.3882C288.621 42.4059 291.727 43.0889 294.589 44.3923Z" fill="#3C3BA3"/>
<path d="M276.948 75.3759H236.47C235.778 70.6447 224.807 66.0925 215.974 62.4269C208.774 59.4415 202.557 56.8597 199.987 53.947C198.547 52.3154 198.559 50.8694 198.819 49.9439C199.873 46.2095 206.749 44.1028 214.029 41.8624C217.588 40.7695 220.95 39.7363 222.762 38.703C223.065 38.539 223.35 38.3427 223.612 38.1176C222.833 37.5504 220.445 36.8196 219.094 36.412C217.109 35.8098 215.329 35.2698 214.194 34.5208C213.876 34.3209 213.592 34.0711 213.354 33.781C213.12 33.4975 212.962 33.1597 212.894 32.799C212.826 32.4382 212.85 32.0661 212.964 31.7171C213.094 31.2888 213.368 30.7786 214.072 30.1712C214.584 29.9765 215.096 29.7818 215.61 29.5923L216.938 29.0964C217.205 28.9991 217.474 28.8991 217.744 28.8018C218.014 28.7044 218.285 28.6084 218.556 28.5162L218.965 28.3773L219.309 28.2644L219.451 28.2202C219.561 28.1856 219.672 28.1519 219.782 28.119L219.881 28.0879L220.201 27.9957C220.752 27.8386 221.309 27.7023 221.866 27.5959L222.076 27.557C222.14 27.5453 222.206 27.5349 222.266 27.5258L222.429 27.4985L222.583 27.4765C222.712 27.4583 222.85 27.4401 222.982 27.4259C223.171 27.4051 223.359 27.3882 223.548 27.3752C222.727 27.7997 221.034 29.565 219.892 30.6982C219.805 30.7846 219.741 30.8909 219.705 31.0079C219.668 31.1249 219.662 31.249 219.684 31.3693C219.707 31.4896 219.759 31.6024 219.836 31.6979C219.913 31.7934 220.012 31.8686 220.124 31.917C220.999 32.2908 222.182 32.7231 223.345 33.1475C224.299 33.4967 225.38 33.8926 226.566 34.3482C227.753 34.8038 231.312 36.1654 231.283 38.8744C231.279 39.2147 231.216 39.5518 231.099 39.8713C230.176 42.4245 226.05 44.0366 225.142 44.3611L225.116 44.3702L225.089 44.3793C220.816 45.7136 217.786 46.8806 215.828 47.9514C213.477 49.2339 213.372 49.988 213.375 50.1256C213.375 50.3528 213.665 51.5963 218.844 53.7419C222.718 55.3449 228.652 57.1946 237.519 59.5622C256.584 64.6517 276.766 75.2851 276.948 75.3759Z" fill="#C2EBEE"/>
<path d="M223.421 27.3881C223.421 27.3881 212.55 30.6331 214.396 32.9617C216.242 35.2904 229.727 36.2652 223.421 39.8594C217.115 43.4536 195.158 46.4663 200.987 53.0732C206.817 59.6801 236.84 66.0105 237.812 75.3796H274.345C274.345 75.3796 256.326 65.9586 237.179 60.8418C208.214 53.1083 204.615 49.3778 224.694 43.1096C224.694 43.1096 235.543 39.2052 226.094 35.5811C216.644 31.9571 214.068 32.1907 223.421 27.3881Z" fill="#59C7D2"/>
<path d="M223.855 9.04081L225.907 13.1945C225.958 13.2982 226.034 13.3878 226.128 13.4557C226.222 13.5235 226.331 13.5675 226.445 13.5839L231.031 14.2498C231.164 14.2691 231.288 14.3249 231.39 14.4111C231.492 14.4972 231.568 14.6101 231.609 14.7372C231.651 14.8642 231.655 15.0002 231.624 15.1299C231.592 15.2596 231.524 15.3778 231.429 15.4712L228.11 18.7058C228.027 18.7869 227.964 18.8868 227.928 18.9972C227.892 19.1075 227.884 19.2249 227.903 19.3393L228.682 23.9083C228.705 24.0399 228.69 24.1753 228.64 24.2991C228.589 24.4228 228.506 24.53 228.397 24.6085C228.289 24.687 228.161 24.7337 228.028 24.7432C227.895 24.7527 227.762 24.7248 227.644 24.6624L223.542 22.5051C223.439 22.4515 223.324 22.4234 223.208 22.4234C223.092 22.4234 222.978 22.4515 222.875 22.5051L218.778 24.6624C218.66 24.7248 218.527 24.7527 218.393 24.7432C218.26 24.7337 218.132 24.687 218.024 24.6085C217.916 24.53 217.832 24.4228 217.782 24.2991C217.732 24.1753 217.717 24.0399 217.74 23.9083L218.518 19.3393C218.538 19.2249 218.529 19.1075 218.493 18.9972C218.457 18.8868 218.395 18.7869 218.312 18.7058L214.993 15.4712C214.898 15.3778 214.83 15.2596 214.798 15.1299C214.766 15.0002 214.771 14.8642 214.812 14.7372C214.854 14.6101 214.93 14.4972 215.032 14.4111C215.134 14.3249 215.258 14.2691 215.39 14.2498L219.976 13.5839C220.091 13.5675 220.2 13.5235 220.294 13.4557C220.387 13.3878 220.463 13.2982 220.515 13.1945L222.567 9.04081C222.626 8.91982 222.717 8.81777 222.831 8.74637C222.945 8.67496 223.076 8.63708 223.211 8.63708C223.345 8.63708 223.477 8.67496 223.591 8.74637C223.705 8.81777 223.796 8.91982 223.855 9.04081Z" fill="#FAB243"/>
<path d="M137.014 280.922C129 280.308 119.325 274.561 113.275 269.78C113.111 269.65 112.947 269.513 112.782 269.369C106.855 264.19 100.321 249.981 100.321 249.981L103.667 247.299L112.814 239.968L125.455 240.016L131.416 252.516L129.943 259.771C138.935 265.8 138.673 272.717 138.203 276.797C137.907 279.32 137.014 280.922 137.014 280.922Z" fill="#FF4A66"/>
<path d="M137.018 280.922C129.004 280.308 119.328 274.562 113.278 269.78C113.115 269.65 112.95 269.513 112.785 269.37C121.993 256.325 129.938 259.771 129.938 259.771C138.931 265.8 138.669 272.717 138.199 276.797C137.911 279.32 137.018 280.922 137.018 280.922Z" fill="white"/>
<path d="M137.014 280.922C129 280.308 119.324 274.562 113.274 269.78C107.224 264.998 100.318 249.981 100.318 249.981L103.664 247.3C103.664 247.3 108.146 263.107 118.695 269.256C129.244 275.404 132.607 276.337 138.196 276.797C137.907 279.32 137.014 280.922 137.014 280.922Z" fill="#FAB243"/>
<path d="M144.385 191.346L109.858 234.532C109.858 234.532 112.722 252.924 134.064 260.445L158.019 220.707L161.004 191.346H144.385Z" fill="#3C3BA3"/>
<path d="M191.709 261.245C170.082 278.236 151.546 266.265 151.546 266.265L149.229 206.699C149.229 206.699 142.09 186.038 138.609 168.467C135.127 150.896 141.567 141.063 141.567 141.063C167.502 140.308 174.47 136.58 174.47 136.58C177.082 143.311 176.113 163.968 175.249 176.284C174.85 181.936 174.47 185.837 174.47 185.837L179.657 201.292L191.709 261.245Z" fill="#5555CD"/>
<path d="M175.237 176.284C174.839 181.937 174.458 185.837 174.458 185.837L168.6 169.899L167.292 153.302L171.213 169.571L175.237 176.284Z" fill="#3C3BA3"/>
<path d="M174.462 136.58C163.909 144.72 141.559 141.063 141.559 141.063L141.796 135.266L142.056 129.023L173.364 125.06L174.176 133.55L174.462 136.58Z" fill="#F5AE97"/>
<path d="M174.185 133.55C170.891 133.306 167.575 133.404 164.339 134.033C162.414 134.408 160.532 134.968 158.627 135.412C153.113 136.694 147.159 136.936 141.815 135.266L142.075 129.023L173.383 125.06L174.185 133.55Z" fill="#ED856E"/>
<path d="M224.259 66.4223C222.525 68.1642 220.15 69.7971 217.02 71.016C216.951 71.0428 216.884 71.0731 216.819 71.1068C216.723 71.1558 216.63 71.2118 216.542 71.2743C216.424 71.3573 216.314 71.4507 216.213 71.5533C216.033 71.7345 215.882 71.942 215.765 72.1686C214.038 75.5577 207.25 88.2718 199.598 96.8309C198.857 97.661 197.933 98.3066 196.899 98.7165C195.864 99.1264 194.748 99.2893 193.64 99.192L185.008 98.434L182.385 95.3187L179.659 92.0828L185.788 82.9902L192.992 83.5911L202.839 69.0676C203.538 68.0719 204.085 66.9784 204.464 65.8226C205.113 63.8756 206.658 60.5838 209.896 60.0153C214.558 59.2027 217.91 57.5893 218.661 56.4704C219.411 55.3515 220.997 56.9896 220.3 58.4512C220.3 58.4512 224.391 54.7142 226.817 55.9109C226.9 55.9478 226.979 55.9912 227.055 56.0407C227.133 56.0936 227.207 56.1508 227.278 56.2121C228.864 57.6087 228.343 62.3205 224.259 66.4223Z" fill="#F5AE97"/>
<path d="M224.266 66.4222C222.531 68.1641 220.156 69.7971 217.027 71.0159C216.958 71.0427 216.891 71.0731 216.825 71.1068C216.73 71.1562 216.637 71.2122 216.549 71.2742C216.431 71.3572 216.321 71.4506 216.219 71.5533C216.04 71.7344 215.889 71.9419 215.771 72.1685C214.045 75.5577 207.256 88.2717 199.605 96.8308C198.864 97.6609 197.939 98.3066 196.905 98.7165C195.871 99.1264 194.755 99.2892 193.647 99.1919L185.015 98.4339L182.392 95.3187C182.43 95.1192 182.497 94.9264 182.59 94.7462C182.915 94.3231 194.065 97.4864 196.762 96.6284C200.634 95.3965 209.014 77.7876 209.014 77.7876C210.805 74.0818 211.963 71.3521 211.963 71.3521C211.963 71.3521 206.26 69.5777 205.656 66.4105C205.916 66.7104 212.535 74.0688 222.599 65.8212C222.599 65.8212 228.715 60.6292 226.825 55.9174C226.908 55.9542 226.987 55.9977 227.063 56.0472C227.141 56.0988 227.216 56.1556 227.287 56.2172C228.872 57.6087 228.351 62.3205 224.266 66.4222Z" fill="#ED856E"/>
<path d="M220.296 58.4587C220.296 58.4587 217.145 60.7381 212.039 61.8141C212.039 61.8141 217.395 62.2217 220.296 58.4587Z" fill="#ED856E"/>
<path d="M185.013 98.4405L174.035 97.885C174.035 97.885 174.813 101.435 173.41 108.755C172.007 116.074 177.251 131.711 177.251 131.711C177.251 131.711 174.711 130.35 164.708 132.551C164.69 132.551 164.651 132.565 164.597 132.576C163.571 132.804 162.467 133.068 161.28 133.374C148.416 136.702 140.665 132.376 140.665 132.376L142.595 112.776L142.442 112.598C133.629 102.444 127.904 110.424 127.904 110.424C127.904 110.424 126.65 98.2588 128.647 90.9393C130.643 83.6198 136.104 84.6231 136.104 84.6231L157.826 79.6907L185.795 82.9915C183.679 86.587 183.874 91.6104 184.336 94.9398C184.492 96.1191 184.718 97.2881 185.013 98.4405Z" fill="#FF4A66"/>
<path d="M164.6 132.576C163.574 132.804 162.469 133.068 161.283 133.374C148.418 136.702 140.668 132.376 140.668 132.376L142.598 112.776L142.445 112.598L142.592 112.452L142.607 101.666C142.607 101.666 145.18 122.434 146.053 129.455C146.882 136.124 163.006 132.909 164.6 132.576Z" fill="#D7274D"/>
<path d="M207.452 274.179C201.911 280.599 190.967 285.212 183.12 287.352C182.908 287.41 182.689 287.464 182.463 287.515C174.353 289.302 158.19 285.949 158.19 285.949L158.011 281.428L157.518 269.07L165.478 258.368L179.825 261.138L185.059 266.938C195.812 263.081 201.519 267.637 204.689 270.592C206.654 272.419 207.452 274.179 207.452 274.179Z" fill="#FF4A66"/>
<path d="M207.458 274.179C201.916 280.599 190.973 285.212 183.125 287.353C182.913 287.41 182.694 287.464 182.468 287.515C177.163 271.525 185.064 266.939 185.064 266.939C195.817 263.081 201.524 267.637 204.694 270.593C206.659 272.419 207.458 274.179 207.458 274.179Z" fill="white"/>
<path d="M207.457 274.179C201.916 280.599 190.973 285.212 183.125 287.352C175.277 289.493 158.203 285.948 158.203 285.948L158.024 281.427C158.024 281.427 174.249 287.528 186.08 282.422C197.912 277.317 200.81 275.048 204.702 270.591C206.659 272.419 207.457 274.179 207.457 274.179Z" fill="#FAB243"/>
<path d="M146.411 79.3088C148.893 76.9074 146.865 70.2226 146.865 70.2226C146.833 70.0613 146.756 69.9124 146.642 69.7931C146.529 69.6737 146.385 69.5886 146.225 69.5477C145.52 69.3463 144.833 69.0885 144.169 68.7766C143.895 68.6598 143.62 68.5015 143.332 68.3509C143.325 68.3509 143.325 68.3392 143.319 68.3405C141.519 67.3138 139.747 65.5913 140.126 62.8888C140.945 57.1204 146.273 60.1786 146.273 60.1786L153.429 46.8934L154.13 45.5953L155.418 45.829L166.84 47.9058L167.201 55.4927L167.375 59.1272C167.375 59.1272 168.314 75.3018 159.678 75.4939C159.678 75.4939 157.861 75.5484 157.112 75.0136C157.112 75.0136 157.033 75.9015 157.047 76.9191C157.056 77.4356 157.11 77.9502 157.209 78.4573C157.347 79.1425 157.74 79.7496 158.31 80.1551C159.923 81.3077 163.761 83.9907 166.564 85.4769C170.198 87.4058 153.334 91.9073 147.597 90.0278C141.86 88.1483 146.411 79.3088 146.411 79.3088Z" fill="#F5AE97"/>
<path d="M145.092 62.8915C145.315 62.1334 144.43 61.4987 143.78 61.9478C143.24 62.3203 142.818 63.0784 143.372 64.6217C144.448 67.6201 146.019 66.1612 145.827 65.2396C145.634 64.318 144.76 63.9792 145.083 62.9226C145.085 62.9122 145.089 62.9018 145.092 62.8915Z" fill="#ED856E"/>
<path d="M144.174 68.7703C144.837 69.0803 145.525 69.3352 146.23 69.5322C146.23 69.5322 148.164 69.5322 148.322 67.7046C148.207 67.8863 146.954 69.6893 144.174 68.7703Z" fill="#ED856E"/>
<path d="M167.13 55.9108C167.13 55.9108 165.242 56.8194 162.717 52.5762C162.717 52.5762 162.673 57.5424 152.416 58.3601C152.416 58.3601 148.378 58.5276 146.279 60.1657L145.5 54.3778L161.929 45.4137L165.623 44.8088L167.13 55.9108Z" fill="#ED856E"/>
<path d="M170.829 79.4752C169.284 73.3018 171.372 61.6833 169.661 50.8851C167.964 40.1803 160.688 41.5393 160.688 41.5393C155.609 35.5685 147.11 36.4485 141.071 40.7501C136.693 43.8654 133.599 48.7875 134.061 54.2028C134.304 56.9957 134.343 59.8024 134.178 62.601C133.93 66.5305 133.111 70.403 131.746 74.0962C131.02 76.0835 130.213 78.9235 130.528 81.1146C131.068 84.8697 136.26 84.2675 144.496 92.297C148.232 95.9392 151.813 96.3338 153.925 96.0612C154.102 96.0378 154.269 95.9684 154.41 95.8598C154.551 95.7512 154.661 95.6074 154.729 95.4428C154.797 95.2782 154.82 95.0986 154.797 94.9221C154.773 94.7456 154.704 94.5784 154.595 94.4374C149.905 88.2692 147.916 74.5583 147.478 71.0874C147.438 70.7472 147.307 70.4241 147.099 70.1522C146.891 69.8802 146.613 69.6697 146.295 69.5428C146.185 69.4981 146.068 69.468 145.95 69.4532C145.95 69.4532 143.281 68.5017 141.843 67.2868C141.477 66.9779 141.154 66.6202 140.885 66.2237C140.355 65.429 140.077 64.4923 140.089 63.5368C140.085 62.88 140.198 62.2278 140.423 61.6106C141.837 57.6646 146.276 60.1659 146.276 60.1659C146.647 59.2573 147.784 58.6251 148.919 58.2189C150.149 57.7825 151.439 57.5369 152.744 57.4907C162.349 57.0467 162.5 50.1815 162.5 50.1815C162.5 50.1815 163.438 54.1639 167.13 55.9214C167.475 58.441 167.54 60.9911 167.324 63.5251C167.127 65.8759 166.644 68.4862 165.628 70.9148C165.586 71.0069 165.546 71.1056 165.498 71.1938C165.488 71.2185 165.473 71.2561 165.454 71.3055C164.156 74.0832 162.287 75.0879 160.642 75.3631C159.455 75.5488 158.24 75.4272 157.113 75.01C156.901 76.2078 156.94 77.4365 157.227 78.6185C157.302 78.9175 157.436 79.1983 157.622 79.4438C157.809 79.6892 158.043 79.8942 158.311 80.0463C160.4 81.2418 166.359 84.4453 170.817 84.836C176.317 85.3175 171.42 81.8531 170.829 79.4752Z" fill="#011C2D"/>
<path d="M158.583 46.5261C158.583 46.5261 157.737 51.9142 150.514 52.5204C149.31 52.606 148.138 52.942 147.071 53.5069C145.845 54.1792 144.615 55.2618 144.605 56.9051C144.605 56.9051 143.817 51.5832 151.866 50.6447C152.987 50.5062 154.065 50.1319 155.031 49.5466C156.3 48.7886 157.88 47.6788 158.583 46.5261Z" fill="#010202"/>
<path d="M157.115 75.0086C157.028 75.6539 156.988 76.3046 156.993 76.9557C153.135 75.1384 152.234 71.6338 152.234 71.6338C154.157 73.9611 157.115 75.0086 157.115 75.0086Z" fill="#ED856E"/>
<path d="M140.05 63.5328H140.086C140.081 62.876 140.194 62.2237 140.419 61.6065C141.832 57.6605 146.271 60.1605 146.271 60.1605C146.643 59.2519 147.78 58.6223 148.915 58.2135C150.145 57.777 151.435 57.5314 152.739 57.4853C162.345 57.0414 162.495 50.1761 162.495 50.1761C162.495 50.1761 163.434 54.1585 167.125 55.9147C165.058 54.5388 162.298 47.8254 162.298 47.8254C162.298 47.8254 160.134 55.4617 152.782 55.6006C145.43 55.7394 145.852 58.8807 145.852 58.8807C145.852 58.8807 139.021 56.3651 140.05 63.5328Z" fill="#010202"/>
<path d="M168.593 62.1517C168.593 62.1517 168.269 75.4629 169.316 81.4701C169.331 81.544 169.317 81.6207 169.277 81.6845C169.237 81.7483 169.174 81.7943 169.101 81.8131C169.028 81.8319 168.95 81.822 168.885 81.7855C168.819 81.749 168.769 81.6886 168.746 81.6168C167.805 78.8949 166.982 73.2874 168.593 62.1517Z" fill="#010202"/>
<path d="M136.557 65.4708C135.755 69.0077 134.745 72.4939 133.53 75.9108C131.528 81.526 135.033 84.8567 135.033 84.8567C135.033 84.8567 133.007 79.9022 134.782 75.6032C135.197 74.624 135.528 73.6114 135.771 72.5762C136.22 70.5526 136.785 67.4789 136.557 65.4708Z" fill="#010202"/>
<path d="M139.762 68.9248C139.762 68.9248 139.133 74.7399 140.671 82.9849C140.665 82.9901 137.361 78.12 139.762 68.9248Z" fill="#010202"/>
<path d="M158.234 60.1489C158.109 59.9453 157.914 59.7947 157.685 59.7258C157.419 59.6417 157.133 59.6522 156.874 59.7556C156.37 59.94 155.796 60.5254 155.876 61.0874C155.908 61.3185 155.658 61.5209 155.446 61.5235C155.186 61.5235 155.044 61.3262 155.011 61.0939C154.941 60.6045 155.185 60.136 155.477 59.7608C155.778 59.3794 156.18 59.0895 156.636 58.9236C157.48 58.6186 158.5 58.9236 158.973 59.7024C159.262 60.1788 158.524 60.6279 158.234 60.1515V60.1489Z" fill="#072C35"/>
<path d="M165.706 59.5983C165.62 59.1363 165.025 58.704 164.568 58.6534C164.038 58.5963 163.548 59.0623 163.27 59.5282C163.203 59.6206 163.102 59.6828 162.989 59.7011C162.877 59.7195 162.761 59.6926 162.669 59.6263C162.576 59.56 162.513 59.4597 162.494 59.3472C162.475 59.2347 162.501 59.1192 162.566 59.0259C163 58.3094 163.821 57.6708 164.701 57.7993C165.532 57.92 166.402 58.595 166.562 59.4465C166.582 59.5594 166.556 59.6757 166.491 59.7698C166.458 59.8164 166.417 59.8561 166.369 59.8867C166.321 59.9173 166.268 59.9382 166.212 59.9482C166.099 59.9683 165.982 59.9428 165.888 59.8772C165.794 59.8116 165.73 59.7113 165.71 59.5983H165.706Z" fill="#072C35"/>
<path d="M164.961 63.1304C165.386 63.0953 165.684 62.5183 165.628 61.8418C165.572 61.1652 165.183 60.6452 164.759 60.6803C164.334 60.7154 164.036 61.2924 164.092 61.9689C164.148 62.6455 164.537 63.1655 164.961 63.1304Z" fill="#072C35"/>
<path d="M157.927 63.7798C158.374 63.7428 158.689 63.1342 158.63 62.4205C158.571 61.7068 158.16 61.1582 157.713 61.1952C157.266 61.2322 156.951 61.8408 157.01 62.5545C157.069 63.2682 157.48 63.8168 157.927 63.7798Z" fill="#072C35"/>
<path d="M162.917 69.2483L158.686 68.929C158.625 68.9242 158.564 68.9332 158.507 68.9553C158.45 68.9774 158.399 69.0119 158.358 69.0565C158.316 69.101 158.285 69.1543 158.267 69.2125C158.249 69.2706 158.244 69.3321 158.253 69.3924C158.4 70.3321 158.918 72.2753 160.704 72.2908C162.49 72.3064 163.092 70.5826 163.285 69.7376C163.297 69.6809 163.296 69.6223 163.284 69.5657C163.271 69.5091 163.247 69.4559 163.212 69.4095C163.177 69.3632 163.133 69.3248 163.082 69.297C163.031 69.2692 162.975 69.2526 162.917 69.2483Z" fill="#CB6655"/>
<path d="M96.7257 65.8911L76.7434 107.025C76.4477 107.634 76.7015 108.367 77.3102 108.662L104.109 121.681C104.717 121.977 105.451 121.723 105.746 121.114L125.729 79.9804C126.024 79.3717 125.771 78.6386 125.162 78.3429L98.3633 65.3244C97.7546 65.0287 97.0214 65.2824 96.7257 65.8911Z" fill="#99DDE3"/>
<path d="M104.61 120.47L124.503 79.52L97.8876 66.5906L77.9944 107.541L104.61 120.47Z" fill="#3C3BA3"/>
<path d="M120.622 81.3063L120.622 81.3051C120.791 80.9582 120.646 80.5404 120.299 80.3719L99.3676 70.2034C99.0207 70.0349 98.6029 70.1795 98.4343 70.5264L98.4338 70.5276C98.2653 70.8745 98.4099 71.2924 98.7568 71.4609L119.688 81.6293C120.035 81.7978 120.453 81.6532 120.622 81.3063Z" fill="white"/>
<path d="M112.045 84.9519L112.045 84.9508C112.214 84.6039 112.069 84.186 111.722 84.0175L96.2943 76.5228C95.9474 76.3542 95.5295 76.4989 95.361 76.8458L95.3605 76.8469C95.1919 77.1938 95.3365 77.6117 95.6835 77.7802L111.111 85.2749C111.458 85.4435 111.876 85.2989 112.045 84.9519Z" fill="white"/>
<path d="M116.008 90.7841L116.008 90.7829C116.177 90.436 116.032 90.0182 115.685 89.8496L94.7536 79.6812C94.4067 79.5127 93.9889 79.6573 93.8203 80.0042L93.8198 80.0054C93.6512 80.3523 93.7958 80.7701 94.1428 80.9387L115.074 91.1071C115.421 91.2756 115.839 91.131 116.008 90.7841Z" fill="white"/>
<path d="M102.74 88.246L102.741 88.2448C102.909 87.8979 102.765 87.4801 102.418 87.3116L93.2164 82.8416C92.8695 82.6731 92.4516 82.8177 92.2831 83.1646L92.2825 83.1658C92.114 83.5127 92.2586 83.9305 92.6055 84.0991L101.807 88.569C102.154 88.7375 102.572 88.5929 102.74 88.246Z" fill="white"/>
<path d="M100.667 99.0111L100.716 98.9095C100.871 98.5903 100.738 98.2058 100.419 98.0508L88.5709 92.295C88.2517 92.14 87.8673 92.273 87.7122 92.5922L87.6629 92.6938C87.5078 93.013 87.6409 93.3974 87.9601 93.5525L99.8083 99.3082C100.127 99.4633 100.512 99.3302 100.667 99.0111Z" fill="white"/>
<path d="M108.341 106.582L108.341 106.581C108.51 106.234 108.365 105.816 108.018 105.648L87.0864 95.4793C86.7395 95.3108 86.3216 95.4554 86.1531 95.8023L86.1525 95.8035C85.984 96.1504 86.1286 96.5682 86.4755 96.7368L107.407 106.905C107.754 107.074 108.172 106.929 108.341 106.582Z" fill="white"/>
<path d="M100.649 106.817L100.703 106.706C100.857 106.389 100.725 106.008 100.408 105.854L85.4998 98.6119C85.1832 98.4581 84.8019 98.59 84.6481 98.9066L84.5942 99.0176C84.4404 99.3342 84.5724 99.7155 84.889 99.8693L99.7973 107.112C100.114 107.265 100.495 107.133 100.649 106.817Z" fill="white"/>
<path d="M105.264 112.9L105.264 112.899C105.433 112.552 105.288 112.134 104.941 111.966L84.0095 101.797C83.6626 101.629 83.2447 101.774 83.0762 102.12L83.0756 102.122C82.9071 102.469 83.0517 102.886 83.3986 103.055L104.33 113.223C104.677 113.392 105.095 113.247 105.264 112.9Z" fill="white"/>
<path d="M140.657 132.376C127.218 147.164 110.703 110.938 110.703 110.938L112.218 107.822L116.056 99.9227L115.766 99.7306C112.732 97.7368 113.771 95.7418 113.771 95.7418C113.771 95.7418 108.048 97.9107 107.268 95.2225C106.998 94.2971 107.348 93.578 108.108 92.9861C109.554 91.8607 112.493 91.2013 115.507 90.4783C120.102 89.375 123.311 100.773 123.311 100.773L127.89 110.424C128.326 107.88 129.891 106.175 132.068 105.537C133.23 105.217 134.449 105.167 135.633 105.39C139.127 105.995 142.477 108.238 142.58 112.452C142.792 121.415 140.657 132.376 140.657 132.376Z" fill="#F5AE97"/>
<path d="M132.298 119.65L127.899 110.417C128.335 107.873 129.901 106.169 132.077 105.53C130.24 106.975 132.254 119.382 132.298 119.65Z" fill="#ED856E"/>
<path d="M116.054 99.9174L115.764 99.7253C112.73 97.7316 113.769 95.7365 113.769 95.7365C113.769 95.7365 108.046 97.9055 107.266 95.2173C106.996 94.2918 107.346 93.5727 108.106 92.9808C108.106 92.9808 106.874 95.9053 109.99 95.9325C113.036 95.9611 114.312 95.2718 114.367 95.242C114.339 95.303 113.124 97.472 116.054 99.9174Z" fill="#ED856E"/>
<path d="M112.217 107.817L116.055 99.9176C116.055 99.9176 119.134 105.789 112.217 107.817Z" fill="#ED856E"/>
<path d="M185.014 98.4403L174.035 97.8848C174.035 97.8848 173.439 93.9155 172.607 93.5273C173.019 93.6844 178.262 95.6223 184.327 94.9383C184.486 96.1182 184.716 97.2876 185.014 98.4403Z" fill="#D7274D"/>
<path d="M331.363 176.803C331.363 176.803 358.548 173.88 392.571 176.803L381.811 182.434L334.245 180.594L331.363 176.803Z" fill="#E2902A"/>
<path fill-rule="evenodd" clip-rule="evenodd" d="M338.02 263.566C354.314 264.896 370.689 264.892 386.982 263.552V282.146C386.982 282.781 386.742 283.393 386.31 283.859C385.878 284.324 385.286 284.609 384.652 284.656C369.906 285.754 355.098 285.758 340.351 284.669C339.716 284.624 339.123 284.339 338.689 283.874C338.256 283.408 338.015 282.795 338.015 282.159L338.02 263.566Z" fill="#2794D7"/>
<path fill-rule="evenodd" clip-rule="evenodd" d="M348.145 268.136C357.714 268.58 367.281 268.577 376.848 268.128V280.946C367.279 281.395 357.711 281.398 348.145 280.954V268.136Z" fill="#FFD297"/>
<path d="M374.66 279.832C366.555 280.151 358.452 280.151 350.349 279.832C350.239 279.827 350.134 279.779 350.057 279.699C349.981 279.619 349.937 279.513 349.937 279.402V269.642C349.936 269.589 349.947 269.537 349.968 269.488C349.989 269.439 350.02 269.395 350.059 269.359C350.097 269.322 350.143 269.294 350.193 269.276C350.243 269.258 350.296 269.25 350.349 269.253C358.455 269.567 366.559 269.565 374.66 269.245C374.713 269.242 374.766 269.249 374.816 269.268C374.867 269.286 374.912 269.314 374.951 269.35C374.99 269.387 375.021 269.431 375.042 269.48C375.063 269.529 375.074 269.581 375.074 269.635V279.394C375.075 279.507 375.032 279.615 374.955 279.697C374.878 279.778 374.772 279.827 374.66 279.832ZM350.763 279.031C358.592 279.324 366.42 279.322 374.247 279.025V270.089C366.417 270.386 358.59 270.386 350.763 270.089V279.031Z" fill="#E2902A"/>
<path fill-rule="evenodd" clip-rule="evenodd" d="M356.19 236.221C357.326 238.029 358.071 240.042 358.756 242.053C359.174 243.247 359.527 244.649 359.512 245.921C359.496 247.193 359.108 248.578 358.677 249.77C357.997 251.742 357.266 253.717 356.19 255.515C356.591 259.384 368.381 259.351 368.835 255.515C367.761 253.718 367.03 251.742 366.35 249.771C365.919 248.581 365.527 247.198 365.515 245.922C365.503 244.646 365.851 243.248 366.271 242.054C366.956 240.043 367.698 238.03 368.835 236.221C368.937 232.758 365.818 230.059 362.513 229.99C359.089 229.911 356.238 232.864 356.19 236.221Z" fill="#E2902A"/>
<path d="M334.729 220.462C330.538 220.101 326.641 218.312 323.574 215.625C319.084 211.691 317.253 205.62 317.105 199.841C317.001 195.837 317.637 190.87 321.552 188.581C325.067 186.526 329.842 187.327 333.381 188.911C334.467 189.396 335.042 190.658 334.657 191.711C334.271 192.763 333.069 193.197 331.989 192.719C329.615 191.67 326.333 190.966 323.996 192.317C321.369 193.836 321.204 197.704 321.27 200.352C321.384 204.779 322.676 209.471 326.134 212.649C329.209 215.475 333.908 216.803 338.032 216.224C339.16 216.065 340.284 216.858 340.539 218.006C340.795 219.153 340.08 220.22 338.956 220.388C337.551 220.598 336.147 220.542 334.729 220.462Z" fill="#E2902A"/>
<path d="M390.113 220.462C388.694 220.542 387.291 220.598 385.884 220.388C384.76 220.22 384.046 219.155 384.3 218.006C384.555 216.857 385.684 216.059 386.808 216.224C390.949 216.826 395.597 215.419 398.706 212.649C402.195 209.534 403.458 204.731 403.57 200.351C403.638 197.703 403.48 193.941 400.844 192.317C398.548 190.901 395.132 191.72 392.851 192.719C391.768 193.194 390.567 192.757 390.184 191.704C389.801 190.651 390.377 189.39 391.459 188.911C394.99 187.345 399.759 186.566 403.289 188.581C407.177 190.799 407.832 195.923 407.736 199.841C407.587 205.621 405.752 211.695 401.267 215.625C398.147 218.366 394.246 220.057 390.113 220.462Z" fill="#E2902A"/>
<path fill-rule="evenodd" clip-rule="evenodd" d="M330.856 191.389V182.951C330.904 179.636 333.756 176.881 337.14 177.284C353.966 178.709 370.882 178.709 387.708 177.284C388.507 177.206 389.313 177.291 390.077 177.534C390.841 177.778 391.547 178.175 392.153 178.702C392.739 179.242 393.206 179.9 393.522 180.632C393.839 181.364 393.999 182.154 393.992 182.951C393.992 185.807 393.992 188.669 393.992 191.538C393.848 203.259 391.145 215.201 384.724 225.14C379.792 232.782 371.987 239.561 362.424 239.561C352.828 239.561 345.041 232.749 340.098 225.084C333.703 215.188 330.856 203.084 330.856 191.389Z" fill="#FAB243"/>
<path fill-rule="evenodd" clip-rule="evenodd" d="M362.333 192.87C370.959 192.822 378.486 199.783 378.484 208.53C378.484 217.202 371.153 225.145 362.334 225.083C353.592 225.024 346.187 217.173 346.183 208.52C346.18 199.806 353.79 192.915 362.333 192.87Z" fill="#FFD297"/>
<path d="M362.341 227.762C351.976 227.762 343.509 218.558 343.507 208.358C343.507 198.075 352.253 190.186 362.341 190.186C372.429 190.186 381.178 198.081 381.174 208.366C381.171 218.569 372.703 227.766 362.341 227.762ZM362.341 191.028C352.695 191.028 344.345 198.588 344.348 208.408C344.348 218.155 352.447 226.916 362.341 226.919C372.234 226.923 380.33 218.164 380.333 208.42C380.338 198.597 371.985 191.031 362.341 191.031V191.028Z" fill="#E2902A"/>
<path fill-rule="evenodd" clip-rule="evenodd" d="M361.739 200.242C361.781 200.116 361.862 200.006 361.969 199.929C362.077 199.851 362.206 199.809 362.339 199.809C362.472 199.809 362.601 199.851 362.709 199.929C362.816 200.006 362.897 200.116 362.939 200.242C363.569 202.173 364.199 204.104 364.83 206.035C364.871 206.161 364.952 206.27 365.059 206.347C365.167 206.424 365.297 206.465 365.43 206.463C367.469 206.442 369.508 206.399 371.547 206.333C371.679 206.328 371.808 206.365 371.917 206.44C372.025 206.515 372.106 206.622 372.148 206.747C372.188 206.875 372.187 207.012 372.146 207.139C372.105 207.267 372.025 207.378 371.918 207.459C370.274 208.702 368.624 209.937 366.968 211.164C366.86 211.243 366.781 211.354 366.74 211.481C366.699 211.607 366.698 211.744 366.739 211.87C367.368 213.792 367.999 215.715 368.63 217.639C368.671 217.766 368.671 217.903 368.63 218.03C368.589 218.157 368.508 218.267 368.401 218.346C368.295 218.427 368.166 218.472 368.032 218.474C367.899 218.477 367.769 218.437 367.66 218.361C366.003 217.19 364.353 216.01 362.709 214.822C362.601 214.744 362.471 214.702 362.338 214.702C362.205 214.702 362.075 214.744 361.968 214.822C360.324 216.01 358.673 217.189 357.017 218.359C356.908 218.435 356.777 218.474 356.644 218.472C356.511 218.469 356.382 218.424 356.276 218.344C356.169 218.265 356.089 218.154 356.047 218.027C356.006 217.9 356.006 217.763 356.046 217.636C356.677 215.714 357.307 213.792 357.937 211.869C357.978 211.742 357.978 211.606 357.937 211.479C357.896 211.353 357.816 211.242 357.709 211.163C356.051 209.935 354.401 208.699 352.758 207.453C352.652 207.373 352.573 207.261 352.532 207.134C352.491 207.007 352.49 206.871 352.53 206.743C352.571 206.618 352.651 206.51 352.759 206.435C352.867 206.36 352.997 206.323 353.128 206.328C355.168 206.394 357.208 206.437 359.248 206.458C359.381 206.459 359.51 206.418 359.618 206.341C359.726 206.264 359.807 206.155 359.848 206.029L361.739 200.242Z" fill="white"/>
<path fill-rule="evenodd" clip-rule="evenodd" d="M396.021 179.906C396.07 178.046 394.282 176.674 392.559 176.822C372.81 178.528 351.607 179.368 332.112 176.803C330.278 176.563 328.716 178.113 328.651 179.886C328.694 181.681 330.202 183.567 332.112 183.737C351.904 185.507 373.015 186.272 392.559 183.756C394.343 183.527 396.082 181.851 396.021 179.907V179.906Z" fill="#FFD297"/>
<path fill-rule="evenodd" clip-rule="evenodd" d="M338.023 260.922C338.397 257.329 346.682 256.303 349.213 255.572C357.63 253.143 366.398 253.211 374.831 255.655C377.221 256.347 386.784 257.37 386.982 260.908V263.535C370.689 264.875 354.314 264.88 338.021 263.549V260.922H338.023Z" fill="#FAB243"/>
<path d="M264.431 289.178C272.089 293.891 284.615 295.053 293.236 294.698C293.469 294.688 293.707 294.673 293.951 294.65C302.717 293.86 317.974 285.298 317.974 285.298L316.707 280.672L313.249 268.026L301.777 259.761L288.166 267.16L284.737 274.697C272.637 274.242 268.327 280.668 266.071 284.675C264.676 287.143 264.431 289.178 264.431 289.178Z" fill="#FF4A66"/>
<path d="M264.431 289.179C272.089 293.892 284.615 295.054 293.236 294.699C293.469 294.689 293.707 294.673 293.951 294.651C294.19 276.796 284.736 274.693 284.736 274.693C272.635 274.237 268.326 280.664 266.07 284.671C264.676 287.144 264.431 289.179 264.431 289.179Z" fill="white"/>
<path d="M323.487 182.501C317.127 206.329 318.147 206.329 318.147 206.329L318.338 221.412L318.747 253.66L318.969 271.107C318.969 271.107 298.633 281.423 280.763 270.103L282.863 252.28L288.158 207.356L297.348 152.361L298.127 147.688L326.993 149.478C326.993 149.478 329.855 158.672 323.487 182.501Z" fill="#5555CD"/>
<path d="M318.333 221.41L298.249 194.4L297.343 152.36L288.153 207.354L282.858 252.278L290.29 262.791L318.742 253.658L318.333 221.41Z" fill="#3C3BA3"/>
<path d="M292.442 246.85C292.642 246.875 301.11 247.942 296.705 258.703C296.163 260.006 295.536 261.273 294.828 262.494C290.617 269.853 289.973 275.543 290.356 279.36C290.728 283.047 292.055 284.983 292.055 284.983L307.083 272.763L327.027 256.545L325.339 253.085L318.475 241.766C310.054 235.502 292.724 246.674 292.442 246.85Z" fill="#FF4A66"/>
<path d="M290.356 279.361C290.728 283.047 292.055 284.984 292.055 284.984L307.083 272.763C305.673 267.014 302.11 261.795 297.037 258.888L296.705 258.703C296.163 260.006 295.536 261.273 294.828 262.494C290.617 269.858 289.973 275.543 290.356 279.361Z" fill="white"/>
<path d="M290.354 279.358C290.725 283.045 292.053 284.981 292.053 284.981L327.024 256.543L325.336 253.083C325.256 252.936 323.604 249.524 318.042 251.99C311.671 254.81 296.624 263.249 290.354 279.358Z" fill="#FAB243"/>
<path d="M327.016 256.546C327.016 256.546 325.558 252.666 317.133 258.015C308.707 263.364 292.874 274.809 291.767 283.716C290.66 292.623 332.182 265.374 327.016 256.546Z" fill="#1E1E6B"/>
<path d="M282.31 145.671C282.31 145.671 271.598 188.14 270.784 198.711C269.97 209.282 287.047 256.693 290.3 262.791C290.3 262.791 292.129 253.644 310.018 250.391C327.907 247.139 325.671 242.261 325.671 242.261L294.163 194.234L298.135 147.679L282.31 145.671Z" fill="#5555CD"/>
<path d="M251.154 83.8388L250.939 94.293L247.751 95.2276L244.17 96.279L237.119 90.6975C236.909 90.5217 236.673 90.3786 236.42 90.2731C236.277 90.2125 236.129 90.1647 235.977 90.1303C235.864 90.106 235.749 90.0895 235.633 90.081C235.555 90.0732 235.476 90.0706 235.397 90.0732C231.784 90.1563 228.751 89.5176 226.311 88.5052C224.161 87.6135 222.47 86.4284 221.249 85.194C221.029 84.9733 220.827 84.75 220.637 84.5268C220.524 84.397 220.418 84.2594 220.315 84.1257C220.214 83.9959 220.118 83.8596 220.027 83.7272C219.966 83.6376 219.908 83.5494 219.852 83.4676C219.74 83.2911 219.639 83.1158 219.546 82.9419C219.522 82.8991 219.499 82.8549 219.477 82.8121C219.388 82.6395 219.312 82.4681 219.243 82.302C219.208 82.2176 219.177 82.1332 219.146 82.0424C218.812 81.0961 218.794 80.2485 219.103 79.6281C219.148 79.5387 219.198 79.452 219.253 79.3685C219.308 79.2873 219.368 79.2097 219.433 79.1361C221.329 76.9684 226.844 78.9245 226.961 78.9635C225.663 77.8095 226.572 75.5198 227.77 76.3207C228.968 77.1216 232.973 77.3371 237.938 76.2156C241.389 75.4368 244.286 78.0652 245.726 79.7371C246.58 80.7253 247.575 81.5822 248.679 82.2799L251.154 83.8388Z" fill="#F5AE97"/>
<path d="M247.751 95.2276L244.169 96.279L237.119 90.6975C236.908 90.5216 236.672 90.3785 236.419 90.2731C236.276 90.2125 236.128 90.1647 235.976 90.1303C235.863 90.106 235.748 90.0895 235.632 90.081C235.554 90.0732 235.475 90.0706 235.396 90.0732C231.784 90.1562 228.75 89.5176 226.31 88.5052C224.16 87.6134 222.469 86.4283 221.248 85.1939C221.028 84.9746 220.826 84.7513 220.636 84.5267C220.523 84.3969 220.417 84.2606 220.314 84.1256C220.213 83.9958 220.117 83.8596 220.026 83.7272C219.965 83.6376 219.907 83.5493 219.851 83.4676C219.738 83.291 219.637 83.1158 219.545 82.9419C219.521 82.899 219.498 82.8549 219.476 82.8121C219.389 82.639 219.312 82.4689 219.242 82.3019C219.207 82.2176 219.176 82.1332 219.145 82.0423C218.81 81.0961 218.792 80.2485 219.101 79.6267C219.146 79.5369 219.196 79.4502 219.253 79.3671C219.307 79.286 219.367 79.2083 219.432 79.1348C219.503 84.5955 227.725 87.2227 227.725 87.2227C241.12 91.2466 244.652 81.2103 244.792 80.8027C245.504 84.1983 239.99 88.966 239.99 88.966L247.751 95.2276Z" fill="#ED856E"/>
<path d="M226.959 78.9595C226.959 78.9595 231.031 79.92 236.546 78.8777C236.546 78.8777 231.396 81.4958 226.959 78.9595Z" fill="#ED856E"/>
<path d="M328.822 150.669C308.068 159.755 278.02 149.241 280.761 144.486C283.503 139.731 285.255 109.946 285.255 109.946C285.255 109.946 280.339 114.897 273.273 117.494C266.207 120.091 238.227 95.8585 238.227 95.8585C239.247 95.4366 240.263 94.7798 241.255 93.9686C246.707 89.5125 251.352 80.4238 251.352 80.4238L270.519 94.2866L272.693 95.8585C272.839 95.6742 282.245 83.8466 286.539 78.4066C290.866 72.9264 300.734 71.8036 300.734 71.8036L312.546 71.139C312.546 71.139 323.78 73.2081 326.736 78.2561C327.219 79.0816 327.599 81.5712 327.904 85.1628C328.409 91.2285 328.683 100.431 328.813 110.037C329.096 129.52 328.822 150.669 328.822 150.669Z" fill="#FAB243"/>
<path d="M286.138 98.7793L285.255 109.942C285.255 109.942 280.339 114.893 273.273 117.49C266.207 120.088 238.227 95.8549 238.227 95.8549C239.247 95.433 240.263 94.7762 241.255 93.965C241.255 93.965 266.478 112.601 271.499 112.689C276.519 112.777 286.138 98.7793 286.138 98.7793Z" fill="#E2902A"/>
<path d="M272.15 101.193C272.199 102.709 269.825 99.0023 270.526 94.2866L272.7 95.8585C272.7 95.8585 272.093 99.4281 272.15 101.193Z" fill="#E2902A"/>
<path d="M318.853 61.5739C318.845 61.5739 318.844 61.5739 318.837 61.5739C318.526 61.7037 318.215 61.8335 317.918 61.9309C317.189 62.1798 316.442 62.3699 315.683 62.4994C315.51 62.5273 315.348 62.6028 315.215 62.7174C315.083 62.832 314.984 62.9812 314.931 63.1484C314.401 64.706 313.047 67.9407 312.548 71.1377C310.22 72.781 308.336 73.7493 306.815 74.253C306.074 74.5145 305.3 74.6705 304.516 74.7164C302.258 74.8111 300.451 72.8537 300.648 70.6016L300.766 69.2543L300.943 67.2268C291.928 66.0664 294.72 49.2544 294.72 49.2544L298.146 38.1174L310.087 36.578L316.777 52.371C316.777 52.371 322.592 50.0995 322.801 56.2157C322.893 59.096 320.854 60.6978 318.853 61.5739Z" fill="#F5AE97"/>
<path d="M317.623 55.685C317.473 54.8672 318.47 54.3026 319.1 54.8439C319.619 55.2943 319.98 56.1341 319.23 57.6865C317.771 60.7018 316.291 59.0014 316.595 58.0591C316.898 57.1167 317.85 56.8597 317.633 55.7226C317.627 55.7071 317.624 55.6954 317.623 55.685Z" fill="#ED856E"/>
<path d="M317.931 61.9349C317.203 62.1846 316.455 62.3747 315.696 62.5035C315.696 62.5035 313.673 62.2919 313.711 60.3591C313.813 60.5564 314.92 62.5865 317.931 61.9349Z" fill="#ED856E"/>
<path d="M316.43 52.7995C316.43 52.7995 311.757 55.7499 307.633 48.3395C307.633 48.3395 305.495 44.4676 305.138 42.0545C304.854 40.14 303.251 42.2635 303.222 43.093C303.222 43.093 302.538 38.3435 299.942 41.9338C299.942 41.9338 299.243 42.7126 297.036 47.5711L297.772 37.8217L304.003 34.269L314.419 35.6787L318.285 40.4982L321.673 47.3517L316.43 52.7995Z" fill="#ED856E"/>
<path d="M326.054 37.8682C326.021 37.8873 325.983 37.8965 325.944 37.8946C325.906 37.8927 325.869 37.8799 325.838 37.8576C325.807 37.8353 325.782 37.8044 325.768 37.7688C325.754 37.7332 325.751 37.6942 325.758 37.6566C325.986 36.6182 326.676 34.0027 327.926 33.7625C329.43 33.4809 329.187 36.0185 326.054 37.8682Z" fill="#0E4959"/>
<path d="M326.513 38.7357C326.49 38.7219 326.471 38.702 326.458 38.6783C326.446 38.6546 326.44 38.6279 326.442 38.6012C326.443 38.5744 326.452 38.5486 326.467 38.5265C326.483 38.5045 326.504 38.487 326.528 38.4761C327.264 38.2087 329.151 37.6181 329.785 38.2996C330.551 39.1147 328.88 39.9506 326.513 38.7357Z" fill="#0E4959"/>
<path d="M323.401 52.9397C323.057 53.3213 322.68 53.7185 322.279 54.1079C322.279 54.1079 321.174 50.6032 316.682 52.6982C312.463 54.6544 306.177 46.704 306.21 41.508C306.22 40.5748 305.346 39.8115 304.464 40.136C304.058 40.2827 303.634 40.6332 303.27 41.3211C303.27 41.3211 302.831 38.0981 300.123 40.7162C297.416 43.3343 297.889 49.2001 294.469 50.5812C291.743 51.6884 291.01 49.352 291.407 46.1186C291.528 45.2484 291.701 44.3862 291.926 43.5368C293.094 39.1236 291.311 35.9188 295.445 34.2015C295.445 34.2015 300.089 26.011 305.526 31.107C305.526 31.107 311.812 27.2454 318.559 30.3516C325.306 33.4577 325.165 39.1145 325.165 39.1145C325.165 39.1145 331.784 43.7354 323.401 52.9397Z" fill="#011C2D"/>
<path d="M323.401 52.9395C323.057 53.3211 322.68 53.7183 322.279 54.1077C322.279 54.1077 321.174 50.603 316.682 52.698C312.463 54.6542 306.177 46.7038 306.21 41.5078C306.22 40.5746 305.346 39.8113 304.464 40.1358C304.058 40.2825 303.634 40.633 303.27 41.3209C303.27 41.3209 302.831 38.0979 300.123 40.716C297.416 43.3341 297.889 49.1999 294.469 50.581C291.743 51.6882 291.01 49.3518 291.407 46.1184H291.416C291.416 46.1184 291.978 50.4317 294.5 48.6521C297.022 46.8725 299.396 33.0409 303.434 39.6231C303.434 39.6231 306.633 36.2574 307.316 41.3105C307.998 46.3637 313.148 51.4234 316.134 50.3668C319.121 49.3102 322.959 50.7354 323.321 52.6305C323.342 52.7348 323.369 52.8379 323.401 52.9395Z" fill="#06252C"/>
<path d="M310.201 38.551C310.201 38.551 310.47 47.031 319.18 48.5068C319.18 48.5081 313.291 45.3267 310.201 38.551Z" fill="#06252C"/>
<path d="M324.961 40.9993C324.961 40.9993 327.994 43.9756 323.688 49.8349C323.688 49.8349 326.033 45.1386 324.961 40.9993Z" fill="#06252C"/>
<path d="M304.819 32.3557C304.819 32.3557 300.618 28.2319 296.582 34.8128C296.582 34.8128 299.464 30.6903 304.819 32.3557Z" fill="#06252C"/>
<path d="M323.598 38.4276C323.598 38.4276 320.411 29.6764 308.861 32.057C308.863 32.0608 318.822 31.6195 323.598 38.4276Z" fill="#06252C"/>
<path d="M303.615 49.9738C303.771 49.7555 304.002 49.6025 304.264 49.5442C304.569 49.4713 304.89 49.5062 305.172 49.6428C305.723 49.8895 306.317 50.593 306.182 51.216C306.128 51.4756 306.391 51.7197 306.629 51.7352C306.918 51.7586 307.096 51.547 307.148 51.29C307.265 50.7462 307.031 50.201 306.733 49.7584C306.428 49.3036 306.001 48.9438 305.501 48.72C304.581 48.3085 303.412 48.5655 302.819 49.3988C302.457 49.9102 303.249 50.4723 303.611 49.9634L303.615 49.9738Z" fill="#072C35"/>
<path d="M295.598 48.7885C295.728 48.2771 296.435 47.841 296.952 47.8215C297.549 47.7994 298.061 48.3628 298.34 48.9079C298.408 49.0169 298.516 49.0949 298.641 49.125C298.766 49.1551 298.898 49.1349 299.008 49.0689C299.116 49.0001 299.193 48.8919 299.223 48.7672C299.253 48.6425 299.234 48.5109 299.169 48.4004C298.74 47.5632 297.871 46.7818 296.875 46.8532C295.934 46.9207 294.903 47.6073 294.657 48.5484C294.641 48.6102 294.637 48.6745 294.647 48.7376C294.656 48.8007 294.677 48.8614 294.71 48.9163C294.742 48.9711 294.785 49.019 294.836 49.0572C294.887 49.0954 294.945 49.1232 295.007 49.139C295.069 49.1547 295.133 49.1582 295.196 49.1491C295.259 49.14 295.32 49.1186 295.375 49.0861C295.43 49.0535 295.478 49.0105 295.516 48.9594C295.554 48.9084 295.582 48.8503 295.598 48.7885Z" fill="#072C35"/>
<path d="M297.239 51.5764C297.357 50.8227 297.069 50.152 296.597 50.0783C296.124 50.0046 295.646 50.5558 295.528 51.3094C295.411 52.063 295.698 52.7337 296.171 52.8074C296.643 52.8812 297.122 52.33 297.239 51.5764Z" fill="#072C35"/>
<path d="M304.785 52.7657C304.909 51.971 304.606 51.2637 304.107 51.1858C303.608 51.108 303.103 51.6892 302.979 52.4839C302.855 53.2786 303.159 53.9859 303.658 54.0638C304.156 54.1416 304.661 53.5604 304.785 52.7657Z" fill="#072C35"/>
<path d="M297.24 59.2871L302.19 59.2715C302.261 59.271 302.332 59.2865 302.396 59.3169C302.46 59.3473 302.517 59.3917 302.561 59.447C302.606 59.5022 302.638 59.5669 302.654 59.636C302.67 59.7052 302.67 59.7772 302.655 59.8465C302.406 60.9291 301.639 63.1461 299.559 63.0137C297.48 62.8813 296.923 60.8252 296.772 59.8258C296.763 59.7588 296.768 59.6905 296.787 59.6256C296.806 59.5607 296.838 59.5006 296.883 59.4495C296.927 59.3984 296.982 59.3574 297.044 59.3294C297.105 59.3014 297.172 59.2869 297.24 59.2871Z" fill="#CB6655"/>
<path d="M306.846 70.12C305.82 71.1974 306.143 72.8017 306.824 74.2542C306.083 74.5157 305.31 74.6717 304.525 74.7176C302.267 74.8124 300.46 72.8549 300.657 70.6029L300.775 69.2555L309.091 65.5186C309.091 65.5186 309.162 67.6901 306.846 70.12Z" fill="#ED856E"/>
<path d="M305.467 71.7803L306.781 77.9654C306.781 77.9654 295.701 81.775 295.764 79.5775C295.786 78.7585 296.084 75.3382 295.81 73.6066C295.349 70.7043 294.317 70.0877 293.511 65.2058C292.815 60.9821 294.486 58.2822 294.549 58.1901C294.697 62.0426 296.577 64.5413 296.577 64.5413C302.212 70.9807 308.519 64.1363 308.519 64.1363C310.261 65.7783 307.61 68.5223 306.115 69.8333C305.843 70.0709 305.64 70.3766 305.526 70.7188C305.413 71.0611 305.392 71.4275 305.467 71.7803Z" fill="#F5AE97"/>
<path d="M308.514 64.1312C308.178 65.8187 301.593 71.0834 297.238 66.8701C292.94 62.7164 294.501 58.3031 294.542 58.1876C294.69 62.0401 296.57 64.5388 296.57 64.5388C302.206 70.9757 308.514 64.1312 308.514 64.1312Z" fill="#ED856E"/>
<path d="M328.826 110.034C324.882 118.034 319.439 124.16 312.471 124.408C285.811 125.358 292.313 81.214 292.313 81.214L317.931 96.2788L327.914 85.16C328.419 91.2256 328.689 100.429 328.826 110.034Z" fill="#E2902A"/>
<path d="M328.858 94.8212C328.858 94.8212 325.287 121.222 310.505 121.235C292.525 121.253 292.309 81.2141 292.309 81.2141C297.947 71.6711 309.357 73.1378 309.357 73.1378L311.627 90.6779C311.75 86.6541 312.406 83.5648 313.307 81.2024C314.374 78.3935 315.773 76.6191 316.984 75.5184C317.699 74.8714 318.587 74.445 319.539 74.2905C320.491 74.136 321.468 74.2599 322.351 74.6474C332.326 78.9854 328.858 94.8212 328.858 94.8212Z" fill="#FAB243"/>
<path d="M313.309 103.942L311.629 90.6784C311.752 86.6545 312.408 83.5653 313.309 81.2029C312.588 85.6694 313.309 103.942 313.309 103.942Z" fill="#E2902A"/>
</g>
<defs>
<clipPath id="clip0_27_851">
<rect width="422" height="277.89" rx="5" fill="white"/>
</clipPath>
</defs>
</svg>
