<svg width="431" height="293" viewBox="0 0 431 293" fill="none" xmlns="http://www.w3.org/2000/svg">
<path d="M406.003 263.895C406.003 279.848 331.634 292.785 239.89 292.785C187.755 292.785 141.234 288.604 110.776 282.073C87.6431 277.109 73.7842 270.781 73.7842 263.895C73.7842 247.936 148.153 234.998 239.89 234.998C308.639 234.998 367.627 242.254 392.878 252.615C401.329 256.087 406.003 259.894 406.003 263.895Z" fill="#D8F4F4"/>
<path d="M387.881 209.456C387.881 209.456 416.483 167.231 430.073 184.422C430.073 184.422 435.77 195.624 418.922 202.753C402.845 209.555 387.881 209.456 387.881 209.456Z" fill="#2A6834"/>
<path d="M420.322 189.95C420.322 189.95 402.373 198.368 387.887 209.456C387.88 209.456 410.095 198.967 420.322 189.95Z" fill="#1E5124"/>
<path d="M359.882 238.643C359.882 238.643 440.213 172.122 417.862 151.342C393.923 129.08 363.271 210.283 359.882 238.643Z" fill="#378747"/>
<path d="M406.727 163.848C406.727 163.848 377.847 199.133 359.882 238.643C359.882 238.643 402.197 174.983 406.727 163.848Z" fill="#2A7236"/>
<path d="M362.529 233.198C362.529 233.198 402.755 187.467 418.601 200.879C434.447 214.291 405.093 233.34 405.093 233.34C405.093 233.34 419.083 228.495 420.434 235.514C421.786 242.533 404.339 251.501 382.968 250.443C361.597 249.386 352.307 247.962 362.529 233.198Z" fill="#8DA64C"/>
<path d="M405.817 214.477C405.817 214.477 386.29 223.006 358.691 244.774C358.691 244.78 382.887 233.961 405.817 214.477Z" fill="#788E35"/>
<path d="M402.845 240.359C402.845 240.359 381.059 240.032 358.691 244.78C358.691 244.78 377.604 246.369 402.845 240.359Z" fill="#788E35"/>
<path d="M392.878 252.621C381.774 275.393 156.258 286.818 110.776 282.073C87.6431 277.109 73.7842 270.781 73.7842 263.895C73.7842 247.936 148.153 234.998 239.89 234.998C308.639 235.005 367.627 242.264 392.878 252.621Z" fill="#C3EAE9"/>
<path d="M356.583 190.118C331.444 206.501 300.26 212.944 270.573 209.13C270.572 209.132 270.571 209.133 270.569 209.134C270.567 209.135 270.565 209.135 270.564 209.135C270.562 209.135 270.56 209.135 270.558 209.134C270.556 209.133 270.555 209.132 270.554 209.13C264.908 208.418 259.316 207.33 253.816 205.871C187.666 249.332 68.6403 225.084 59.7969 145.023C59.6607 143.801 59.5487 142.561 59.4672 141.315C55.9207 84.8428 124.314 38.4287 191.972 43.0904C192.122 42.9096 192.271 42.7225 192.432 42.5417C236.324 -11.3804 322.514 -12.521 370.904 30.5337C386.371 44.2997 397.975 62.5835 403.104 85.1051C412.151 126.697 391.73 167.64 356.583 190.118Z" fill="#C2EFEE"/>
<path d="M370.903 30.5298C355.224 94.8853 284.163 149.948 192.813 162.106C143.887 168.619 97.3625 161.732 59.7867 145.019C59.6504 143.797 59.5384 142.557 59.4569 141.311C55.9104 84.8389 124.304 38.4248 191.961 43.0865C192.112 42.9057 192.261 42.7186 192.422 42.5378C236.323 -11.3843 322.514 -12.5249 370.903 30.5298Z" fill="#D8F4F4"/>
<path d="M228.859 69.5478V100.537C228.859 117.722 214.927 131.649 197.746 131.649H124.591C107.406 131.649 93.4785 117.717 93.4785 100.537V69.5478C93.4785 52.3626 107.41 38.4362 124.591 38.4362H197.746C199.528 38.4357 201.308 38.5882 203.064 38.8919C217.714 41.4112 228.859 54.1753 228.859 69.5478Z" fill="#F5B54E"/>
<path d="M221.499 69.5478V100.537C221.499 117.722 207.567 131.649 190.386 131.649H117.226C100.041 131.649 86.1133 117.717 86.1133 100.537V69.5478C86.1133 52.3626 100.045 38.4362 117.226 38.4362H190.381C194.466 38.4357 198.512 39.2401 202.287 40.8034C206.062 42.3667 209.492 44.6583 212.381 47.5474C215.271 50.4365 217.562 53.8664 219.126 57.6413C220.689 61.4161 221.494 65.462 221.493 69.5478H221.499Z" fill="#FFDB80"/>
<path d="M154.165 98.5133C168.55 98.5133 180.21 84.3077 180.21 66.7843C180.21 49.2608 168.55 35.0553 154.165 35.0553C139.781 35.0553 128.12 49.2608 128.12 66.7843C128.12 84.3077 139.781 98.5133 154.165 98.5133Z" fill="#F4C458"/>
<path d="M205.651 45.845C205.239 44.4303 204.773 43.047 204.251 41.6951C200.901 40.0249 197.276 38.9776 193.551 38.6043C192.5 38.4906 191.443 38.4341 190.385 38.435H175.564C177.651 39.6226 179.518 41.1593 181.085 42.9783C181.34 43.271 181.584 43.5702 181.827 43.8693C181.983 44.0692 182.131 44.2678 182.288 44.474C184.019 46.8583 185.352 49.5079 186.234 52.3194C186.683 53.726 187.031 55.1631 187.274 56.6195C188.466 63.9482 187.292 71.466 183.921 78.082C183.648 78.6179 183.361 79.1347 183.062 79.6452C181.707 81.9555 180.047 84.0728 178.127 85.9401C177.834 86.2201 177.541 86.4938 177.236 86.756C175.483 88.3131 173.51 89.6026 171.38 90.5826C171.308 90.6227 171.233 90.6581 171.156 90.6883C170.088 91.1658 168.981 91.5491 167.846 91.834C167.833 91.834 167.816 91.834 167.803 91.8467C166.386 92.2 164.934 92.39 163.475 92.4132C162.884 92.4255 162.293 92.4069 161.704 92.3571C161.181 92.3139 160.664 92.2515 160.141 92.1637L160.034 92.1458C159.554 92.0644 159.08 91.9587 158.613 91.8467C158.572 91.8328 158.529 91.8222 158.486 91.8149L158.019 91.6876C154.928 90.7837 152.163 89.1021 149.837 86.8337C143.749 80.9067 140.626 70.9736 142.39 60.4665C143.393 54.4835 145.836 49.1942 149.164 45.0812C150.651 43.2243 152.38 41.5747 154.305 40.1764C154.473 40.0491 154.641 39.9333 154.815 39.8213C155.55 39.3119 156.315 38.8477 157.106 38.4312H130.958C128.745 42.3802 127.016 46.5816 125.81 50.9446C125.267 52.9149 124.826 54.9119 124.488 56.9276C124.208 58.5977 124.003 60.2594 123.872 61.9126C123.334 68.3122 123.916 74.7567 125.592 80.9563C126.583 84.6227 127.987 88.1644 129.779 91.5132C130.397 92.6597 131.053 93.7689 131.748 94.8407C134.828 99.5711 138.685 103.596 143.172 106.644C147.148 109.36 151.627 111.257 156.345 112.222C156.751 112.309 157.168 112.384 157.58 112.452C157.58 112.464 157.591 112.464 157.597 112.464C158.645 112.64 159.698 112.769 160.745 112.846L161.194 112.883C161.549 112.902 161.897 112.921 162.253 112.934C164.371 113.007 166.492 112.897 168.591 112.603C168.983 112.547 169.383 112.484 169.775 112.415C171.853 112.051 173.897 111.513 175.885 110.808C176.19 110.702 176.502 110.59 176.808 110.472C177.094 110.36 177.381 110.248 177.667 110.129C178.459 109.811 179.238 109.462 180.011 109.094C181.791 108.228 183.509 107.239 185.152 106.135C185.507 105.898 185.856 105.661 186.205 105.412C186.517 105.188 186.835 104.951 187.146 104.714C189.138 103.219 191.006 101.564 192.73 99.7659C199.859 92.375 205.068 82.3261 207.007 70.7636C208.467 62.0284 207.888 53.4982 205.651 45.845Z" fill="#F4C458"/>
<path d="M191.907 113.918L187.175 116.189C186.893 116.325 186.6 116.44 186.301 116.534H186.282L185.146 106.133L184.363 98.9219L192.729 99.7646L192.736 99.7773L195.124 104.742C195.515 105.556 195.743 106.438 195.793 107.34C195.843 108.241 195.715 109.144 195.416 109.996C195.117 110.848 194.654 111.633 194.052 112.306C193.45 112.979 192.721 113.526 191.907 113.918Z" fill="#F4CD6C"/>
<path d="M144.065 116.009L154.825 116.536L151.992 114.443L144.065 116.009Z" fill="#5887CC"/>
<path d="M184.381 117.496L179.65 119.767C179.368 119.903 179.075 120.019 178.776 120.113C178.767 120.121 178.756 120.126 178.744 120.126C177.167 120.623 175.464 120.535 173.946 119.879C172.429 119.222 171.199 118.04 170.482 116.55L169.282 114.051L167.435 110.215L160.323 95.4149L158.574 91.7741L156.831 88.1462C156.045 86.5035 155.943 84.6165 156.546 82.8985C157.149 81.1806 158.409 79.7717 160.049 78.9807L164.779 76.7033C166.422 75.9165 168.311 75.8139 170.029 76.4183C171.748 77.0227 173.156 78.2845 173.945 79.9265L175.531 83.2286L181.814 96.292L185.201 103.346L185.207 103.358L187.596 108.323C188.386 109.966 188.491 111.855 187.888 113.575C187.285 115.296 186.023 116.706 184.381 117.496Z" fill="#3473B2"/>
<path d="M196.321 44.2741C195.526 42.3239 194.599 40.4296 193.549 38.6043L193.454 38.435C192.701 37.1391 191.895 35.8886 191.036 34.6835C185.053 26.3455 176.503 20.4885 166.377 18.7929C165.009 18.5659 163.63 18.4184 162.245 18.3511L162.133 18.3384C162.116 18.3411 162.1 18.3411 162.083 18.3384L154.063 17.996L153.87 17.9896H153.857L154.972 18.7305C153.556 18.9474 152.154 19.245 150.771 19.6216C142.526 21.8722 134.961 26.9132 129.023 33.9617C127.815 35.3888 126.687 36.8822 125.645 38.435C122.519 43.108 120.125 48.2315 118.547 53.628C117.881 55.8853 117.353 58.1808 116.965 60.5021C116.602 62.6592 116.363 64.8353 116.248 67.0197C115.887 73.3252 116.616 79.6457 118.403 85.7032C119.492 89.3924 121.009 92.9414 122.922 96.2779C123.559 97.3943 124.243 98.4712 124.959 99.5125C128.2 104.198 132.238 108.137 136.9 111.041C140.056 113.012 143.497 114.485 147.101 115.409C148.06 115.653 149.033 115.864 150.029 116.027C150.038 116.03 150.047 116.03 150.055 116.027C150.058 116.028 150.061 116.029 150.064 116.029C150.068 116.029 150.071 116.028 150.074 116.027C151.634 116.292 153.21 116.448 154.792 116.494C157.043 116.574 159.296 116.44 161.522 116.094C161.764 116.057 162.007 116.021 162.25 115.976C164.65 115.557 167.004 114.906 169.279 114.032C171.574 113.159 173.783 112.076 175.878 110.797C176.466 110.449 177.045 110.081 177.617 109.695C178.296 109.246 178.963 108.773 179.618 108.274C181.487 106.872 183.245 105.328 184.877 103.656C184.984 103.55 185.096 103.438 185.202 103.326C186.422 102.059 187.575 100.728 188.654 99.3381C194.001 92.4831 197.87 83.9262 199.474 74.3241C201.276 63.5865 199.986 53.1608 196.321 44.2741ZM180.207 65.9148V65.9644C180.194 67.8414 180.031 69.7144 179.72 71.5655C179.051 75.6759 177.631 79.6281 175.532 83.2248C175.265 83.6805 174.99 84.1158 174.703 84.5525C173.524 86.3555 172.147 88.0207 170.597 89.5171C169.723 90.362 168.791 91.1431 167.805 91.8543C165.858 93.2863 163.687 94.3854 161.38 95.1067C161.032 95.2188 160.677 95.3244 160.321 95.4123C159.797 95.5396 159.267 95.6554 158.731 95.742C156.709 96.0791 154.644 96.0791 152.621 95.742L152.515 95.7241C151.837 95.6063 151.165 95.4521 150.503 95.262C150.503 95.262 150.503 95.262 150.49 95.262C139.341 91.9968 132.443 78.5746 134.873 64.0473C136.107 56.7009 139.503 50.401 144.059 46.0448C147.068 43.159 150.589 41.1209 154.317 40.1891C154.646 40.1077 154.976 40.0338 155.307 39.9714H155.32C155.9 39.8526 156.487 39.7651 157.077 39.7092C158.713 39.5428 160.365 39.5972 161.988 39.8709C164.735 40.3371 167.343 41.408 169.626 43.0062C171.713 44.4792 173.532 46.3002 175.003 48.3897C175.764 49.4687 176.444 50.6021 177.039 51.7809C177.351 52.4034 177.644 53.0386 177.911 53.6993C177.918 53.7109 177.923 53.7239 177.924 53.7374C178.397 54.8906 178.797 56.0726 179.121 57.2763C179.509 58.7206 179.792 60.1908 179.968 61.6757C180.139 63.083 180.219 64.4998 180.207 65.9173V65.9148Z" fill="#4682CC"/>
<path d="M158.576 91.7665L158.488 91.8225C158.531 91.8298 158.574 91.8405 158.616 91.8543C159.083 91.9664 159.556 92.072 160.036 92.1535L160.143 92.1713C160.666 92.2591 161.183 92.3215 161.706 92.3648C161.869 91.1249 162.062 89.885 162.274 88.6566C161.143 89.8082 159.905 90.8495 158.576 91.7665ZM190.583 54.3562C190.314 52.8727 189.986 51.4186 189.597 49.9937C188.983 47.7206 188.213 45.4927 187.292 43.3258C186.955 42.5289 186.594 41.7499 186.22 40.9835C186.093 40.7289 185.966 40.4654 185.838 40.2197C185.533 39.6151 185.216 39.0231 184.878 38.4376C182.509 34.199 179.442 30.3903 175.806 27.1717C170.677 22.6653 164.495 19.5682 157.578 18.4034C156.399 18.2099 155.228 18.0729 154.063 17.9922C154.001 17.9859 153.936 17.9859 153.87 17.9795H153.857C153.676 17.9668 153.483 17.9604 153.303 17.954C138.919 17.2819 125.223 25.3373 116.586 38.449C116.311 38.8606 116.043 39.2782 115.781 39.7016C114.847 41.2101 113.975 42.7861 113.177 44.4117C111.055 48.7568 109.499 53.3557 108.547 58.0962C108.403 58.7632 108.278 59.4366 108.165 60.1151C107.45 64.3378 107.211 68.6276 107.454 72.9035C107.772 78.8937 109.101 84.7869 111.387 90.3331C112.854 93.8931 114.755 97.2587 117.045 100.354C117.809 101.372 118.61 102.367 119.451 103.307C122.91 107.196 126.997 110.362 131.603 112.575C132.232 112.885 132.862 113.167 133.512 113.421C133.587 113.459 133.661 113.484 133.736 113.515C134.472 113.815 135.219 114.095 135.979 114.338C137.709 114.91 139.48 115.347 141.276 115.646C141.34 115.662 141.405 115.675 141.47 115.683C142.343 115.827 143.209 115.938 144.074 116.008C144.984 116.089 145.888 116.135 146.792 116.135C147.877 116.148 148.956 116.11 150.032 116.023H150.064C150.393 115.998 150.724 115.967 151.06 115.929C151.889 115.842 152.715 115.724 153.541 115.58C156.107 115.128 158.62 114.412 161.038 113.443C161.107 113.417 161.165 113.387 161.237 113.361C161.58 113.225 161.923 113.081 162.255 112.932C164.046 112.146 165.779 111.234 167.44 110.202C170.898 108.06 174.058 105.47 176.837 102.5C178.655 100.565 180.318 98.4893 181.811 96.2932V96.2868C182.558 95.1844 183.281 94.0375 183.948 92.8664C186.126 89.0728 187.849 85.0359 189.083 80.8392C189.326 80.0156 189.55 79.1844 189.755 78.3455C190.086 77.0496 190.365 75.7244 190.59 74.37C190.628 74.2325 190.646 74.0899 190.672 73.9461C190.709 73.7284 190.74 73.498 190.777 73.279C190.852 72.7991 190.921 72.3256 190.977 71.8405V71.8342C191.76 66.0234 191.627 60.1257 190.583 54.3562ZM132.87 89.3784C130.433 86.793 128.515 83.5456 127.256 79.8692C125.601 75.0141 125.099 69.4244 126.065 63.6604C126.281 62.3868 126.565 61.1259 126.918 59.8834C128.02 55.9165 129.862 52.1936 132.346 48.9104C132.702 48.4419 133.063 47.9938 133.45 47.5572C138.669 41.5131 145.882 38.2644 153.181 39.4814C153.735 39.5743 154.284 39.6864 154.82 39.8302L155.299 39.9575C155.306 39.9575 155.306 39.9575 155.312 39.9575C155.623 40.0441 155.935 40.1383 156.234 40.2503C158.318 40.9832 160.26 42.0711 161.974 43.4658C164.821 45.7572 167.139 48.8556 168.76 52.4951C170.069 55.4395 170.9 58.5739 171.222 61.7802C171.259 62.0793 171.284 62.3785 171.308 62.6713V62.6776C171.434 64.3119 171.445 65.953 171.34 67.5888C171.264 68.7856 171.125 69.9775 170.923 71.1595C170.636 72.8943 170.217 74.6047 169.67 76.2756V76.282C168.998 78.3572 168.124 80.3612 167.059 82.265C165.758 84.5941 164.15 86.7382 162.279 88.6401C161.15 89.7913 159.914 90.8327 158.588 91.75L158.5 91.806C156.555 93.1687 154.397 94.1966 152.113 94.8471C151.589 95.0092 151.056 95.1401 150.517 95.2392H150.499C148.303 95.6745 146.046 95.7086 143.838 95.3397C143.319 95.2519 142.809 95.1463 142.31 95.0215C139.997 94.4254 137.817 93.3979 135.885 91.9931C134.802 91.214 133.792 90.337 132.87 89.3733V89.3784Z" fill="#66A4ED"/>
<path d="M185.209 103.352L185.203 103.339L176.838 102.498L177.621 109.708L178.757 120.109H178.776C179.075 120.015 179.368 119.9 179.65 119.763L184.381 117.492C185.195 117.101 185.923 116.554 186.525 115.881C187.128 115.208 187.591 114.423 187.89 113.572C188.189 112.72 188.317 111.817 188.267 110.916C188.217 110.014 187.99 109.131 187.599 108.318L185.209 103.352Z" fill="#3473B2"/>
<path d="M179.183 107.388L176.835 102.502L172.319 93.098L167.482 83.03C167.358 82.7706 167.216 82.5196 167.058 82.279C166.154 80.8706 164.765 79.8416 163.155 79.386C161.544 78.9304 159.822 79.0797 158.314 79.8056L153.584 82.0829C151.943 82.8729 150.682 84.2818 150.079 86.0002C149.476 87.7186 149.58 89.6062 150.367 91.2484L152.102 94.8636L156.736 104.501L161.036 113.442L163.822 119.242L164.017 119.654C164.807 121.295 166.216 122.555 167.934 123.158C169.653 123.761 171.54 123.658 173.183 122.87L177.914 120.593C179.555 119.803 180.816 118.394 181.419 116.676C182.022 114.957 181.918 113.07 181.131 111.428L179.183 107.388Z" fill="#66A4ED"/>
<path d="M126.068 63.6566C126.281 62.3826 126.564 61.1212 126.916 59.8784L107.451 72.9022C107.767 78.8929 109.097 84.7864 111.385 90.3319L127.256 79.8654C125.605 75.0103 125.102 69.4181 126.068 63.6566Z" fill="#6EB4F9"/>
<path d="M175.804 27.1666L156.234 40.2566C161.755 42.1877 166.153 46.6572 168.757 52.4976L186.222 40.9809C183.596 35.6102 180.058 30.9053 175.804 27.1666Z" fill="#6EB4F9"/>
<path d="M113.174 44.4129L153.299 17.9489C136.83 17.1851 121.284 27.8387 113.174 44.4129Z" fill="#6EB4F9"/>
<path d="M132.868 89.372L117.044 100.354C117.801 101.379 118.601 102.364 119.445 103.31L135.867 92.0084C134.789 91.2225 133.785 90.3401 132.868 89.372Z" fill="#6EB4F9"/>
<path d="M171.307 62.684V62.6903C171.433 64.3233 171.444 65.9631 171.34 67.5977L190.583 54.3561C190.315 52.8744 189.983 51.4194 189.597 49.9975L171.307 62.684Z" fill="#6EB4F9"/>
<path d="M133.729 113.515C134.466 113.816 135.216 114.097 135.973 114.338C137.703 114.911 139.474 115.349 141.271 115.649C141.337 115.663 141.399 115.669 141.461 115.682C144.301 116.144 147.187 116.26 150.055 116.028C150.387 116.001 150.721 115.97 151.053 115.93L183.961 92.8638C186.137 89.0694 187.86 85.0327 189.096 80.8367C189.336 80.0143 189.559 79.1818 189.768 78.3442C190.094 77.0457 190.372 75.721 190.603 74.3699C190.635 74.2337 190.655 74.0899 190.681 73.946C190.72 73.7245 190.753 73.4967 190.785 73.2739L133.501 113.425C133.579 113.457 133.656 113.484 133.729 113.515Z" fill="#6EB4F9"/>
<path d="M387.007 134.481C365.138 133.114 377.46 182.6 377.46 182.6C377.46 182.6 387.529 171.525 393.206 155.021C399.153 137.727 387.007 134.481 387.007 134.481Z" fill="#2A6834"/>
<path d="M384.605 145.435C384.605 145.435 378.877 164.414 377.459 182.606C377.459 182.604 384.487 159.063 384.605 145.435Z" fill="#1E5124"/>
<path d="M256.644 204.125C244.2 198.185 236.022 207.078 236.022 207.078C236.022 207.078 232.203 203.005 223.776 204.418C215.349 205.831 214.024 214.437 214.024 214.437C214.024 214.437 211.68 211.127 207.81 211.441C203.94 211.754 202.495 215.514 202.495 215.514C202.495 215.514 199.267 206.834 188.28 208.48C177.293 210.126 176.839 222.55 176.839 222.55C176.839 222.55 165.573 214.148 159.303 223.921C156.224 228.714 158.063 232.976 160.743 236.066C163.516 239.277 167.186 241.233 167.186 241.233L251.433 241.389C255.651 240.298 258.873 237.581 261.098 234.06C267.251 224.327 265.783 208.48 256.644 204.125Z" fill="#328453"/>
<path d="M240.542 234.529C240.542 234.529 239.838 225.68 231.008 221.735C222.177 217.79 214.861 222.545 214.861 222.545C207.309 218.931 204.28 224.434 204.28 224.434C204.28 224.434 200.934 219.716 190.084 220.931C179.234 222.145 176.835 230.747 176.835 230.747C168.903 229.113 163.836 232.366 160.739 236.061C163.512 239.272 167.182 241.228 167.182 241.228L251.429 241.384C255.648 240.293 258.869 237.576 261.095 234.055C259.567 232.497 257.542 231.139 254.875 230.236C242.942 226.209 240.542 234.529 240.542 234.529Z" fill="#429866"/>
<path d="M355.146 144.535H282.949C270.629 144.535 260.639 154.327 260.639 166.404V231.58C260.639 243.656 270.629 253.449 282.949 253.449H355.146C367.466 253.449 377.455 243.656 377.455 231.58V166.404C377.459 154.327 367.47 144.535 355.146 144.535Z" fill="#F5B54E"/>
<path d="M343.562 144.537H271.364C259.044 144.537 249.055 154.328 249.055 166.405V231.582C249.055 243.657 259.044 253.45 271.364 253.45H343.562C355.882 253.45 365.872 243.657 365.872 231.582V166.405C365.875 154.328 355.884 144.537 343.562 144.537Z" fill="#FFDB80"/>
<path d="M207.453 152.228C206.994 152.115 206.518 152.098 206.052 152.177L183.334 155.94C182.647 156.055 182.01 156.37 181.501 156.845C180.993 157.321 180.636 157.936 180.476 158.613C180.369 159.063 180.355 159.529 180.434 159.984C180.509 160.44 180.674 160.877 180.918 161.27C181.162 161.662 181.481 162.003 181.857 162.272C182.233 162.541 182.658 162.733 183.108 162.838C183.558 162.943 184.024 162.958 184.48 162.883L207.204 159.122C207.989 158.993 208.706 158.602 209.239 158.013C209.773 157.424 210.091 156.671 210.141 155.878C210.191 155.051 209.949 154.233 209.457 153.566C208.966 152.899 208.257 152.425 207.453 152.227V152.228Z" fill="#6D3F41"/>
<path d="M206.051 152.177L183.333 155.94C182.647 156.055 182.009 156.37 181.501 156.845C180.993 157.321 180.636 157.936 180.476 158.613C180.935 158.718 181.411 158.732 181.876 158.656L204.601 154.894C205.288 154.78 205.926 154.465 206.434 153.989C206.942 153.514 207.298 152.898 207.458 152.22C206.997 152.109 206.518 152.095 206.051 152.177Z" fill="#774849"/>
<path d="M214.018 186.11C213.56 185.997 213.083 185.98 212.618 186.06L188.941 190.365C188.254 190.48 187.617 190.795 187.108 191.27C186.6 191.746 186.243 192.361 186.083 193.038C186.039 193.228 186.01 193.42 185.997 193.614C185.981 193.88 185.996 194.147 186.042 194.409C186.117 194.865 186.282 195.302 186.526 195.695C186.77 196.087 187.089 196.428 187.464 196.697C187.84 196.966 188.265 197.158 188.715 197.263C189.165 197.368 189.632 197.383 190.088 197.308L213.776 193.003C214.561 192.874 215.278 192.483 215.811 191.893C216.345 191.304 216.663 190.551 216.713 189.758C216.761 188.931 216.519 188.114 216.028 187.447C215.537 186.781 214.828 186.307 214.025 186.107L214.018 186.11Z" fill="#6D3F41"/>
<path d="M212.617 186.059L188.939 190.364C188.253 190.479 187.615 190.794 187.107 191.269C186.599 191.745 186.242 192.36 186.082 193.037C186.541 193.141 187.017 193.155 187.482 193.079L211.161 188.783C211.847 188.669 212.485 188.354 212.994 187.879C213.503 187.403 213.859 186.787 214.018 186.11C213.56 185.997 213.083 185.979 212.617 186.059Z" fill="#774849"/>
<path d="M219.235 218.478C218.772 218.384 218.295 218.388 217.834 218.489L194.362 223.819C193.68 223.964 193.057 224.307 192.57 224.806C192.083 225.304 191.753 225.935 191.624 226.62C191.536 227.073 191.542 227.54 191.642 227.991C191.737 228.443 191.92 228.872 192.181 229.254C192.442 229.635 192.775 229.962 193.163 230.214C193.55 230.467 193.983 230.641 194.437 230.726C194.892 230.811 195.358 230.806 195.811 230.711L219.289 225.381C220.067 225.217 220.766 224.795 221.273 224.183C221.78 223.571 222.065 222.805 222.081 222.01C222.086 221.742 222.06 221.474 222.003 221.212C221.863 220.534 221.525 219.913 221.032 219.426C220.54 218.94 219.914 218.61 219.235 218.478Z" fill="#6D3F41"/>
<path d="M217.832 218.489L194.36 223.819C193.678 223.964 193.055 224.307 192.568 224.806C192.08 225.304 191.751 225.935 191.622 226.62C192.085 226.704 192.561 226.698 193.022 226.602L216.499 221.27C217.18 221.127 217.804 220.786 218.291 220.289C218.778 219.793 219.108 219.163 219.239 218.48C218.775 218.385 218.295 218.388 217.832 218.489Z" fill="#774849"/>
<path d="M177.184 131.326C177.09 130.798 176.872 130.301 176.547 129.876C176.329 129.574 176.061 129.312 175.755 129.1C175.194 128.709 174.529 128.493 173.845 128.48C173.161 128.466 172.488 128.656 171.912 129.026C171.335 129.395 170.882 129.927 170.608 130.554C170.334 131.181 170.252 131.875 170.373 132.549L193.048 258.135C193.199 259 193.676 259.774 194.38 260.299C195.084 260.823 195.963 261.058 196.835 260.956C196.912 260.953 196.988 260.943 197.064 260.928C197.511 260.848 197.938 260.68 198.321 260.435C198.703 260.19 199.034 259.872 199.293 259.499C199.553 259.126 199.736 258.705 199.833 258.261C199.929 257.817 199.938 257.358 199.857 256.911L177.184 131.326Z" fill="#6D3F41"/>
<path d="M177.183 131.326C177.09 130.798 176.871 130.301 176.547 129.876C176.47 129.879 176.393 129.889 176.318 129.905C175.414 130.068 174.613 130.584 174.089 131.338C173.566 132.092 173.363 133.023 173.526 133.926L196.2 259.506C196.294 260.033 196.512 260.53 196.837 260.956C196.914 260.953 196.991 260.943 197.066 260.928C197.513 260.848 197.94 260.68 198.323 260.435C198.705 260.19 199.036 259.872 199.295 259.499C199.555 259.126 199.738 258.705 199.835 258.261C199.931 257.817 199.94 257.359 199.859 256.911L177.183 131.326Z" fill="#774849"/>
<path d="M209.345 126.99C209.247 126.464 209.025 125.969 208.696 125.546C208.475 125.248 208.204 124.99 207.897 124.783C207.331 124.397 206.664 124.188 205.98 124.181C205.296 124.175 204.625 124.372 204.052 124.747C203.48 125.122 203.032 125.659 202.764 126.288C202.497 126.918 202.422 127.613 202.55 128.286L225.429 251.076C225.589 251.94 226.074 252.71 226.785 253.228C227.495 253.745 228.377 253.971 229.248 253.859C229.325 253.855 229.402 253.845 229.477 253.828C229.924 253.744 230.349 253.572 230.729 253.323C231.109 253.074 231.436 252.752 231.692 252.377C231.947 252.001 232.126 251.579 232.218 251.134C232.31 250.689 232.314 250.23 232.228 249.784L209.345 126.99Z" fill="#6D3F41"/>
<path d="M209.346 126.99C209.248 126.464 209.025 125.969 208.696 125.546C208.62 125.55 208.543 125.56 208.468 125.577C207.567 125.75 206.77 126.273 206.255 127.033C205.739 127.792 205.546 128.726 205.718 129.628L228.598 252.415C228.696 252.941 228.919 253.436 229.247 253.859C229.324 253.855 229.401 253.845 229.476 253.828C229.923 253.744 230.348 253.572 230.728 253.323C231.108 253.074 231.435 252.752 231.691 252.377C231.946 252.001 232.125 251.579 232.217 251.134C232.309 250.689 232.313 250.23 232.227 249.784L209.346 126.99Z" fill="#774849"/>
<path d="M279.195 120.685L276.429 117.029L268.499 117.642C268.499 117.642 240.866 117.537 232.242 122.24C223.619 126.944 207.969 166.199 207.969 166.199C207.969 166.199 206.401 169.793 207.46 172.882H207.468C207.813 173.918 208.464 174.826 209.335 175.485L221.236 178.392C221.236 178.392 225.73 179.266 227.461 174.984C229.192 170.701 243.035 145.097 243.035 145.097L264.439 138.785L287.692 131.925L281.257 123.419L279.195 120.685Z" fill="#42395C"/>
<path d="M209.503 175.316L208.215 179.564L219.563 182.586L221.507 178.663C221.507 178.663 214.542 174.442 209.503 175.316Z" fill="#FBBD9D"/>
<path d="M216.656 181.812L208.217 179.568L206.429 182.163C206.054 182.71 205.543 183.149 204.946 183.436C203.456 184.144 200.349 185.425 196.688 185.84C194.297 186.107 192.77 187.661 191.818 189.241C191.627 189.554 191.506 189.903 191.462 190.266C191.418 190.63 191.453 190.998 191.563 191.347C191.717 191.855 192.019 192.305 192.43 192.641C192.842 192.977 193.344 193.183 193.872 193.232L216.974 195.396C217.405 195.436 217.837 195.34 218.211 195.122C218.584 194.904 218.879 194.574 219.056 194.179C219.431 193.366 219.804 192.168 219.892 190.565C219.956 189.419 219.556 182.586 219.556 182.586L216.656 181.812Z" fill="#282243"/>
<path d="M216.656 181.812C215.554 183.541 209.851 191.451 198.255 191.394C195.582 191.382 193.386 191.366 191.567 191.349C191.721 191.857 192.023 192.308 192.434 192.644C192.846 192.979 193.347 193.185 193.876 193.234L216.978 195.399C217.409 195.439 217.841 195.343 218.214 195.125C218.588 194.906 218.883 194.577 219.059 194.182C219.435 193.368 219.808 192.17 219.896 190.568C219.959 189.422 219.56 182.589 219.56 182.589L216.656 181.812Z" fill="#1C1935"/>
<path d="M268.499 117.642C268.499 117.642 239.282 125.31 236.507 132.686C233.732 140.063 235.375 150.571 230.796 158.749C226.319 166.749 214.897 174.315 207.473 172.879C207.818 173.916 208.469 174.823 209.34 175.483L221.241 178.389C221.241 178.389 225.735 179.263 227.466 174.981C229.197 170.699 243.04 145.094 243.04 145.094L264.444 138.783L270.534 129.326L281.262 123.417L279.195 120.681L268.499 117.642Z" fill="#352F4F"/>
<path d="M262.534 196.158L264.239 200.256L274.922 195.376L273.927 191.111C273.927 191.111 265.867 192.281 262.534 196.158Z" fill="#FBBD9D"/>
<path d="M280.251 201.324C279.57 200.4 274.919 195.379 274.919 195.379L272.185 196.626L264.244 200.258L264.515 203.402C264.572 204.062 264.456 204.725 264.179 205.327C263.479 206.82 261.887 209.782 259.331 212.431C257.656 214.156 257.465 216.328 257.735 218.152C257.788 218.513 257.917 218.86 258.115 219.167C258.312 219.474 258.573 219.736 258.881 219.934C259.322 220.228 259.842 220.384 260.373 220.382C260.904 220.38 261.422 220.22 261.862 219.923L281.07 206.908C281.428 206.665 281.701 206.317 281.851 205.911C282.001 205.505 282.019 205.062 281.904 204.646C281.675 203.781 281.202 202.619 280.251 201.324Z" fill="#282243"/>
<path d="M280.251 201.324C279.57 200.4 274.919 195.379 274.919 195.379L272.185 196.626C272.433 198.663 273.058 208.393 264.069 215.72C262.003 217.408 260.294 218.796 258.879 219.938C259.321 220.232 259.841 220.388 260.372 220.386C260.903 220.384 261.421 220.224 261.861 219.926L281.069 206.911C281.427 206.669 281.7 206.32 281.85 205.915C281.999 205.509 282.018 205.066 281.902 204.649C281.675 203.781 281.202 202.619 280.251 201.324Z" fill="#1C1935"/>
<path d="M240.716 141.606C238.759 151.408 253.984 187.143 253.984 187.143C253.984 187.143 254.366 191.609 256.642 194.487C257.933 196.12 259.838 197.247 262.625 196.754L274.649 190.932C274.649 190.932 279.157 188.285 276.514 180.801C273.872 173.317 266.292 154.246 266.292 154.246C266.292 154.246 268.869 154.083 268.118 151.954C268.118 151.954 295.713 149.79 304.629 146.275C306.689 145.465 308.306 144.156 309.577 142.63C313.819 137.516 314.215 129.927 314.215 129.927L275.045 124.625C275.045 124.625 242.673 131.814 240.716 141.606Z" fill="#42395C"/>
<path d="M291.828 144.647C291.828 144.647 271.225 148.904 267.641 149.02C264.058 149.136 258.071 146.23 259.894 148.096C261.717 149.962 264.477 151.011 264.477 151.011C264.477 151.011 257.423 150.876 260.542 155.212C263.661 159.548 272.59 175.656 269.137 184.136C266.405 190.827 259.456 193.612 256.643 194.493C257.933 196.127 259.839 197.253 262.626 196.761L274.65 190.938C274.65 190.938 279.158 188.291 276.515 180.808C273.872 173.324 266.292 154.246 266.292 154.246C266.292 154.246 268.868 154.083 268.117 151.954C268.117 151.954 295.713 149.79 304.629 146.275C306.688 145.465 308.305 144.156 309.577 142.63L292.022 133.917L291.828 144.647Z" fill="#352F4F"/>
<path d="M323.868 75.3603C316.702 66.6595 307.791 63.1193 307.791 63.1193C307.791 63.1193 291.972 62.6534 286.2 66.9535C280.428 71.2537 271.4 86.9444 271.4 86.9444C278.243 89.7895 281.33 94.8534 281.33 94.8534C281.33 94.8534 281.039 98.6329 279.968 105.074C278.933 111.312 274.035 115.131 271.599 115.166C271.524 115.166 271.449 115.166 271.372 115.166C271.082 115.135 270.788 115.154 270.504 115.225C268.893 115.645 268.504 117.644 268.504 117.644C272.159 118.178 277.34 120.891 283.438 129.164C284.105 130.068 284.783 131.034 285.474 132.078C285.617 132.285 285.751 132.497 285.892 132.714C293.049 143.78 301.01 146.134 302.772 148.499C304.534 150.865 307.304 149.953 307.304 149.953C315.029 147.653 316.808 132.749 316.808 132.749C316.85 130.998 316.647 128.752 316.32 126.328C315.252 118.411 312.808 108.695 312.808 108.695C320.329 104.119 331.551 104.044 331.551 104.044C330.068 94.3277 323.868 75.3603 323.868 75.3603Z" fill="#3BB7B3"/>
<path d="M296.052 63.2671C295.619 65.0251 296.03 69.6638 298.361 72.2467L300.48 69.66L297.989 61.2023C297.989 61.2023 296.483 61.5129 296.052 63.2671Z" fill="#2D8782"/>
<path d="M307.576 57.3553L297.884 60.4907C297.884 60.4907 297.948 61.7051 297.841 63.8933C297.797 64.8875 297.713 66.0841 297.586 67.45C297.498 68.2838 297.564 69.1266 297.782 69.9362C297.948 70.537 298.193 71.0819 298.546 71.0679C299.32 71.05 305.947 68.5881 307.799 63.1219L307.672 59.5016L307.576 57.3553Z" fill="#FBBD9D"/>
<path d="M297.884 60.4907C297.884 60.4907 297.947 61.7051 297.84 63.8933C298.095 64.0741 298.506 64.1976 299.191 64.1734C301.123 64.0983 304.951 62.2194 307.655 59.5016L307.576 57.3553L297.884 60.4907Z" fill="#F4A589"/>
<path d="M303.741 35.6675C303.741 35.6675 297.758 33.8854 294.863 40.5049C294.317 41.7549 293.603 43.103 292.852 44.4931C292.849 44.4995 292.846 44.5055 292.842 44.5109C291.906 46.2485 290.913 48.0498 290.121 49.8078C290.069 49.9224 290.019 50.0369 289.97 50.149C288.16 54.2861 290.125 58.184 293.602 59.9674C299.966 63.2288 306.204 59.429 308.464 56.4031C310.723 53.3772 318.23 38.1613 303.741 35.6675Z" fill="#FBBD9D"/>
<path d="M305.917 56.2973C307.881 55.1161 308.61 52.7232 307.545 50.9524C306.48 49.1817 304.025 48.7037 302.061 49.8848C300.097 51.0659 299.368 53.4589 300.432 55.2296C301.497 57.0004 303.953 57.4784 305.917 56.2973Z" fill="#FC9E8B"/>
<path d="M292.852 44.4931C292.849 44.4995 292.846 44.5055 292.841 44.5109C291.906 46.2485 290.913 48.0498 290.121 49.8078C290.688 49.6274 291.212 49.3316 291.66 48.939C292.107 48.5464 292.469 48.0656 292.722 47.5266C293.222 46.5182 293.313 45.3558 292.976 44.2818L292.852 44.4931Z" fill="#FC9E8B"/>
<path d="M301.604 47.4821C301.282 47.2873 300.812 47.4821 300.555 47.9289C300.298 48.3757 300.35 48.8887 300.672 49.0835C300.995 49.2783 301.462 49.0835 301.72 48.6379C301.979 48.1924 301.925 47.6832 301.604 47.4821Z" fill="#263238"/>
<path d="M294.645 44.5937C294.337 44.4511 293.916 44.7286 293.703 45.2136C293.491 45.6987 293.569 46.2066 293.875 46.3479C294.182 46.4892 294.603 46.2129 294.816 45.7279C295.029 45.2429 294.952 44.735 294.645 44.5937Z" fill="#263238"/>
<path d="M303.122 44.3327C302.668 44.1645 302.184 44.0946 301.702 44.1277C301.358 44.1659 301.203 44.2754 301.248 44.3721C301.355 44.5758 302.079 44.6777 302.877 44.9692C303.675 45.2607 304.303 45.6146 304.523 45.5255C304.621 45.4809 304.577 45.3001 304.341 45.057C303.992 44.7301 303.576 44.4829 303.122 44.3327Z" fill="#263238"/>
<path d="M296.488 41.5386C296.177 41.3328 295.815 41.2165 295.442 41.2025C295.163 41.2025 295.011 41.289 295.018 41.3845C295.043 41.5857 295.578 41.7562 296.116 42.1101C296.655 42.464 297.043 42.8599 297.239 42.7988C297.328 42.7657 297.346 42.5926 297.231 42.3418C297.063 42.0106 296.805 41.7326 296.488 41.5386Z" fill="#263238"/>
<path d="M296.462 47.2275C296.444 47.2172 296.425 47.2105 296.405 47.2078C296.385 47.2051 296.364 47.2063 296.344 47.2115C296.325 47.2167 296.306 47.2258 296.29 47.2381C296.274 47.2505 296.261 47.2659 296.25 47.2835L295.59 48.4152C295.478 48.6115 295.302 48.7637 295.092 48.8467C295.008 48.8819 294.916 48.8976 294.825 48.8925C294.734 48.8874 294.645 48.8618 294.565 48.8175C294.262 48.638 293.843 48.7831 293.632 49.1395L293.586 49.2185C293.394 49.5324 293.316 49.9027 293.365 50.2674C293.383 50.4239 293.435 50.5747 293.516 50.7098C293.598 50.8449 293.706 50.9614 293.836 51.0515L293.888 51.0846L294.583 51.4958C294.6 51.507 294.62 51.5145 294.641 51.5179C294.661 51.5213 294.682 51.5205 294.702 51.5157C294.723 51.5108 294.742 51.5019 294.758 51.4895C294.775 51.4771 294.789 51.4615 294.8 51.4436C294.81 51.4257 294.817 51.4058 294.82 51.3852C294.823 51.3646 294.821 51.3436 294.816 51.3235C294.81 51.3035 294.801 51.2847 294.788 51.2684C294.775 51.2521 294.759 51.2385 294.741 51.2285L294.046 50.8173C293.942 50.7528 293.855 50.6656 293.79 50.5624C293.725 50.4592 293.685 50.3427 293.671 50.2216C293.634 49.9273 293.698 49.6289 293.853 49.3763L293.899 49.2974C294.027 49.0886 294.251 48.9931 294.408 49.0848C294.528 49.153 294.661 49.1932 294.798 49.2025C294.935 49.2118 295.073 49.1898 295.2 49.1383C295.478 49.0307 295.711 48.8307 295.858 48.5718L296.519 47.4401C296.538 47.404 296.543 47.3619 296.533 47.3224C296.522 47.2829 296.497 47.2489 296.462 47.2275Z" fill="#FF806D"/>
<path d="M294.392 56.4235C295.926 56.4986 296.737 54.5993 296.737 54.5993C295.16 53.7464 292.605 52.9788 292.605 52.9788C292.411 54.4758 292.858 56.3471 294.392 56.4235Z" fill="#F28775"/>
<path d="M318.393 43.0419C318.801 42.1788 318.972 41.2457 318.667 40.3126C317.719 37.3848 315.423 37.8698 315.423 37.8698C313.781 28.7043 306.549 29.6043 306.549 29.6043C303.287 26.5174 302.063 30.0015 302.063 30.0015C299.416 26.8191 299.192 30.2777 299.192 30.2777C299.192 30.2777 298.428 29.3472 297.432 28.8915C296.883 28.6369 296.259 28.5274 295.649 28.782C293.918 29.5063 296.04 33.6524 296.04 33.6524C296.04 33.6524 290.957 34.9763 291.624 37.4255C292.291 39.8747 295.198 39.3184 295.198 39.3184C295.198 39.3184 293.913 40.4259 294.463 41.373C294.531 41.4882 294.617 41.5914 294.718 41.6785C294.961 41.9 295.422 42.0019 295.991 42.0235C296.334 42.0388 296.677 42.0312 297.019 42.0006C298.892 41.8733 301.178 41.3005 301.356 41.2572C301.358 41.2564 301.36 41.256 301.361 41.256C301.363 41.256 301.365 41.2564 301.366 41.2572C301.314 41.2865 299.107 42.5658 302.385 43.7128C305.706 44.8737 307.829 44.8661 307.829 44.8661C307.829 44.8661 306.321 47.2975 307.626 49.0669C308.93 50.8364 308.473 53.9042 307.584 55.2943C307.584 55.2943 307.871 56.0034 308.995 54.4236L309.524 54.7075L311.744 55.871C311.744 55.871 312.749 55.0677 314.053 53.8737C314.784 53.2092 315.607 52.4276 316.397 51.6001C318.477 49.4246 320.366 46.9118 319.874 45.3727C319.523 44.2601 318.963 43.5244 318.393 43.0419Z" fill="#3D2009"/>
<path d="M313.823 53.25C311.748 51.4054 309.651 53.2881 309.651 53.2881L306.549 57.699C310.541 61.0801 316.487 55.6177 313.823 53.25Z" fill="#FBBD9D"/>
<path d="M318.392 43.0419C318.801 42.1788 318.972 41.2457 318.667 40.3126C317.719 37.3848 315.422 37.8698 315.422 37.8698C313.78 28.7043 306.549 29.6043 306.549 29.6043C303.287 26.5174 302.063 30.0015 302.063 30.0015C299.416 26.8191 299.192 30.2777 299.192 30.2777C299.192 30.2777 298.428 29.3472 297.431 28.8915C296.982 29.0875 296.871 29.9875 298.604 33.0299C298.604 33.0299 295.549 35.2347 298.269 36.1207C298.387 36.1589 298.506 36.1971 298.618 36.2276C301.213 36.9431 303.618 36.2684 303.618 36.2684C303.618 36.2684 302.647 38.3052 304.754 39.2026C306.86 40.1001 310.151 39.7296 310.151 39.7296C310.151 39.7296 310.157 41.1974 311.969 41.662C312.141 41.7075 312.315 41.7424 312.491 41.7664C314.189 41.9802 315.252 42.1966 315.739 42.8675C315.929 43.15 316.034 43.4809 316.041 43.821C316.1 44.7795 315.487 45.5777 315.394 46.4942C315.366 46.721 315.377 46.9509 315.426 47.174C315.438 47.2206 315.452 47.2665 315.468 47.3115C315.549 47.5893 315.678 47.8505 315.85 48.0829C316.804 49.4272 316.824 50.0917 316.396 51.6065C318.476 49.431 320.365 46.9181 319.874 45.3791C319.523 44.2601 318.963 43.5244 318.392 43.0419Z" fill="#4C260C"/>
<path d="M305.964 61.6949C302.363 63.5687 298.361 72.2504 298.361 72.2504C307.809 69.6739 309.879 63.2123 309.879 63.2123C309.879 63.2123 309.566 59.8211 305.964 61.6949Z" fill="#359693"/>
<path d="M306.233 88.164C306.233 88.164 307.018 95.3168 307.261 104.319V104.36C307.324 106.842 305.988 109.15 303.857 110.423C299.517 113.016 291.243 116.859 281.731 115.714C277.44 115.197 274.124 115.085 271.597 115.177C271.215 115.191 270.848 115.212 270.501 115.23C268.891 115.649 268.501 117.649 268.501 117.649C272.153 118.182 277.339 120.9 283.433 129.165C283.736 129.577 284.043 130.004 284.351 130.438L284.561 130.741C284.85 131.158 285.14 131.583 285.432 132.026L285.468 132.079C285.61 132.284 285.743 132.495 285.883 132.708C293.04 143.774 301.001 146.128 302.763 148.493C304.525 150.858 307.295 149.947 307.295 149.947C315.021 147.646 316.799 132.742 316.799 132.742C316.841 130.992 316.639 128.745 316.312 126.322L314.604 116.669L312.802 108.692L308.885 88.5497C310.903 73.5412 323.868 75.3603 323.868 75.3603C308.703 72.3548 306.233 88.164 306.233 88.164Z" fill="#359693"/>
<path d="M329.418 105.446C329.307 104.645 329.241 104.16 329.241 104.16C318.651 104.575 312.802 108.693 312.802 108.693L314.604 116.67L289.827 125.581C284.083 129.686 281.136 139.014 281.63 141.523C282.124 144.033 284.867 146.418 284.867 146.418C285.041 146.698 285.249 146.954 285.487 147.182H285.494C285.949 147.631 286.51 147.959 287.124 148.135C288.652 148.558 289.209 147.387 289.209 147.387C289.796 147.472 290.071 146.913 290.071 146.913C291.106 146.142 290.607 141.455 292.317 138.806C294.026 136.157 294.608 132.812 294.608 132.812C294.608 132.812 315.653 133.38 322.983 131.944C330.313 130.508 331.757 122.415 331.438 120.123C331.176 118.26 329.891 108.897 329.418 105.446Z" fill="#FBBD9D"/>
<path d="M312.802 108.693L314.604 116.67C320.088 109.868 326.927 106.515 329.418 105.446C329.307 104.645 329.241 104.16 329.241 104.16C318.651 104.575 312.802 108.693 312.802 108.693Z" fill="#F4A589"/>
<path d="M271.402 86.9444L257.832 72.1257C257.832 72.1257 258.303 68.2825 257.808 65.8346C257.409 63.8971 254.924 59.8287 253.906 58.2273C253.84 58.1203 253.746 58.0334 253.634 57.9758C253.523 57.9183 253.397 57.8924 253.272 57.9009C253.146 57.9095 253.026 57.9521 252.923 58.0242C252.82 58.0963 252.739 58.1951 252.688 58.31C252.56 58.6092 252.501 59.0267 252.588 59.6046C252.843 61.2392 252.97 62.1188 252.984 62.2244C252.819 62.1315 250.148 60.6116 248.824 58.7377C247.453 56.8092 245.093 54.0188 243.563 54.5878C242.033 55.1569 240.328 61.8349 243.153 66.3998C245.978 70.9647 252.22 75.1757 252.22 75.1757C252.22 75.1757 254.808 81.6896 258.044 88.677C258.291 89.2027 258.537 89.7348 258.783 90.2656L258.863 90.4222C261.81 96.6509 265.151 102.855 267.533 104.843C272.827 109.238 277.62 108.63 279.688 106.356C279.688 106.356 279.836 105.662 280.045 104.473C280.427 102.387 280.997 98.801 281.327 94.8547C281.327 94.8598 278.194 89.1963 271.402 86.9444Z" fill="#FBBD9D"/>
<path d="M271.405 86.9445L274.809 90.2759C274.809 90.2759 278.246 91.5705 281.326 94.8586C281.326 94.8599 279.008 89.5108 271.405 86.9445Z" fill="#F4A589"/>
<path d="M253.167 62.6305C253.167 62.6305 253.324 64.0308 253.272 64.3923C253.22 64.7539 251.157 67.809 253.151 70.6388C253.151 70.6388 251.914 67.8205 253.645 64.5464L253.167 62.6305Z" fill="#F4A589"/>
<path d="M245.385 66.1949C246.453 63.9366 249.241 61.5256 249.241 61.5256C245.891 62.726 245.385 66.1949 245.385 66.1949Z" fill="#F4A589"/>
<path d="M258.863 90.4273C261.81 96.656 265.152 102.861 267.534 104.848C272.828 109.243 277.621 108.635 279.688 106.361C279.688 106.361 279.837 105.667 280.046 104.478C279.097 105.359 277.462 106.277 274.773 106.298C269.941 106.328 262.964 98.7055 258.863 90.4273Z" fill="#F4A589"/>
<path d="M290.725 139.749C290.597 140.592 290.343 145.499 289.78 146.208C289.217 146.917 288.188 147.156 288.188 147.156C288.188 147.156 287.322 148.175 285.493 147.169C285.948 147.618 286.509 147.946 287.123 148.123C288.651 148.545 289.208 147.374 289.208 147.374C289.795 147.459 290.07 146.9 290.07 146.9C291.105 146.129 290.606 141.442 292.316 138.793C294.025 136.144 294.607 132.8 294.607 132.8C294.607 132.8 293.933 133.555 293.131 135.414C292.329 137.274 290.847 138.913 290.725 139.749Z" fill="#F4A589"/>
<path d="M279.134 91.7818C279.134 91.7818 280.482 93.2687 281.326 94.8637L283.627 79.1119C283.627 79.1119 284.779 71.0386 287.078 67.5838C287.078 67.5838 283.447 72.2289 282.38 76.8205C281.313 81.4121 279.134 91.7818 279.134 91.7818Z" fill="#359693"/>
<path d="M298.191 85.5042L298.114 85.7881C297.97 86.323 298.286 86.8737 298.821 87.0182L306.907 89.203C307.442 89.3475 307.993 89.0311 308.137 88.4963L308.214 88.2124C308.358 87.6776 308.042 87.1269 307.507 86.9824L299.421 84.7975C298.886 84.653 298.335 84.9694 298.191 85.5042Z" fill="#1D7772"/>
<path d="M332.524 103.323C332.493 103.022 332.364 102.741 332.157 102.521C331.95 102.302 331.676 102.157 331.378 102.108C323.759 100.777 315.264 104.473 312.245 105.962C311.937 106.11 311.699 106.373 311.584 106.695C311.468 107.018 311.484 107.372 311.628 107.683L312.01 108.519C312.094 108.694 312.213 108.849 312.359 108.975C312.506 109.102 312.678 109.196 312.863 109.253C313.048 109.31 313.243 109.327 313.435 109.305C313.628 109.282 313.813 109.22 313.98 109.122C320.163 105.558 327.983 105.176 331.204 105.185C331.39 105.189 331.575 105.154 331.746 105.083C331.918 105.011 332.073 104.904 332.201 104.769C332.329 104.634 332.427 104.473 332.489 104.298C332.551 104.122 332.575 103.936 332.561 103.75L332.524 103.323Z" fill="#1D7772"/>
<path d="M272.434 85.1992C272.308 85.1551 272.173 85.1472 272.043 85.1765C271.913 85.2057 271.793 85.2709 271.698 85.3647L270.777 86.2672L271.973 87.5058C278.532 90.3891 281.326 94.8599 281.326 94.8599L281.731 92.0848C278.612 87.637 273.866 85.702 272.434 85.1992Z" fill="#1D7772"/>
<path d="M290.403 239.125H338.454L312.231 162.297L290.403 239.125Z" fill="#F4C458"/>
<path d="M344.804 145.374C344.804 145.374 344.73 145.062 344.561 144.533H307.925C307.75 145.062 307.67 145.374 307.67 145.374L286.718 232.712C285.921 236.022 288.993 239.124 293.083 239.124H301.154C304.307 239.124 307.01 237.248 307.548 234.675L314.122 203.454C314.526 201.545 316.534 200.144 318.878 200.144H331.098C333.442 200.144 335.448 201.545 335.853 203.454L342.434 234.675C342.97 237.248 345.669 239.124 348.822 239.124H359.388C363.476 239.124 366.548 236.027 365.752 232.712L344.804 145.374Z" fill="#F4C458"/>
<path d="M337.273 145.374C337.273 145.374 334.062 131.644 318.711 131.644H306.216L309.017 133.964C301.909 137.884 300.153 145.374 300.153 145.374L279.195 232.713C278.399 236.032 281.469 239.125 285.56 239.125H293.627C296.78 239.125 299.482 237.249 300.018 234.679L306.596 203.459C306.999 201.55 309.007 200.149 311.353 200.149H323.574C325.921 200.149 327.928 201.55 328.331 203.459L334.906 234.679C335.447 237.249 338.144 239.125 341.299 239.125H351.858C355.948 239.125 359.018 236.032 358.223 232.713L337.273 145.374Z" fill="#B81F1E"/>
<path d="M342.439 213.173L341.311 208.475L339.488 200.853L334.553 180.276L326.249 145.665L326.181 145.378C326.181 145.378 325.01 140.374 320.707 136.405C319.792 135.56 318.787 134.818 317.71 134.192H317.704C316.673 133.582 315.58 133.083 314.444 132.703C312.494 132.049 310.243 131.649 307.627 131.649C292.261 131.649 289.053 145.374 289.053 145.374L286.485 156.067L284.996 162.293L283.076 170.289L278.748 188.348V188.354L268.104 232.712C267.387 235.685 269.774 238.476 273.226 239.025C273.636 239.092 274.051 239.126 274.466 239.124H285.023C288.176 239.124 290.878 237.248 291.417 234.675L294.869 218.285L297.989 203.458C298.389 201.548 300.395 200.148 302.745 200.148H312.472C312.874 200.149 313.275 200.192 313.669 200.275C315.476 200.657 316.897 201.883 317.233 203.458L320.549 219.199L322.187 226.995L323.302 232.298L323.812 234.679C324.354 237.252 327.053 239.128 330.206 239.128H340.761C344.857 239.128 347.922 236.031 347.126 232.716L342.439 213.173Z" fill="#DD333C"/>
<path d="M320.697 136.405L283.076 170.293L278.748 188.351L326.249 145.664L326.181 145.378C326.181 145.378 325.003 140.374 320.697 136.405Z" fill="#E53841"/>
<path d="M286.485 156.067L284.996 162.293L317.693 134.189C316.662 133.578 315.569 133.079 314.433 132.699L286.485 156.067Z" fill="#E53841"/>
<path d="M274.463 239.128H285.02C288.173 239.128 290.875 237.252 291.414 234.679L294.866 218.289L273.226 239.029C273.635 239.096 274.048 239.129 274.463 239.128Z" fill="#E53841"/>
<path d="M313.674 200.273C315.481 200.655 316.902 201.881 317.238 203.455L320.554 219.197L339.489 200.853L334.553 180.276L313.674 200.273Z" fill="#E53841"/>
<path d="M322.192 226.995L323.308 232.298L342.439 213.173L341.311 208.474L322.192 226.995Z" fill="#E53841"/>
<path d="M308.215 159.437C308.186 159.306 308.112 159.189 308.007 159.106C307.902 159.022 307.771 158.977 307.637 158.979C307.503 158.98 307.373 159.028 307.27 159.114C307.166 159.199 307.096 159.318 307.069 159.45L301.859 184.501H314.036L312.119 176.238L308.215 159.437Z" fill="#B81F1E"/>
<path d="M310.421 184.501H314.041L312.122 176.238L310.421 184.501Z" fill="#F4C458"/>
<path d="M59.9597 199.954C59.9597 199.954 56.058 207.63 67.5976 212.511C78.6089 217.169 88.8563 217.094 88.8563 217.094C88.8563 217.094 69.2677 188.181 59.9597 199.954Z" fill="#2A6834"/>
<path d="M88.8591 217.1C78.9299 209.507 66.6431 203.74 66.6431 203.74C73.6432 209.914 88.8591 217.1 88.8591 217.1Z" fill="#1E5124"/>
<path d="M68.3247 177.297C53.0146 191.53 108.042 237.092 108.042 237.092C105.716 217.668 84.7207 162.05 68.3247 177.297Z" fill="#378747"/>
<path d="M108.037 237.092C95.732 210.03 75.9575 185.863 75.9575 185.863C79.0534 193.493 108.037 237.092 108.037 237.092Z" fill="#2A7236"/>
<path d="M89.7934 234.958L69.0298 221.832C69.0298 221.832 61.4721 218.888 58.846 223.422C56.2198 227.956 63.3014 234.3 63.3014 234.3C63.3014 234.3 50.4939 232.093 48.5845 240.606C46.675 249.118 60.2781 258.555 85.3379 250.97C110.398 243.386 89.7934 234.958 89.7934 234.958Z" fill="#2A6834"/>
<path d="M67.8142 211.226C56.9608 220.413 77.0662 233.462 77.0662 233.462C77.0662 233.462 67.4845 230.145 66.5591 234.951C65.6336 239.758 77.5831 245.899 92.2211 245.177C106.859 244.455 113.225 243.475 106.224 233.363C106.219 233.363 78.6676 202.04 67.8142 211.226Z" fill="#8DA64C"/>
<path d="M108.853 241.294C89.9489 226.383 76.5737 220.545 76.5737 220.545C92.2759 233.884 108.853 241.294 108.853 241.294Z" fill="#788E35"/>
<path d="M78.6089 238.267C95.8985 242.383 108.852 241.294 108.852 241.294C93.5307 238.047 78.6089 238.267 78.6089 238.267Z" fill="#788E35"/>
<path d="M148.177 246.026L150.851 261.031C150.851 261.031 174.25 260.012 180.502 256.505C186.754 252.998 190.304 245.77 185.582 239.013C172.032 219.63 148.177 246.026 148.177 246.026Z" fill="#6B2C2C"/>
<path d="M162.999 253.311C161.728 252.14 160.362 251.078 158.914 250.135C157.188 248.982 155.333 248.036 153.386 247.316C147.965 245.37 144.963 251.1 144.963 251.1C144.963 251.1 137.365 262.293 144.963 263.728C147.174 264.141 150.525 264.05 154.155 263.644C162.985 262.637 173.504 259.734 173.479 257.586C173.457 254.556 162.999 253.311 162.999 253.311Z" fill="#FEFEFE"/>
<path d="M144.963 251.1C144.963 251.1 137.365 262.293 144.963 263.728C147.174 264.141 150.525 264.05 154.155 263.644C153.841 262.175 153.673 260.048 154.085 257.152C154.687 252.871 157.221 250.954 158.914 250.135C157.188 248.982 155.333 248.036 153.386 247.316C147.965 245.37 144.963 251.1 144.963 251.1Z" fill="#F4EAEA"/>
<path d="M101.196 238.102C101.196 238.102 99.9927 238.256 98.1405 238.654C95.6429 239.186 91.9551 240.151 88.5066 241.768C84.9181 243.453 81.5943 245.825 80.1177 249.127C76.1867 257.928 76.8932 273.823 95.0268 275.972C113.16 278.12 148.016 265.001 148.016 265.001C148.016 265.001 151.708 255.249 146.903 249.443C142.099 243.637 101.196 238.102 101.196 238.102Z" fill="#7B3838"/>
<path d="M88.5118 241.768C88.5118 241.768 87.0848 250.834 92.8005 253.311C98.5161 255.789 113.502 254.178 113.502 254.178L121.698 256.687C122.682 256.988 123.74 256.94 124.692 256.552L128.886 254.843L98.1457 238.654C95.6481 239.193 91.9603 240.151 88.5118 241.768Z" fill="#6B2C2C"/>
<path d="M111.571 179.038L101.316 178.199L86.9874 177.023C86.3522 177.437 85.7794 177.939 85.2867 178.515C83.4155 180.645 81.1852 185.141 85.4739 192.499C85.4739 192.499 82.4544 200.324 86.9874 203.486C87.5507 203.881 88.1867 204.162 88.8587 204.311C93.0761 205.286 97.837 201.149 97.837 201.149C97.837 201.149 108.021 205.272 113.357 195.382C117.058 188.547 114.784 183.355 113.034 180.795C112.61 180.159 112.12 179.57 111.571 179.038Z" fill="#282243"/>
<path d="M127.224 151.818L123.476 156.849C123.476 156.849 120.272 179.041 129.22 169.745C138.168 160.45 127.224 151.818 127.224 151.818Z" fill="#181530"/>
<path d="M114.44 161.97V161.955C114.098 160.97 113.633 160.033 113.056 159.166C108.71 152.71 100.369 155.809 100.369 155.809C97.9701 155.759 95.5865 156.206 93.3681 157.121C90.1258 158.469 86.6213 161.181 84.9664 166.602C83.4757 171.472 83.8487 175.438 85.2821 178.515C86.7384 181.648 89.292 183.861 92.0951 185.176C93.375 185.779 94.7315 186.204 96.1266 186.439C101.017 187.256 108.949 187.178 113.029 180.795C114.772 178.063 115.812 174.175 115.597 168.682C115.495 165.949 115.079 163.741 114.44 161.97Z" fill="#282243"/>
<path d="M113.056 159.166C112.547 159.839 111.923 160.263 110.984 160.328C106.284 160.201 101.117 163.864 104.429 170.934C107.57 180.142 94.4452 177.969 92.1004 185.176C88.9548 193.565 96.5062 199.639 88.8594 204.311C93.0768 205.286 97.8377 201.149 97.8377 201.149C107.433 206.016 120.879 192.727 113.035 180.795C116.035 177.048 116.27 166.498 114.308 161.202C119.958 160.484 118.095 157.875 119.026 153.363C119.918 149.035 123.617 151.814 123.925 152.051C118.118 146.24 115.219 155.12 113.056 159.166Z" fill="#181530"/>
<path d="M160.676 193.89L159.034 201.858C157.792 201.169 156.559 201.858 156.559 201.858C156.085 201.8 153.46 198.675 150.249 194.873L150.241 194.859C145.945 189.767 140.616 183.455 138.071 181.648C133.631 178.486 130.799 177.603 130.799 177.603L133.41 196.637L136.285 217.629C136.285 217.629 146.669 227.812 163.423 229.784C167.266 230.236 170.084 229.02 172.136 226.856H172.143C179.064 219.621 177.436 201.856 177.436 201.856C166.169 201.169 160.676 193.89 160.676 193.89Z" fill="#E54A64"/>
<path d="M148.512 219.959C141.511 213.368 140.953 206.369 140.409 201.149C139.864 195.928 134.68 189.2 134.68 189.2L133.407 196.637L136.283 217.629C136.283 217.629 146.667 227.812 163.42 229.784C167.263 230.236 170.082 229.02 172.134 226.856C163.774 231.146 155.513 226.557 148.512 219.959Z" fill="#DB284E"/>
<path d="M134.349 188.519C133.252 185.155 130.799 177.604 130.799 177.604C129.917 177.367 129.078 177.152 128.274 176.958C119.159 174.728 114.781 174.778 114.781 174.778C105.997 177.008 99.5624 182.703 96.1496 186.388C95.2095 187.401 94.4307 188.553 93.8404 189.803C93.2737 190.991 92.8876 192.258 92.6947 193.56C91.978 198.423 91.0589 207.459 92.0582 217.901C93.5718 233.559 94.5329 237.544 97.4162 243.855C100.299 250.165 112.526 251.958 123.233 248.524C123.233 248.524 125.162 241.281 120.942 234.574L138.182 232.123C138.182 232.123 139.151 205.615 138.735 200.969C138.318 196.323 134.349 188.519 134.349 188.519Z" fill="#E54A64"/>
<path d="M114.777 174.78C105.993 177.01 99.5585 182.706 96.1456 186.391C95.2056 187.404 94.4268 188.555 93.8364 189.805C95.3996 190.187 97.9532 187.926 102.965 186.183C109.004 184.075 112.023 186.915 117.625 185.451C123.226 183.988 123.95 180.232 123.95 180.232C126.861 178.906 128.278 176.962 128.278 176.962C119.159 174.728 114.777 174.78 114.777 174.78Z" fill="#DB284E"/>
<path d="M119.457 177.604C120.093 178.766 121.799 181.212 122.598 185.863C122.598 185.863 124.136 181.327 120.782 176.201C117.427 171.074 118.815 176.441 119.457 177.604Z" fill="#C62246"/>
<path d="M111.243 173.208C108.725 173.5 108.335 174.857 108.335 174.857L110.076 176.361L111.603 175.972C111.603 175.972 113.534 172.943 111.243 173.208Z" fill="#B2163F"/>
<path d="M119.926 175.289C118.207 173.825 111.055 169.017 111.055 169.017L110.51 175.497C110.51 175.497 109.263 176.813 111.636 180.692C115.39 186.825 120.221 188.481 121.909 187.375C124.285 185.818 120.057 178.908 120.057 178.908L119.926 175.289Z" fill="#F4A589"/>
<path d="M130.455 165.388C129.954 163.422 129.25 161.373 128.594 159.405C128.591 159.398 128.588 159.391 128.586 159.383C128.061 157.807 127.568 156.28 127.223 154.885C125.419 147.501 118.895 148.265 118.895 148.265C103.417 148.226 108.457 165.366 110.239 168.906C112.021 172.447 117.24 176.939 125.005 175.294C129.028 174.44 131.676 170.389 130.548 165.772C130.519 165.643 130.488 165.515 130.455 165.388Z" fill="#FBBD9D"/>
<path d="M118.776 169.173C120.2 167.53 119.878 164.917 118.055 163.337C116.233 161.757 113.601 161.807 112.176 163.45C110.752 165.093 111.074 167.706 112.896 169.286C114.719 170.867 117.351 170.816 118.776 169.173Z" fill="#FC9E8B"/>
<path d="M128.586 159.377L128.499 159.136C127.945 160.227 127.839 161.491 128.205 162.658C128.57 163.825 129.378 164.803 130.455 165.383C129.954 163.417 129.25 161.368 128.594 159.4C128.591 159.393 128.588 159.385 128.586 159.377Z" fill="#FC9E8B"/>
<path d="M117.687 160.523C117.292 160.677 117.133 161.242 117.334 161.783C117.535 162.324 118.017 162.637 118.411 162.483C118.806 162.329 118.965 161.764 118.765 161.223C118.565 160.682 118.081 160.372 117.687 160.523Z" fill="#263238"/>
<path d="M125.982 158.663C125.614 158.761 125.429 159.311 125.57 159.891C125.712 160.472 126.127 160.86 126.496 160.762C126.865 160.664 127.05 160.114 126.907 159.535C126.765 158.956 126.351 158.565 125.982 158.663Z" fill="#263238"/>
<path d="M118.231 156.775C117.701 156.645 117.15 156.629 116.614 156.728C116.08 156.806 115.569 157 115.118 157.297C114.809 157.52 114.724 157.712 114.826 157.782C115.051 157.922 115.815 157.63 116.762 157.483C117.705 157.314 118.529 157.34 118.688 157.135C118.754 157.037 118.605 156.885 118.231 156.775Z" fill="#263238"/>
<path d="M125.755 154.739C125.338 154.683 124.913 154.742 124.527 154.91C124.137 155.064 123.798 155.323 123.547 155.659C123.37 155.913 123.355 156.112 123.449 156.168C123.655 156.273 124.154 155.889 124.83 155.62C125.496 155.331 126.123 155.246 126.191 155.027C126.216 154.922 126.063 154.794 125.755 154.739Z" fill="#263238"/>
<path d="M126.715 163.939C126.552 163.523 126.132 163.303 125.777 163.43C125.684 163.464 125.585 163.475 125.487 163.465C125.389 163.454 125.295 163.421 125.212 163.369C125.001 163.244 124.841 163.051 124.756 162.822L124.247 161.502C124.231 161.46 124.199 161.427 124.158 161.409C124.118 161.39 124.072 161.389 124.03 161.405C123.99 161.422 123.957 161.454 123.94 161.494C123.922 161.534 123.919 161.58 123.934 161.621L124.443 162.943C124.555 163.243 124.767 163.497 125.044 163.661C125.17 163.738 125.313 163.785 125.461 163.799C125.608 163.813 125.757 163.794 125.896 163.742C126.08 163.672 126.305 163.813 126.406 164.058L126.441 164.149C126.563 164.446 126.579 164.775 126.486 165.081C126.451 165.209 126.386 165.327 126.298 165.426C126.21 165.525 126.1 165.602 125.977 165.652L125.166 165.967C125.124 165.983 125.091 166.015 125.073 166.056C125.055 166.096 125.054 166.142 125.07 166.184C125.086 166.225 125.118 166.258 125.159 166.276C125.199 166.294 125.245 166.295 125.287 166.279L126.099 165.963L126.16 165.938C126.313 165.864 126.449 165.759 126.559 165.629C126.668 165.499 126.749 165.348 126.796 165.184C126.912 164.805 126.894 164.397 126.746 164.028L126.715 163.939Z" fill="#FF806D"/>
<path d="M121.188 143.245C121.188 143.245 119.007 139.371 108.73 140.784C98.4537 142.197 96.4742 151.627 96.4742 151.627C94.1077 153.09 92.6845 154.541 92.7138 157.045C92.7711 160.888 94.5571 163.938 98.2577 165.608C99.4969 166.18 100.823 166.542 102.181 166.678C106.097 167.043 108.57 165.15 108.57 165.15C112.931 165.15 113.196 162.222 113.074 160.782V160.767C113.052 160.513 113.009 160.262 112.947 160.015C118.597 159.298 116.732 156.687 117.666 152.176C118.557 147.848 122.248 150.627 122.564 150.863L122.586 150.885C124.877 148.827 127.06 154.278 127.06 154.278C127.161 153.461 127.216 152.64 127.226 151.818C127.283 143.018 121.188 143.245 121.188 143.245Z" fill="#282243"/>
<path d="M105.26 164.664C102.07 166.636 107.244 173.376 111.995 170.593L109.577 165.458C109.577 165.458 107.743 163.126 105.26 164.664Z" fill="#FBBD9D"/>
<path d="M122.573 150.76C124.864 148.702 127.229 154.883 127.229 154.883C127.338 154.001 127.206 152.452 127.213 151.692C126.303 149.742 124.654 147.538 122.573 150.76Z" fill="#181530"/>
<path d="M117.627 230.262H114.667C114.307 230.263 113.959 230.134 113.687 229.898C113.415 229.663 113.237 229.336 113.187 228.98C112.678 225.372 111.041 214.729 108.134 204.46C104.57 191.841 96.1875 189.2 96.1875 189.2C104.08 195.777 106.212 203.437 108.57 215.384C110.927 227.331 105.068 234.061 105.068 234.061C105.068 234.061 105.577 233.97 110.012 232.279C114.447 230.589 115.868 231.363 117.244 231.546C118.62 231.729 120.952 234.574 120.952 234.574C120.095 232.96 118.971 231.501 117.627 230.262Z" fill="#DB284E"/>
<path d="M156.561 201.858C156.088 201.8 153.463 198.675 150.251 194.873L155.787 204.461C155.515 208.822 157.623 211.447 157.623 208.98C157.623 206.513 159.545 203.3 159.545 203.3L160.678 193.89L159.036 201.858C157.792 201.169 156.561 201.858 156.561 201.858Z" fill="#DB284E"/>
<path d="M112.988 180.844C110.899 176.667 109.411 172.534 108.341 174.861C107.983 175.681 107.938 176.603 108.213 177.453C109.066 180.254 111.905 187.111 119.456 187.528C119.456 187.523 115.375 185.621 112.988 180.844Z" fill="#C62246"/>
<path d="M126.964 234.572C122 237.147 138.849 234.572 138.849 234.572L136.742 220.97C136.742 220.97 131.935 231.997 126.964 234.572Z" fill="#DB284E"/>
<path d="M123.591 246.314L136.194 241.02V231.314L120.95 234.572C123.836 240.759 123.591 246.314 123.591 246.314Z" fill="#FBBD9D"/>
<path d="M170.794 212.257L167.865 212.756H167.86L151.477 215.547L145.257 216.606L134.67 218.413L131.429 238.162L129.528 249.765L129.328 250.968L145.911 247.416L148.94 246.762L152.566 245.989H152.573L159.004 244.606L167.878 242.705L170.906 242.057L174.595 241.265L175.992 234.03V234.023L177.132 228.091V228.085L180.367 211.309L180.503 210.599L174.64 211.596L170.794 212.257Z" fill="#4AA1B5"/>
<path d="M152.573 245.989L159.004 244.606L180.367 211.309L180.504 210.599L174.64 211.596L152.573 245.989Z" fill="#5BB5C4"/>
<path d="M131.429 238.162L129.528 249.765L151.477 215.547L145.257 216.606L131.429 238.162Z" fill="#5BB5C4"/>
<path d="M167.86 212.756L145.912 247.416L148.94 246.762L170.795 212.257L167.865 212.756H167.86Z" fill="#5BB5C4"/>
<path d="M170.906 242.057L175.992 234.03V234.023L177.132 228.091L167.878 242.705L170.906 242.057Z" fill="#5BB5C4"/>
<path d="M132.835 217.627L134.671 218.417L180.501 210.599L178.703 209.931L132.835 217.627Z" fill="#3598A8"/>
<path d="M127.259 250.97H129.331L134.671 218.416L132.836 217.627L127.259 250.97Z" fill="#288993"/>
<path d="M128.963 252.856L174.037 243.077C174.196 243.042 174.338 242.952 174.44 242.824C174.541 242.696 174.595 242.537 174.593 242.374V241.265L129.331 250.97L128.963 252.856Z" fill="#52B1C1"/>
<path d="M114.383 247.255V248.852C114.383 248.893 114.396 248.932 114.42 248.964C114.445 248.996 114.479 249.02 114.518 249.03L128.632 252.868C128.714 252.891 128.8 252.894 128.883 252.877C128.967 252.861 129.045 252.826 129.113 252.774C129.18 252.723 129.235 252.656 129.273 252.58C129.311 252.504 129.33 252.42 129.331 252.335V250.97L114.614 247.078C114.587 247.07 114.558 247.07 114.531 247.075C114.503 247.081 114.477 247.092 114.455 247.109C114.433 247.126 114.415 247.148 114.402 247.174C114.39 247.199 114.383 247.227 114.383 247.255Z" fill="#288993"/>
<path d="M127.345 250.445L128.417 244.042L114.614 247.078L127.345 250.445Z" fill="#107075"/>
<path d="M177.438 201.858C169.148 193.915 160.678 193.89 160.678 193.89C168.172 202.837 177.438 201.858 177.438 201.858Z" fill="#DB284E"/>
<path d="M162.105 195.381C166.087 200.05 171.326 201.075 171.326 201.075L171.474 190.562L163.341 186.8L162.105 195.381Z" fill="#FBBD9D"/>
<path d="M164.137 174.78C161.988 176.211 161.473 181.168 163.341 186.803L171.474 190.566C171.474 190.566 174.55 186.474 174.593 183.252C174.597 181.263 174.058 179.312 173.034 177.607C173.034 177.607 166.284 173.345 164.137 174.78Z" fill="#FBBD9D"/>
<path d="M171.474 178.537L164.527 176.929L163.028 179.788L166.924 184.88C166.924 184.88 169.944 186.073 171.097 185.477C172.251 184.881 172.569 180.862 172.489 180.067C172.408 179.271 171.474 178.537 171.474 178.537Z" fill="#F4AB8C"/>
<path d="M165.489 163.915C163.906 164.326 162.897 176.136 162.897 176.136C163.676 176.192 164.523 175.557 165.159 174.933C165.529 174.57 165.869 174.178 166.177 173.762L166.27 172.309L166.664 166.134C166.664 166.134 167.072 163.498 165.489 163.915Z" fill="#FBBD9D"/>
<path d="M163.913 174.939H165.159C165.529 174.576 165.869 174.185 166.177 173.768L166.27 172.316C164.335 172.784 163.913 174.939 163.913 174.939Z" fill="#F4AB8C"/>
<path d="M174.001 177.238C173.602 175.649 169.065 173.226 167.32 172.826C165.575 172.426 163.912 174.939 163.912 174.939C163.893 175.032 163.88 175.126 163.868 175.219C163.202 180.124 171.241 182.448 172.5 182.212C173.645 181.999 174.25 179.513 174.095 177.836C174.079 177.635 174.047 177.435 174.001 177.238Z" fill="#F4AB8C"/>
<path d="M167.32 172.826C165.57 172.428 163.913 174.939 163.913 174.939C163.894 175.032 163.881 175.126 163.868 175.219C164.479 179.339 171.341 181.277 172.5 181.058C173.391 180.897 173.964 179.32 174.095 177.837C174.079 177.635 174.048 177.435 174.001 177.238C173.603 175.65 169.066 173.226 167.32 172.826Z" fill="#FBBD9D"/>
<path d="M171.472 177.606C171.472 177.606 169.029 176.206 166.791 176.827C164.553 177.448 162.208 180.853 162.208 180.853C162.102 183.189 163.342 186.798 163.342 186.798C163.342 186.798 163.424 187.745 164.976 188.78C166.527 189.815 169.049 189.435 169.711 186.194C169.771 185.909 169.805 185.619 169.812 185.328V185.315C169.911 182.53 167.761 180.585 167.761 180.585L168.397 179.108L170.148 179.033C172.248 178.772 171.568 177.731 171.482 177.625C171.477 177.62 171.473 177.613 171.472 177.606Z" fill="#FBBD9D"/>
<path d="M170.617 178.716C169.789 178.8 168.956 178.833 168.124 178.817C168.095 178.817 168.067 178.824 168.043 178.838C168.018 178.852 167.997 178.872 167.982 178.897L167.03 180.48C167.001 180.527 166.992 180.582 167.003 180.635C167.015 180.689 167.046 180.735 167.091 180.766C167.67 181.147 169.56 182.614 169.808 185.315C169.894 182.897 168.28 181.114 167.858 180.683C167.828 180.653 167.808 180.614 167.801 180.573C167.793 180.531 167.798 180.488 167.816 180.45L168.352 179.204C168.364 179.175 168.384 179.151 168.41 179.133C168.435 179.115 168.466 179.105 168.497 179.104L170.144 179.033C172.244 178.772 171.565 177.731 171.478 177.625C171.509 177.763 171.659 178.585 170.617 178.716Z" fill="#EDA085"/>
<path d="M122.7 169.318C122.7 169.318 123.511 171.218 125.045 171.142C126.578 171.065 127.025 169.195 126.827 167.698C126.836 167.698 124.281 168.465 122.7 169.318Z" fill="#F28775"/>
<path d="M51.9019 133.836H9.3284C4.17647 133.836 0 138.012 0 143.164V146.941C0 152.093 4.17647 156.27 9.3284 156.27H51.9019C57.0539 156.27 61.2303 152.093 61.2303 146.941V143.164C61.2303 138.012 57.0539 133.836 51.9019 133.836Z" fill="#1D7772"/>
<path d="M79.016 152.896L67.9118 146.358V143.623C67.9123 142.337 67.6597 141.065 67.1682 139.877C66.6767 138.689 65.9562 137.61 65.0476 136.701C64.139 135.792 63.0603 135.071 61.8729 134.579C60.6856 134.087 59.413 133.834 58.1277 133.833H16.4682C15.183 133.834 13.9103 134.087 12.723 134.579C11.5357 135.071 10.4569 135.792 9.54836 136.701C8.63978 137.61 7.91919 138.689 7.42773 139.877C6.93627 141.065 6.68358 142.337 6.68408 143.623V146.483C6.68408 149.078 7.71491 151.567 9.54979 153.401C11.3847 155.236 13.8733 156.267 16.4682 156.267H58.1277C59.5892 156.269 61.0324 155.943 62.3506 155.312C63.6687 154.681 64.828 153.761 65.7427 152.621L78.7105 153.831C78.8223 153.836 78.9328 153.805 79.025 153.742C79.1173 153.679 79.1861 153.587 79.2209 153.48C79.2557 153.374 79.2544 153.259 79.2174 153.154C79.1804 153.048 79.1096 152.958 79.016 152.896Z" fill="#44A8A7"/>
<path d="M24.8383 148.914C26.6296 148.914 28.0818 147.462 28.0818 145.671C28.0818 143.879 26.6296 142.427 24.8383 142.427C23.0469 142.427 21.5947 143.879 21.5947 145.671C21.5947 147.462 23.0469 148.914 24.8383 148.914Z" fill="#FEFEFE"/>
<path d="M38.4904 148.667C40.1454 147.981 40.9313 146.084 40.2458 144.429C39.5603 142.774 37.6629 141.988 36.0079 142.673C34.3529 143.359 33.567 145.256 34.2525 146.911C34.938 148.566 36.8354 149.352 38.4904 148.667Z" fill="#FEFEFE"/>
<path d="M49.6591 148.914C51.4504 148.914 52.9026 147.462 52.9026 145.671C52.9026 143.879 51.4504 142.427 49.6591 142.427C47.8677 142.427 46.4155 143.879 46.4155 145.671C46.4155 147.462 47.8677 148.914 49.6591 148.914Z" fill="#FEFEFE"/>
<path d="M338.518 64.442C338.339 64.5198 338.189 64.6536 338.092 64.8234C337.995 64.9931 337.956 65.1898 337.98 65.3838C338.004 65.5779 338.09 65.759 338.226 65.8999C338.362 66.0408 338.539 66.134 338.732 66.1656L349.171 67.8625L348.158 60.2704L338.518 64.442Z" fill="#EF863F"/>
<path d="M248.889 14.6392C248.876 14.2317 248.78 13.8311 248.607 13.4619C248.434 13.0927 248.188 12.7627 247.883 12.4921C247.578 12.2215 247.221 12.0159 246.834 11.888C246.447 11.7601 246.037 11.7126 245.631 11.7483L241.191 12.1365C240.787 12.1719 240.394 12.2891 240.036 12.481C239.678 12.6729 239.363 12.9355 239.11 13.2529C238.857 13.5703 238.67 13.9358 238.563 14.3273C238.455 14.7188 238.428 15.1281 238.484 15.5303L241.557 37.6801C241.662 38.4416 242.057 39.1333 242.658 39.6124C243.259 40.0914 244.021 40.3211 244.787 40.2541L246.857 40.0733C247.621 40.0067 248.329 39.6503 248.838 39.0774C249.347 38.5045 249.617 37.7585 249.593 36.9927L248.889 14.6392Z" fill="#B81F1E"/>
<path d="M246.753 14.8225C246.74 14.4149 246.645 14.0143 246.472 13.645C246.299 13.2758 246.052 12.9457 245.747 12.675C245.442 12.4042 245.085 12.1986 244.698 12.0705C244.311 11.9425 243.902 11.8948 243.496 11.9303L239.055 12.3122C238.651 12.3477 238.257 12.4651 237.899 12.6574C237.541 12.8497 237.226 13.1128 236.972 13.4307C236.719 13.7486 236.533 14.1147 236.426 14.5067C236.318 14.8987 236.292 15.3084 236.348 15.711L239.421 37.8609C239.527 38.6222 239.921 39.3138 240.522 39.7927C241.124 40.2717 241.886 40.5016 242.652 40.4348L244.722 40.2541C245.484 40.1862 246.192 39.8289 246.7 39.2556C247.208 38.6823 247.477 37.9364 247.452 37.1709L246.753 14.8225Z" fill="#DA2326"/>
<path d="M246.021 50.5258C248.275 50.3286 249.944 48.3582 249.748 46.1247C249.553 43.8912 247.568 42.2404 245.314 42.4376C243.06 42.6348 241.391 44.6052 241.587 46.8387C241.782 49.0722 243.768 50.723 246.021 50.5258Z" fill="#B81F1E"/>
<path d="M245.316 42.4232L243.796 42.5561L244.504 50.6455L246.023 50.5126L245.316 42.4232Z" fill="#B81F1E"/>
<path d="M246.046 50.0747C248.308 49.8711 249.979 47.8885 249.777 45.6465C249.575 43.4044 247.578 41.752 245.315 41.9556C243.053 42.1592 241.382 44.1418 241.584 46.3838C241.786 48.6258 243.783 50.2783 246.046 50.0747Z" fill="#DA2326"/>
<path d="M68.3441 90.5724C68.2319 90.2148 68.0479 89.8838 67.8033 89.5997C67.5587 89.3156 67.2588 89.0844 66.9218 88.9202C66.5849 88.756 66.2179 88.6623 65.8435 88.6447C65.4691 88.6272 65.095 88.6862 64.7441 88.8182L60.9087 90.2605C60.5588 90.3921 60.2393 90.5934 59.9697 90.8523C59.7001 91.1112 59.486 91.4222 59.3403 91.7665C59.1947 92.1107 59.1206 92.481 59.1226 92.8548C59.1246 93.2286 59.2025 93.598 59.3518 93.9407L67.5536 112.781C67.8353 113.429 68.3553 113.944 69.0062 114.22C69.6571 114.495 70.389 114.51 71.0505 114.261L72.8327 113.589C73.4909 113.34 74.0288 112.848 74.3365 112.215C74.6441 111.582 74.6982 110.856 74.4875 110.184L68.3441 90.5724Z" fill="#E06D20"/>
<path d="M66.4993 91.2726C66.3871 90.9148 66.203 90.5837 65.9584 90.2994C65.7138 90.0152 65.4137 89.7839 65.0767 89.6195C64.7396 89.4552 64.3725 89.3614 63.9979 89.3438C63.6233 89.3262 63.2491 89.3852 62.8981 89.5172L59.0626 90.9595C58.7129 91.0913 58.3937 91.2928 58.1243 91.5518C57.8549 91.8107 57.6409 92.1217 57.4953 92.4658C57.3497 92.81 57.2756 93.1801 57.2774 93.5538C57.2792 93.9275 57.3569 94.2969 57.5057 94.6396L65.7076 113.487C65.9899 114.135 66.5104 114.65 67.1613 114.925C67.8123 115.201 68.5441 115.215 69.2057 114.967L70.9879 114.294C71.6465 114.046 72.1848 113.554 72.4926 112.921C72.8003 112.288 72.854 111.561 72.6427 110.889L66.4993 91.2726Z" fill="#EF863F"/>
<path d="M72.0566 116.074C71.3692 116.34 70.7758 116.803 70.3512 117.405C69.9266 118.007 69.6898 118.722 69.6707 119.459C69.6516 120.195 69.8509 120.921 70.2437 121.545C70.6364 122.168 71.2049 122.662 71.8776 122.963C72.5503 123.264 73.297 123.359 74.0237 123.236C74.7503 123.113 75.4243 122.778 75.9608 122.273C76.4972 121.767 76.8721 121.115 77.0382 120.397C77.2043 119.679 77.1541 118.928 76.8939 118.238C76.5391 117.31 75.8302 116.561 74.9232 116.155C74.0161 115.749 72.9851 115.72 72.0566 116.074Z" fill="#E06D20"/>
<path d="M72.0533 116.082L70.7402 116.576L73.3683 123.564L74.6814 123.071L72.0533 116.082Z" fill="#B81F1E"/>
<path d="M73.3769 123.546C75.3241 122.813 76.3144 120.656 75.5888 118.726C74.8632 116.797 72.6965 115.826 70.7493 116.559C68.8021 117.291 67.8119 119.449 68.5375 121.378C69.2631 123.307 71.4298 124.278 73.3769 123.546Z" fill="#EF863F"/>
<path d="M358.671 126.179C358.234 125.954 357.755 125.82 357.265 125.785C356.774 125.749 356.282 125.813 355.817 125.973C355.354 126.122 354.928 126.365 354.564 126.688C354.201 127.011 353.909 127.406 353.706 127.848C353.197 128.897 353.138 129.875 353.528 130.783C353.899 131.673 354.589 132.392 355.463 132.8C356.314 133.221 357.293 133.302 358.201 133.026C359.151 132.758 359.876 132.107 360.378 131.074C360.595 130.642 360.723 130.17 360.755 129.688C360.787 129.206 360.721 128.722 360.563 128.265C360.404 127.808 360.156 127.388 359.832 127.029C359.508 126.67 359.115 126.38 358.677 126.175L358.671 126.179Z" fill="#CC234F"/>
<path d="M377.332 103.463C376.075 101.879 374.378 100.569 372.24 99.5317C369.936 98.4149 367.691 97.9108 365.507 98.0194C363.323 98.128 361.431 98.6835 359.832 99.6857C358.234 100.689 357.096 101.892 356.417 103.295C356.088 103.974 356.067 104.742 356.353 105.601C356.484 106.015 356.701 106.396 356.988 106.721C357.275 107.047 357.628 107.308 358.022 107.489C359.423 108.168 360.781 107.795 362.095 106.371C363.399 105.035 364.633 104.144 365.797 103.698C366.962 103.253 368.356 103.422 369.982 104.207C371.367 104.879 372.303 105.834 372.79 107.072C373.031 107.65 373.144 108.273 373.123 108.899C373.101 109.526 372.944 110.14 372.662 110.7C372.382 111.291 371.952 111.799 371.415 112.174C370.879 112.551 370.292 112.851 369.672 113.065C369.046 113.281 368.061 113.574 366.716 113.944C365.445 114.281 364.193 114.682 362.962 115.146C361.977 115.537 361.068 116.097 360.276 116.801C359.451 117.523 358.739 118.504 358.139 119.744C357.66 120.733 357.561 121.605 357.842 122.361C357.979 122.733 358.189 123.075 358.459 123.365C358.729 123.655 359.053 123.889 359.415 124.053C360.891 124.769 362.142 124.426 363.166 123.027C363.675 122.383 364.042 121.937 364.266 121.688C364.496 121.43 364.752 121.197 365.03 120.99C365.382 120.737 365.764 120.527 366.166 120.365C366.751 120.125 367.349 119.917 367.957 119.743C370.56 118.999 372.379 118.453 373.412 118.106C374.486 117.739 375.499 117.21 376.414 116.539C377.381 115.841 378.169 114.865 378.777 113.611C379.546 112.036 379.826 110.268 379.582 108.533C379.338 106.736 378.588 105.046 377.332 103.463Z" fill="#CC234F"/>
<path d="M356.57 104.444L355.959 107.095L358.672 107.72L359.283 105.069L356.57 104.444Z" fill="#CE2E49"/>
<path d="M365.991 97.6519L365.381 100.303L368.094 100.928L368.704 98.2768L365.991 97.6519Z" fill="#CE2E49"/>
<path d="M357.599 122.478L357.327 123.657L360.057 124.285L360.329 123.107L357.599 122.478Z" fill="#CE2E49"/>
<path d="M354.913 125.191L354.641 126.37L357.371 126.999L357.643 125.82L354.913 125.191Z" fill="#CE2E49"/>
<path d="M353.785 131.265L353.514 132.444L356.244 133.072L356.515 131.894L353.785 131.265Z" fill="#CE2E49"/>
<path d="M374.585 102.83C373.329 101.245 371.631 99.9343 369.493 98.899C367.189 97.783 364.944 97.2789 362.759 97.3867C360.573 97.4945 358.682 98.0499 357.085 99.053C355.487 100.056 354.348 101.259 353.669 102.662C353.341 103.341 353.319 104.11 353.605 104.969C353.736 105.382 353.953 105.763 354.24 106.088C354.527 106.413 354.879 106.675 355.273 106.856C356.676 107.535 358.034 107.162 359.347 105.737C360.65 104.401 361.885 103.51 363.05 103.064C364.215 102.619 365.61 102.788 367.233 103.573C368.621 104.245 369.557 105.2 370.043 106.438C370.284 107.016 370.397 107.639 370.375 108.265C370.353 108.892 370.196 109.506 369.915 110.066C369.635 110.657 369.205 111.165 368.668 111.54C368.131 111.916 367.544 112.216 366.924 112.431C366.299 112.647 365.314 112.94 363.969 113.31C362.698 113.647 361.445 114.048 360.215 114.512C359.23 114.903 358.32 115.463 357.528 116.167C356.705 116.889 355.993 117.87 355.392 119.11C354.912 120.099 354.813 120.971 355.094 121.727C355.231 122.099 355.441 122.441 355.711 122.731C355.981 123.021 356.306 123.255 356.667 123.419C358.144 124.135 359.394 123.793 360.418 122.393C360.927 121.747 361.294 121.3 361.519 121.053C361.75 120.795 362.005 120.562 362.282 120.355C362.635 120.102 363.017 119.892 363.419 119.73C364.004 119.49 364.602 119.282 365.21 119.109C367.814 118.365 369.632 117.819 370.665 117.472C371.739 117.104 372.751 116.576 373.667 115.905C374.632 115.207 375.42 114.231 376.029 112.977C376.798 111.402 377.079 109.634 376.835 107.899C376.589 106.103 375.839 104.414 374.585 102.83Z" fill="#EF4864"/>
<path d="M355.922 125.546C355.485 125.322 355.007 125.188 354.517 125.152C354.027 125.116 353.535 125.18 353.07 125.339C352.607 125.488 352.18 125.732 351.816 126.055C351.453 126.378 351.16 126.773 350.958 127.215C350.449 128.263 350.39 129.242 350.781 130.151C351.152 131.04 351.842 131.759 352.715 132.167C353.564 132.587 354.54 132.669 355.448 132.397C356.397 132.129 357.123 131.478 357.624 130.443C357.842 130.011 357.97 129.54 358.001 129.058C358.033 128.576 357.968 128.092 357.809 127.635C357.65 127.178 357.402 126.758 357.077 126.399C356.753 126.041 356.361 125.751 355.922 125.546Z" fill="#EF4864"/>
<path d="M261.316 44.4614C260.87 44.2874 260.394 44.2049 259.915 44.2189C259.437 44.2329 258.967 44.3431 258.532 44.5428C258.098 44.7327 257.709 45.0107 257.388 45.3591C257.068 45.7076 256.824 46.1189 256.671 46.5669C256.282 47.6336 256.321 48.5875 256.788 49.4285C257.236 50.2537 257.975 50.8824 258.861 51.1916C259.726 51.5152 260.682 51.4984 261.535 51.1445C262.428 50.7906 263.067 50.0883 263.451 49.0377C263.619 48.5975 263.697 48.1279 263.681 47.6568C263.665 47.1858 263.554 46.7228 263.355 46.2953C263.156 45.8679 262.874 45.4848 262.524 45.1687C262.174 44.8525 261.765 44.6098 261.32 44.455L261.316 44.4614Z" fill="#336EB5"/>
<path d="M277.152 20.6222C275.779 19.2117 274.005 18.1085 271.829 17.3125C269.487 16.4579 267.263 16.191 265.158 16.5118C263.052 16.8326 261.275 17.5573 259.827 18.686C258.376 19.8156 257.392 21.0928 256.873 22.5177C256.619 23.2076 256.674 23.9544 257.039 24.7581C257.207 25.1458 257.454 25.4941 257.764 25.7808C258.075 26.0675 258.442 26.2863 258.841 26.4232C260.267 26.9426 261.544 26.4474 262.672 24.9376C263.803 23.5144 264.91 22.5287 265.994 21.9805C267.078 21.4322 268.445 21.4594 270.097 22.0619C271.507 22.5711 272.508 23.4037 273.1 24.5595C273.39 25.0959 273.561 25.6886 273.601 26.2973C273.641 26.9059 273.549 27.516 273.332 28.0857C273.12 28.6849 272.755 29.2187 272.275 29.6349C271.792 30.0529 271.253 30.4016 270.674 30.6711C270.09 30.9418 269.165 31.3237 267.899 31.8168C266.699 32.269 265.522 32.7814 264.374 33.352C263.458 33.8268 262.633 34.4579 261.935 35.2169C261.207 35.9977 260.613 37.0161 260.152 38.2721C259.784 39.2777 259.774 40.1327 260.122 40.8371C260.292 41.1838 260.529 41.4933 260.819 41.7479C261.109 42.0024 261.447 42.1969 261.812 42.3201C263.313 42.8675 264.49 42.4126 265.345 40.9555C265.778 40.2808 266.089 39.8141 266.278 39.5552C266.476 39.2831 266.7 39.0315 266.948 38.8042C267.264 38.524 267.613 38.2829 267.986 38.0862C268.53 37.7959 269.088 37.5358 269.66 37.3072C272.108 36.3295 273.815 35.6217 274.783 35.1838C275.787 34.7215 276.715 34.1099 277.536 33.3698C278.403 32.5984 279.069 31.5749 279.535 30.2994C280.125 28.6988 280.222 26.9582 279.815 25.3017C279.411 23.5874 278.523 22.0276 277.152 20.6222Z" fill="#336EB5"/>
<path d="M257.16 23.6285L256.83 26.2556L259.52 26.5936L259.85 23.9664L257.16 23.6285Z" fill="#336EB5"/>
<path d="M265.618 16.1199L265.288 18.747L267.978 19.085L268.308 16.4579L265.618 16.1199Z" fill="#336EB5"/>
<path d="M259.936 40.9951L259.789 42.1634L262.496 42.5034L262.643 41.3351L259.936 40.9951Z" fill="#336EB5"/>
<path d="M257.598 43.8858L257.451 45.0541L260.158 45.3942L260.305 44.2258L257.598 43.8858Z" fill="#336EB5"/>
<path d="M257.11 49.8827L256.963 51.051L259.67 51.391L259.816 50.2227L257.11 49.8827Z" fill="#336EB5"/>
<path d="M274.428 20.2734C273.055 18.8646 271.28 17.7614 269.105 16.9637C266.765 16.1099 264.541 15.843 262.434 16.163C260.326 16.4829 258.549 17.2077 257.102 18.3372C255.653 19.4659 254.669 20.7436 254.149 22.1701C253.895 22.8601 253.95 23.6069 254.315 24.4106C254.483 24.798 254.73 25.146 255.041 25.4325C255.351 25.7189 255.718 25.9376 256.117 26.0744C257.543 26.5955 258.82 26.1007 259.949 24.5901C261.079 23.1669 262.186 22.1808 263.27 21.6317C264.354 21.0826 265.721 21.1098 267.373 21.7132C268.783 22.2274 269.784 23.06 270.376 24.2107C270.666 24.7471 270.837 25.3399 270.877 25.9485C270.917 26.5571 270.825 27.1672 270.607 27.7369C270.393 28.3375 270.027 28.8722 269.545 29.2887C269.062 29.7065 268.523 30.0549 267.943 30.3236C267.359 30.5943 266.434 30.9762 265.168 31.4693C263.97 31.9187 262.796 32.4285 261.65 32.9968C260.734 33.4716 259.909 34.1028 259.211 34.8618C258.483 35.6425 257.889 36.663 257.428 37.9233C257.062 38.9289 257.052 39.7839 257.399 40.4883C257.568 40.8351 257.805 41.1447 258.095 41.3993C258.385 41.6539 258.723 41.8483 259.088 41.9714C260.59 42.5187 261.768 42.0639 262.621 40.6067C263.054 39.932 263.365 39.4653 263.555 39.2064C263.752 38.934 263.976 38.6824 264.223 38.4554C264.54 38.1755 264.889 37.9344 265.262 37.7374C265.806 37.4479 266.365 37.1878 266.936 36.9584C269.385 35.9807 271.092 35.2729 272.059 34.835C273.066 34.3754 273.997 33.7655 274.821 33.0261C275.688 32.253 276.355 31.2291 276.821 29.9544C277.41 28.3535 277.507 26.6132 277.1 24.9567C276.691 23.245 275.8 21.6839 274.428 20.2734Z" fill="#5C8ED6"/>
<path d="M258.592 44.1189C258.146 43.9449 257.67 43.8624 257.192 43.8764C256.713 43.8904 256.243 44.0006 255.808 44.2003C255.374 44.3904 254.985 44.6685 254.665 45.0169C254.345 45.3653 254.101 45.7765 253.948 46.2244C253.559 47.2911 253.598 48.245 254.065 49.086C254.512 49.9112 255.251 50.5398 256.138 50.8491C257.002 51.1727 257.958 51.1559 258.811 50.802C259.704 50.4481 260.343 49.7459 260.727 48.6952C260.894 48.2554 260.972 47.7864 260.955 47.3159C260.938 46.8455 260.827 46.3833 260.629 45.9565C260.43 45.5298 260.148 45.1473 259.798 44.8316C259.449 44.516 259.04 44.2736 258.596 44.1189H258.592Z" fill="#5C8ED6"/>
<path d="M401.311 35.4906H359.395C358.254 35.491 357.125 35.7239 356.077 36.175C355.029 36.6261 354.083 37.286 353.299 38.1145C352.514 38.9429 351.906 39.9226 351.512 40.9936C351.119 42.0647 350.947 43.2047 351.009 44.3441L352.589 73.4152C352.706 75.5602 353.641 77.5787 355.201 79.0559C356.76 80.5331 358.827 81.3566 360.975 81.3573H398.146C400.216 81.3563 402.212 80.5914 403.753 79.2092C405.293 77.8269 406.27 75.9247 406.494 73.8671L409.654 44.7961C409.78 43.6242 409.659 42.4387 409.298 41.3167C408.937 40.1947 408.343 39.1613 407.556 38.2836C406.769 37.406 405.807 36.7038 404.731 36.2225C403.655 35.7413 402.489 35.4919 401.311 35.4906Z" fill="#E06D20"/>
<path d="M338.518 64.442C338.339 64.5198 338.189 64.6536 338.092 64.8234C337.995 64.9931 337.956 65.1898 337.98 65.3838C338.004 65.5779 338.09 65.759 338.226 65.8999C338.362 66.0408 338.539 66.134 338.732 66.1656L349.171 67.8625L348.158 60.2704L338.518 64.442Z" fill="#EF863F"/>
<path d="M395.106 35.4906H353.189C352.048 35.4912 350.919 35.7242 349.871 36.1754C348.823 36.6266 347.878 37.2865 347.094 38.1149C346.309 38.9434 345.701 39.9229 345.308 40.9939C344.914 42.0649 344.743 43.2048 344.804 44.3441L346.384 73.4152C346.501 75.56 347.436 77.5783 348.995 79.0555C350.555 80.5326 352.621 81.3563 354.769 81.3573H391.94C394.01 81.3567 396.007 80.5919 397.548 79.2096C399.089 77.8273 400.065 75.9249 400.29 73.8671L403.449 44.7961C403.576 43.6242 403.455 42.4387 403.093 41.3167C402.732 40.1947 402.139 39.1613 401.352 38.2836C400.565 37.406 399.602 36.7038 398.526 36.2225C397.45 35.7413 396.285 35.4919 395.106 35.4906Z" fill="#FF9D45"/>
<path d="M395.174 46.0679H354.576C353.459 46.0679 352.554 46.9729 352.554 48.0894V48.2867C352.554 49.4031 353.459 50.3082 354.576 50.3082H395.174C396.29 50.3082 397.195 49.4031 397.195 48.2867V48.0894C397.195 46.9729 396.29 46.0679 395.174 46.0679Z" fill="#FEFEFE"/>
<path d="M393.72 56.3038H354.576C353.459 56.3038 352.554 57.2089 352.554 58.3253V58.5226C352.554 59.639 353.459 60.5441 354.576 60.5441H393.72C394.836 60.5441 395.741 59.639 395.741 58.5226V58.3253C395.741 57.2089 394.836 56.3038 393.72 56.3038Z" fill="#FEFEFE"/>
<path d="M376.438 66.5398H354.576C353.459 66.5398 352.554 67.4449 352.554 68.5613V68.7586C352.554 69.8751 353.459 70.7801 354.576 70.7801H376.438C377.554 70.7801 378.459 69.8751 378.459 68.7586V68.5613C378.459 67.4449 377.554 66.5398 376.438 66.5398Z" fill="#FEFEFE"/>
<path d="M214.302 261.902L184.085 256.387C183.783 256.328 183.469 256.373 183.194 256.514L155.316 270.801C155.137 270.89 154.98 271.018 154.855 271.174C154.704 271.363 154.604 271.588 154.564 271.827C154.524 272.066 154.547 272.311 154.629 272.539C154.711 272.767 154.85 272.97 155.033 273.129C155.216 273.288 155.437 273.397 155.674 273.446L189.762 280.501C190.13 280.574 190.512 280.501 190.827 280.297L214.836 264.477C215.001 264.369 215.143 264.227 215.25 264.061C215.358 263.895 215.43 263.708 215.461 263.512C215.492 263.317 215.482 263.117 215.431 262.926C215.38 262.735 215.289 262.556 215.165 262.402C214.951 262.132 214.643 261.954 214.302 261.902Z" fill="#C4263D"/>
<path d="M214.302 261.902L184.086 256.387C183.783 256.328 183.469 256.373 183.195 256.514L155.316 270.801C155.137 270.89 154.98 271.018 154.855 271.174C155.057 271.438 155.348 271.62 155.674 271.683L189.762 278.732C189.944 278.772 190.133 278.774 190.316 278.739C190.499 278.703 190.673 278.631 190.827 278.527L214.836 262.706C214.96 262.624 215.072 262.523 215.165 262.407C214.952 262.135 214.644 261.955 214.302 261.902Z" fill="#DD333C"/>
<path d="M212.19 262.566L212.154 262.56L204.043 261.077L183.906 257.403L183.826 257.395C183.769 257.396 183.714 257.411 183.664 257.438L174.198 262.288L169.502 264.7L157.282 270.959L189.982 277.722C190.004 277.722 190.025 277.73 190.047 277.73C190.12 277.73 190.192 277.706 190.252 277.664L212.301 263.125C212.351 263.091 212.391 263.043 212.414 262.986C212.437 262.93 212.443 262.868 212.431 262.809C212.419 262.749 212.39 262.694 212.347 262.651C212.304 262.608 212.25 262.578 212.19 262.566Z" fill="#EBF1F7"/>
<path d="M174.196 262.289L169.5 264.7L212.155 262.558L204.041 261.077L174.196 262.289Z" fill="#FDFEFF"/>
<path d="M163.437 267.806L208.374 265.718L210.231 264.493L165.438 266.78L163.437 267.806Z" fill="#FDFEFF"/>
<path d="M171.79 273.959L198.516 272.215L201.161 270.471L165.253 272.607L171.79 273.959Z" fill="#FDFEFF"/>
<path d="M243.171 262.935L277.436 267.929C277.851 267.978 278.27 267.876 278.617 267.643L299.509 252.857L269.701 250.777L243.171 262.935Z" fill="#44A8A7"/>
<path d="M242.406 269.496C242.567 270.044 242.884 270.533 243.318 270.903C243.752 271.274 244.284 271.51 244.85 271.584L278.202 276.559L278.225 267.82L243.171 262.935C243.171 262.935 241.271 265.64 242.406 269.496Z" fill="#369694"/>
<path d="M243.633 264.525C243.274 265.506 243.122 266.551 243.188 267.594C243.224 268.321 243.513 269.011 244.004 269.548C244.495 270.084 245.158 270.432 245.879 270.532L278.205 275.613V269.019L244.31 264.105C244.167 264.089 244.022 264.121 243.899 264.198C243.776 264.274 243.682 264.389 243.633 264.525Z" fill="white"/>
<path d="M278.222 269.002L278.203 275.609V276.56L299.509 260.197V259.306C298.889 257.586 298.889 255.704 299.509 253.985V252.867L278.222 267.827V269.002Z" fill="#267773"/>
<path d="M278.222 269.002L278.203 269.016V275.609L299.509 259.296C298.889 257.576 298.889 255.694 299.509 253.975L278.222 269.002Z" fill="#F7EBE4"/>
<path d="M299.047 257.402V256.718L280.815 269.553L299.047 257.402Z" fill="#EDDBD3"/>
<path d="M269.302 244.421L254.79 250.606L247.16 253.859L275.754 257.778C276.097 257.826 276.446 257.75 276.738 257.565L294.17 246.583L283.648 245.666L269.302 244.421Z" fill="#EF863F"/>
<path d="M246.525 259.179C246.666 259.631 246.932 260.034 247.292 260.341C247.653 260.648 248.093 260.846 248.562 260.912L276.389 264.798L276.408 257.707L247.16 253.868C247.16 253.868 245.578 256.027 246.525 259.179Z" fill="#D8681D"/>
<path d="M247.548 255.156C247.248 255.948 247.121 256.795 247.176 257.64C247.216 258.24 247.461 258.809 247.869 259.251C248.278 259.693 248.826 259.981 249.422 260.067L276.394 264.016V258.669L248.113 254.825C247.995 254.808 247.875 254.832 247.773 254.892C247.67 254.952 247.591 255.045 247.548 255.156Z" fill="white"/>
<path d="M276.41 258.659L276.393 264.021V264.792L294.17 252.539V251.811C293.653 250.418 293.653 248.885 294.17 247.493V246.586L276.41 257.698V258.659Z" fill="#C15B16"/>
<path d="M276.41 258.659L276.393 258.671V264.017L294.17 251.811C293.653 250.418 293.653 248.886 294.17 247.493L276.41 258.659Z" fill="#F7EBE4"/>
<path d="M293.786 250.267V249.711L278.574 259.834L293.786 250.267Z" fill="#EDDBD3"/>
<path d="M274.275 261.051C263.447 258.251 249.536 256.91 249.536 256.91L274.275 261.051Z" fill="#F7EBE4"/>
<path d="M274.022 262.399C263.194 259.599 249.283 258.258 249.283 258.258L274.022 262.399Z" fill="#F7EBE4"/>
<path d="M254.797 250.606L247.167 253.859L275.754 257.778C276.097 257.826 276.446 257.75 276.738 257.564L294.17 246.582L283.648 245.666C279.034 247.722 268.485 251.496 254.797 250.606Z" fill="#EA792D"/>
</svg>
